<svg width="216" height="285" viewBox="0 0 216 285" fill="none" xmlns="http://www.w3.org/2000/svg">
<rect width="216" height="285" rx="10" fill="black"/>
<rect x="2" y="2.00708" width="212" height="212.754" rx="10" fill="white"/>
<path d="M25.2 17.8904H18V25.0904H25.2V17.8904Z" fill="black"/>
<path d="M32.4 17.8904H25.2V25.0904H32.4V17.8904Z" fill="black"/>
<path d="M39.6 17.8904H32.4V25.0904H39.6V17.8904Z" fill="black"/>
<path d="M46.8 17.8904H39.6V25.0904H46.8V17.8904Z" fill="black"/>
<path d="M54 17.8904H46.8V25.0904H54V17.8904Z" fill="black"/>
<path d="M61.2 17.8904H54V25.0904H61.2V17.8904Z" fill="black"/>
<path d="M68.4 17.8904H61.2V25.0904H68.4V17.8904Z" fill="black"/>
<path d="M82.8 17.8904H75.6V25.0904H82.8V17.8904Z" fill="black"/>
<path d="M90 17.8904H82.8V25.0904H90V17.8904Z" fill="black"/>
<path d="M104.4 17.8904H97.2V25.0904H104.4V17.8904Z" fill="black"/>
<path d="M111.6 17.8904H104.4V25.0904H111.6V17.8904Z" fill="black"/>
<path d="M126 17.8904H118.8V25.0904H126V17.8904Z" fill="black"/>
<path d="M140.4 17.8904H133.2V25.0904H140.4V17.8904Z" fill="black"/>
<path d="M154.8 17.8904H147.6V25.0904H154.8V17.8904Z" fill="black"/>
<path d="M162 17.8904H154.8V25.0904H162V17.8904Z" fill="black"/>
<path d="M169.2 17.8904H162V25.0904H169.2V17.8904Z" fill="black"/>
<path d="M176.4 17.8904H169.2V25.0904H176.4V17.8904Z" fill="black"/>
<path d="M183.6 17.8904H176.4V25.0904H183.6V17.8904Z" fill="black"/>
<path d="M190.8 17.8904H183.6V25.0904H190.8V17.8904Z" fill="black"/>
<path d="M198 17.8904H190.8V25.0904H198V17.8904Z" fill="black"/>
<path d="M25.2 25.0904H18V32.2904H25.2V25.0904Z" fill="black"/>
<path d="M68.4 25.0904H61.2L61.2 32.2904H68.4V25.0904Z" fill="black"/>
<path d="M104.4 25.0904H97.2V32.2904H104.4V25.0904Z" fill="black"/>
<path d="M111.6 25.0904H104.4V32.2904H111.6V25.0904Z" fill="black"/>
<path d="M126 25.0904H118.8V32.2904H126V25.0904Z" fill="black"/>
<path d="M140.4 25.0904H133.2V32.2904H140.4V25.0904Z" fill="black"/>
<path d="M154.8 25.0904H147.6V32.2904H154.8V25.0904Z" fill="black"/>
<path d="M198 25.0904H190.8V32.2904H198V25.0904Z" fill="black"/>
<path d="M25.2 32.2904H18V39.4904H25.2V32.2904Z" fill="black"/>
<path d="M39.6 32.2904H32.4V39.4904H39.6V32.2904Z" fill="black"/>
<path d="M46.8 32.2904H39.6V39.4904H46.8V32.2904Z" fill="black"/>
<path d="M54 32.2904H46.8V39.4904H54V32.2904Z" fill="black"/>
<path d="M68.4 32.2904H61.2V39.4904H68.4V32.2904Z" fill="black"/>
<path d="M82.8 32.2904H75.6V39.4904H82.8V32.2904Z" fill="black"/>
<path d="M90 32.2904H82.8V39.4904H90V32.2904Z" fill="black"/>
<path d="M97.2 32.2904H90V39.4904H97.2V32.2904Z" fill="black"/>
<path d="M118.8 32.2904H111.6V39.4904H118.8V32.2904Z" fill="black"/>
<path d="M126 32.2904H118.8V39.4904H126V32.2904Z" fill="black"/>
<path d="M140.4 32.2904H133.2V39.4904H140.4V32.2904Z" fill="black"/>
<path d="M154.8 32.2904H147.6V39.4904H154.8V32.2904Z" fill="black"/>
<path d="M169.2 32.2904H162V39.4904H169.2V32.2904Z" fill="black"/>
<path d="M176.4 32.2904H169.2V39.4904H176.4V32.2904Z" fill="black"/>
<path d="M183.6 32.2904H176.4V39.4904H183.6V32.2904Z" fill="black"/>
<path d="M198 32.2904H190.8V39.4904H198V32.2904Z" fill="black"/>
<path d="M25.2 39.4904H18V46.6904H25.2V39.4904Z" fill="black"/>
<path d="M39.6 39.4904H32.4V46.6904H39.6V39.4904Z" fill="black"/>
<path d="M46.8 39.4904H39.6V46.6904H46.8V39.4904Z" fill="black"/>
<path d="M54 39.4904H46.8V46.6904H54V39.4904Z" fill="black"/>
<path d="M68.4 39.4904H61.2V46.6904H68.4V39.4904Z" fill="black"/>
<path d="M90 39.4904H82.8V46.6904H90V39.4904Z" fill="black"/>
<path d="M104.4 39.4904H97.2V46.6904H104.4V39.4904Z" fill="black"/>
<path d="M118.8 39.4904H111.6V46.6904H118.8V39.4904Z" fill="black"/>
<path d="M154.8 39.4904H147.6V46.6904H154.8V39.4904Z" fill="black"/>
<path d="M169.2 39.4904H162V46.6904H169.2V39.4904Z" fill="black"/>
<path d="M176.4 39.4904H169.2V46.6904H176.4V39.4904Z" fill="black"/>
<path d="M183.6 39.4904H176.4V46.6904H183.6V39.4904Z" fill="black"/>
<path d="M198 39.4904H190.8V46.6904H198V39.4904Z" fill="black"/>
<path d="M25.2 46.6904H18V53.8904H25.2V46.6904Z" fill="black"/>
<path d="M39.6 46.6904H32.4V53.8904H39.6V46.6904Z" fill="black"/>
<path d="M46.8 46.6904H39.6V53.8904H46.8V46.6904Z" fill="black"/>
<path d="M54 46.6904H46.8V53.8904H54V46.6904Z" fill="black"/>
<path d="M68.4 46.6904H61.2V53.8904H68.4V46.6904Z" fill="black"/>
<path d="M90 46.6904H82.8V53.8904H90V46.6904Z" fill="black"/>
<path d="M97.2 46.6904H90V53.8904H97.2V46.6904Z" fill="black"/>
<path d="M118.8 46.6904H111.6V53.8904H118.8V46.6904Z" fill="black"/>
<path d="M133.2 46.6904H126V53.8904H133.2V46.6904Z" fill="black"/>
<path d="M140.4 46.6904H133.2V53.8904H140.4V46.6904Z" fill="black"/>
<path d="M154.8 46.6904H147.6V53.8904H154.8V46.6904Z" fill="black"/>
<path d="M169.2 46.6904H162V53.8904H169.2V46.6904Z" fill="black"/>
<path d="M176.4 46.6904H169.2V53.8904H176.4V46.6904Z" fill="black"/>
<path d="M183.6 46.6904H176.4V53.8904H183.6V46.6904Z" fill="black"/>
<path d="M198 46.6904H190.8V53.8904H198V46.6904Z" fill="black"/>
<path d="M25.2 53.8904H18V61.0904H25.2V53.8904Z" fill="black"/>
<path d="M68.4 53.8904H61.2V61.0904H68.4V53.8904Z" fill="black"/>
<path d="M97.2 53.8904H90V61.0904H97.2V53.8904Z" fill="black"/>
<path d="M104.4 53.8904H97.2V61.0904H104.4V53.8904Z" fill="black"/>
<path d="M111.6 53.8904H104.4V61.0904H111.6V53.8904Z" fill="black"/>
<path d="M126 53.8904H118.8V61.0904H126L126 53.8904Z" fill="black"/>
<path d="M140.4 53.8904H133.2V61.0904H140.4V53.8904Z" fill="black"/>
<path d="M154.8 53.8904H147.6V61.0904H154.8V53.8904Z" fill="black"/>
<path d="M198 53.8904H190.8V61.0904H198V53.8904Z" fill="black"/>
<path d="M25.2 61.0904H18V68.2904H25.2V61.0904Z" fill="black"/>
<path d="M32.4 61.0904L25.2 61.0904V68.2904H32.4V61.0904Z" fill="black"/>
<path d="M39.6 61.0904H32.4V68.2904H39.6V61.0904Z" fill="black"/>
<path d="M46.8 61.0904H39.6V68.2904H46.8V61.0904Z" fill="black"/>
<path d="M54 61.0904H46.8V68.2904H54V61.0904Z" fill="black"/>
<path d="M61.2 61.0904L54 61.0904V68.2904H61.2L61.2 61.0904Z" fill="black"/>
<path d="M68.4 61.0904H61.2L61.2 68.2904H68.4V61.0904Z" fill="black"/>
<path d="M82.8 61.0904H75.6V68.2904H82.8V61.0904Z" fill="black"/>
<path d="M97.2 61.0904H90V68.2904H97.2V61.0904Z" fill="black"/>
<path d="M111.6 61.0904H104.4V68.2904H111.6V61.0904Z" fill="black"/>
<path d="M126 61.0904H118.8V68.2904H126V61.0904Z" fill="black"/>
<path d="M140.4 61.0904H133.2V68.2904H140.4V61.0904Z" fill="black"/>
<path d="M154.8 61.0904H147.6V68.2904H154.8V61.0904Z" fill="black"/>
<path d="M162 61.0904L154.8 61.0904V68.2904H162V61.0904Z" fill="black"/>
<path d="M169.2 61.0904H162V68.2904H169.2V61.0904Z" fill="black"/>
<path d="M176.4 61.0904H169.2V68.2904H176.4V61.0904Z" fill="black"/>
<path d="M183.6 61.0904H176.4V68.2904H183.6V61.0904Z" fill="black"/>
<path d="M190.8 61.0904L183.6 61.0904V68.2904H190.8V61.0904Z" fill="black"/>
<path d="M198 61.0904H190.8V68.2904H198V61.0904Z" fill="black"/>
<path d="M82.8 68.2904H75.6V75.4904H82.8V68.2904Z" fill="black"/>
<path d="M90 68.2904H82.8V75.4904H90V68.2904Z" fill="black"/>
<path d="M118.8 68.2904H111.6V75.4904H118.8V68.2904Z" fill="black"/>
<path d="M25.2 75.4904H18V82.6904H25.2V75.4904Z" fill="black"/>
<path d="M39.6 75.4904H32.4V82.6904H39.6V75.4904Z" fill="black"/>
<path d="M61.2 75.4904H54V82.6904H61.2V75.4904Z" fill="black"/>
<path d="M68.4 75.4904H61.2V82.6904H68.4V75.4904Z" fill="black"/>
<path d="M90 75.4904H82.8V82.6904H90V75.4904Z" fill="black"/>
<path d="M147.6 75.4904H140.4V82.6904H147.6V75.4904Z" fill="black"/>
<path d="M154.8 75.4904H147.6V82.6904H154.8V75.4904Z" fill="black"/>
<path d="M183.6 75.4904H176.4V82.6904H183.6V75.4904Z" fill="black"/>
<path d="M198 75.4904H190.8V82.6904H198V75.4904Z" fill="black"/>
<path d="M25.2 82.6904H18V89.8904H25.2V82.6904Z" fill="black"/>
<path d="M32.4 82.6904H25.2V89.8904H32.4V82.6904Z" fill="black"/>
<path d="M46.8 82.6904H39.6V89.8904H46.8V82.6904Z" fill="black"/>
<path d="M61.2 82.6904H54V89.8904H61.2V82.6904Z" fill="black"/>
<path d="M82.8 82.6904H75.6V89.8904H82.8V82.6904Z" fill="black"/>
<path d="M90 82.6904H82.8V89.8904H90V82.6904Z" fill="black"/>
<path d="M97.2 82.6904H90V89.8904H97.2V82.6904Z" fill="black"/>
<path d="M104.4 82.6904H97.2V89.8904H104.4V82.6904Z" fill="black"/>
<path d="M133.2 82.6904H126V89.8904H133.2V82.6904Z" fill="black"/>
<path d="M140.4 82.6904H133.2V89.8904H140.4V82.6904Z" fill="black"/>
<path d="M154.8 82.6904H147.6V89.8904H154.8V82.6904Z" fill="black"/>
<path d="M162 82.6904H154.8V89.8904H162V82.6904Z" fill="black"/>
<path d="M176.4 82.6904H169.2V89.8904H176.4V82.6904Z" fill="black"/>
<path d="M183.6 82.6904H176.4V89.8904H183.6V82.6904Z" fill="black"/>
<path d="M198 82.6904H190.8V89.8904H198V82.6904Z" fill="black"/>
<path d="M25.2 89.8904H18V97.0904H25.2V89.8904Z" fill="black"/>
<path d="M32.4 89.8904H25.2V97.0904H32.4V89.8904Z" fill="black"/>
<path d="M61.2 89.8904H54V97.0904H61.2V89.8904Z" fill="black"/>
<path d="M68.4 89.8904H61.2V97.0904H68.4V89.8904Z" fill="black"/>
<path d="M75.6 89.8904H68.4V97.0904H75.6V89.8904Z" fill="black"/>
<path d="M97.2 89.8904H90V97.0904H97.2V89.8904Z" fill="black"/>
<path d="M111.6 89.8904H104.4V97.0904H111.6V89.8904Z" fill="black"/>
<path d="M118.8 89.8904H111.6V97.0904H118.8V89.8904Z" fill="black"/>
<path d="M162 89.8904H154.8V97.0904H162V89.8904Z" fill="black"/>
<path d="M169.2 89.8904H162V97.0904H169.2V89.8904Z" fill="black"/>
<path d="M176.4 89.8904H169.2V97.0904H176.4V89.8904Z" fill="black"/>
<path d="M190.8 89.8904H183.6V97.0904H190.8V89.8904Z" fill="black"/>
<path d="M198 89.8904H190.8V97.0904H198V89.8904Z" fill="black"/>
<path d="M25.2 97.0904H18V104.29H25.2V97.0904Z" fill="black"/>
<path d="M39.6 97.0904H32.4V104.29H39.6V97.0904Z" fill="black"/>
<path d="M61.2 97.0904H54V104.29H61.2V97.0904Z" fill="black"/>
<path d="M82.8 97.0904H75.6V104.29H82.8V97.0904Z" fill="black"/>
<path d="M90 97.0904H82.8V104.29H90V97.0904Z" fill="black"/>
<path d="M126 97.0904H118.8V104.29H126V97.0904Z" fill="black"/>
<path d="M140.4 97.0904H133.2V104.29H140.4V97.0904Z" fill="black"/>
<path d="M162 97.0904H154.8V104.29H162V97.0904Z" fill="black"/>
<path d="M183.6 97.0904H176.4V104.29H183.6V97.0904Z" fill="black"/>
<path d="M198 97.0904H190.8V104.29H198V97.0904Z" fill="black"/>
<path d="M25.2 104.29H18V111.49H25.2V104.29Z" fill="black"/>
<path d="M32.4 104.29H25.2V111.49H32.4V104.29Z" fill="black"/>
<path d="M54 104.29H46.8V111.49H54V104.29Z" fill="black"/>
<path d="M68.4 104.29H61.2L61.2 111.49H68.4V104.29Z" fill="black"/>
<path d="M75.6 104.29H68.4V111.49H75.6V104.29Z" fill="black"/>
<path d="M82.8 104.29H75.6V111.49H82.8V104.29Z" fill="black"/>
<path d="M97.2 104.29H90V111.49H97.2V104.29Z" fill="black"/>
<path d="M104.4 104.29H97.2V111.49H104.4V104.29Z" fill="black"/>
<path d="M140.4 104.29H133.2V111.49H140.4V104.29Z" fill="black"/>
<path d="M147.6 104.29H140.4V111.49H147.6V104.29Z" fill="black"/>
<path d="M154.8 104.29H147.6V111.49H154.8V104.29Z" fill="black"/>
<path d="M162 104.29H154.8V111.49H162V104.29Z" fill="black"/>
<path d="M198 104.29H190.8V111.49H198V104.29Z" fill="black"/>
<path d="M25.2 111.49H18V118.69H25.2V111.49Z" fill="black"/>
<path d="M39.6 111.49H32.4V118.69H39.6V111.49Z" fill="black"/>
<path d="M46.8 111.49H39.6V118.69H46.8V111.49Z" fill="black"/>
<path d="M61.2 111.49H54V118.69H61.2L61.2 111.49Z" fill="black"/>
<path d="M90 111.49H82.8V118.69H90V111.49Z" fill="black"/>
<path d="M97.2 111.49H90V118.69H97.2V111.49Z" fill="black"/>
<path d="M118.8 111.49H111.6V118.69H118.8V111.49Z" fill="black"/>
<path d="M169.2 111.49H162V118.69H169.2V111.49Z" fill="black"/>
<path d="M176.4 111.49H169.2V118.69H176.4V111.49Z" fill="black"/>
<path d="M190.8 111.49H183.6V118.69H190.8V111.49Z" fill="black"/>
<path d="M198 111.49H190.8V118.69H198V111.49Z" fill="black"/>
<path d="M32.4 118.69H25.2V125.89H32.4V118.69Z" fill="black"/>
<path d="M54 118.69H46.8V125.89H54V118.69Z" fill="black"/>
<path d="M61.2 118.69H54V125.89H61.2V118.69Z" fill="black"/>
<path d="M68.4 118.69H61.2V125.89H68.4V118.69Z" fill="black"/>
<path d="M75.6 118.69H68.4V125.89H75.6V118.69Z" fill="black"/>
<path d="M97.2 118.69H90V125.89H97.2V118.69Z" fill="black"/>
<path d="M104.4 118.69H97.2V125.89H104.4V118.69Z" fill="black"/>
<path d="M133.2 118.69H126V125.89H133.2V118.69Z" fill="black"/>
<path d="M147.6 118.69H140.4V125.89H147.6V118.69Z" fill="black"/>
<path d="M154.8 118.69H147.6V125.89H154.8V118.69Z" fill="black"/>
<path d="M162 118.69H154.8V125.89H162V118.69Z" fill="black"/>
<path d="M169.2 118.69H162V125.89H169.2V118.69Z" fill="black"/>
<path d="M75.6 125.89H68.4V133.09H75.6V125.89Z" fill="black"/>
<path d="M90 125.89L82.8 125.89V133.09H90V125.89Z" fill="black"/>
<path d="M97.2 125.89H90V133.09H97.2V125.89Z" fill="black"/>
<path d="M118.8 125.89H111.6V133.09H118.8V125.89Z" fill="black"/>
<path d="M126 125.89L118.8 125.89V133.09H126L126 125.89Z" fill="black"/>
<path d="M133.2 125.89H126L126 133.09H133.2V125.89Z" fill="black"/>
<path d="M140.4 125.89H133.2V133.09H140.4V125.89Z" fill="black"/>
<path d="M162 125.89H154.8V133.09H162V125.89Z" fill="black"/>
<path d="M169.2 125.89H162V133.09H169.2V125.89Z" fill="black"/>
<path d="M176.4 125.89L169.2 125.89V133.09H176.4V125.89Z" fill="black"/>
<path d="M183.6 125.89H176.4V133.09H183.6V125.89Z" fill="black"/>
<path d="M39.6 133.09H32.4V140.29H39.6V133.09Z" fill="black"/>
<path d="M46.8 133.09H39.6V140.29H46.8V133.09Z" fill="black"/>
<path d="M68.4 133.09H61.2V140.29H68.4V133.09Z" fill="black"/>
<path d="M75.6 133.09H68.4V140.29H75.6V133.09Z" fill="black"/>
<path d="M82.8 133.09H75.6V140.29H82.8V133.09Z" fill="black"/>
<path d="M111.6 133.09H104.4V140.29H111.6V133.09Z" fill="black"/>
<path d="M118.8 133.09H111.6V140.29H118.8V133.09Z" fill="black"/>
<path d="M140.4 133.09H133.2V140.29H140.4V133.09Z" fill="black"/>
<path d="M147.6 133.09H140.4V140.29H147.6V133.09Z" fill="black"/>
<path d="M154.8 133.09H147.6V140.29H154.8V133.09Z" fill="black"/>
<path d="M162 133.09H154.8V140.29H162V133.09Z" fill="black"/>
<path d="M169.2 133.09H162V140.29H169.2V133.09Z" fill="black"/>
<path d="M176.4 133.09H169.2V140.29H176.4V133.09Z" fill="black"/>
<path d="M183.6 133.09H176.4V140.29H183.6V133.09Z" fill="black"/>
<path d="M190.8 133.09H183.6V140.29H190.8V133.09Z" fill="black"/>
<path d="M198 133.09H190.8V140.29H198V133.09Z" fill="black"/>
<path d="M97.2 140.29H90V147.49H97.2V140.29Z" fill="black"/>
<path d="M104.4 140.29H97.2V147.49H104.4V140.29Z" fill="black"/>
<path d="M118.8 140.29H111.6V147.49H118.8V140.29Z" fill="black"/>
<path d="M140.4 140.29H133.2V147.49H140.4V140.29Z" fill="black"/>
<path d="M169.2 140.29H162V147.49H169.2V140.29Z" fill="black"/>
<path d="M176.4 140.29H169.2V147.49H176.4V140.29Z" fill="black"/>
<path d="M183.6 140.29H176.4V147.49H183.6V140.29Z" fill="black"/>
<path d="M25.2 147.49H18V154.69H25.2V147.49Z" fill="black"/>
<path d="M32.4 147.49H25.2V154.69H32.4V147.49Z" fill="black"/>
<path d="M39.6 147.49H32.4V154.69H39.6V147.49Z" fill="black"/>
<path d="M46.8 147.49H39.6V154.69H46.8V147.49Z" fill="black"/>
<path d="M54 147.49H46.8V154.69H54V147.49Z" fill="black"/>
<path d="M61.2 147.49H54V154.69H61.2V147.49Z" fill="black"/>
<path d="M68.4 147.49H61.2V154.69H68.4V147.49Z" fill="black"/>
<path d="M90 147.49H82.8V154.69H90V147.49Z" fill="black"/>
<path d="M111.6 147.49H104.4V154.69H111.6V147.49Z" fill="black"/>
<path d="M118.8 147.49H111.6V154.69H118.8V147.49Z" fill="black"/>
<path d="M126 147.49H118.8V154.69H126V147.49Z" fill="black"/>
<path d="M140.4 147.49H133.2V154.69H140.4V147.49Z" fill="black"/>
<path d="M154.8 147.49H147.6V154.69H154.8V147.49Z" fill="black"/>
<path d="M169.2 147.49H162V154.69H169.2V147.49Z" fill="black"/>
<path d="M198 147.49H190.8V154.69H198V147.49Z" fill="black"/>
<path d="M25.2 154.69H18V161.89H25.2V154.69Z" fill="black"/>
<path d="M68.4 154.69H61.2L61.2 161.89H68.4V154.69Z" fill="black"/>
<path d="M82.8 154.69H75.6V161.89H82.8V154.69Z" fill="black"/>
<path d="M90 154.69H82.8V161.89H90V154.69Z" fill="black"/>
<path d="M97.2 154.69H90V161.89H97.2V154.69Z" fill="black"/>
<path d="M104.4 154.69H97.2V161.89H104.4V154.69Z" fill="black"/>
<path d="M118.8 154.69H111.6V161.89H118.8V154.69Z" fill="black"/>
<path d="M133.2 154.69H126L126 161.89H133.2V154.69Z" fill="black"/>
<path d="M140.4 154.69H133.2V161.89H140.4V154.69Z" fill="black"/>
<path d="M169.2 154.69H162V161.89H169.2V154.69Z" fill="black"/>
<path d="M183.6 154.69H176.4V161.89H183.6V154.69Z" fill="black"/>
<path d="M190.8 154.69H183.6V161.89H190.8V154.69Z" fill="black"/>
<path d="M25.2 161.89H18V169.09H25.2V161.89Z" fill="black"/>
<path d="M39.6 161.89H32.4V169.09H39.6V161.89Z" fill="black"/>
<path d="M46.8 161.89H39.6V169.09H46.8V161.89Z" fill="black"/>
<path d="M54 161.89H46.8V169.09H54V161.89Z" fill="black"/>
<path d="M68.4 161.89H61.2V169.09H68.4V161.89Z" fill="black"/>
<path d="M133.2 161.89H126V169.09H133.2V161.89Z" fill="black"/>
<path d="M140.4 161.89H133.2V169.09H140.4V161.89Z" fill="black"/>
<path d="M147.6 161.89H140.4V169.09H147.6V161.89Z" fill="black"/>
<path d="M154.8 161.89H147.6V169.09H154.8V161.89Z" fill="black"/>
<path d="M162 161.89H154.8V169.09H162V161.89Z" fill="black"/>
<path d="M169.2 161.89H162V169.09H169.2V161.89Z" fill="black"/>
<path d="M176.4 161.89H169.2V169.09H176.4V161.89Z" fill="black"/>
<path d="M183.6 161.89H176.4V169.09H183.6V161.89Z" fill="black"/>
<path d="M190.8 161.89H183.6V169.09H190.8V161.89Z" fill="black"/>
<path d="M25.2 169.09H18V176.29H25.2V169.09Z" fill="black"/>
<path d="M39.6 169.09H32.4V176.29H39.6V169.09Z" fill="black"/>
<path d="M46.8 169.09H39.6V176.29H46.8V169.09Z" fill="black"/>
<path d="M54 169.09H46.8V176.29H54V169.09Z" fill="black"/>
<path d="M68.4 169.09H61.2V176.29H68.4V169.09Z" fill="black"/>
<path d="M90 169.09H82.8V176.29H90V169.09Z" fill="black"/>
<path d="M97.2 169.09H90V176.29H97.2V169.09Z" fill="black"/>
<path d="M104.4 169.09H97.2V176.29H104.4V169.09Z" fill="black"/>
<path d="M126 169.09H118.8V176.29H126L126 169.09Z" fill="black"/>
<path d="M133.2 169.09H126L126 176.29H133.2V169.09Z" fill="black"/>
<path d="M183.6 169.09H176.4V176.29H183.6V169.09Z" fill="black"/>
<path d="M198 169.09H190.8V176.29H198V169.09Z" fill="black"/>
<path d="M25.2 176.29H18V183.49H25.2V176.29Z" fill="black"/>
<path d="M39.6 176.29H32.4V183.49H39.6V176.29Z" fill="black"/>
<path d="M46.8 176.29H39.6V183.49H46.8V176.29Z" fill="black"/>
<path d="M54 176.29H46.8V183.49H54V176.29Z" fill="black"/>
<path d="M68.4 176.29H61.2V183.49H68.4V176.29Z" fill="black"/>
<path d="M82.8 176.29H75.6V183.49H82.8V176.29Z" fill="black"/>
<path d="M97.2 176.29H90V183.49H97.2V176.29Z" fill="black"/>
<path d="M126 176.29H118.8V183.49H126V176.29Z" fill="black"/>
<path d="M176.4 176.29H169.2V183.49H176.4V176.29Z" fill="black"/>
<path d="M25.2 183.49H18V190.69H25.2V183.49Z" fill="black"/>
<path d="M68.4 183.49H61.2V190.69H68.4V183.49Z" fill="black"/>
<path d="M90 183.49H82.8V190.69H90V183.49Z" fill="black"/>
<path d="M118.8 183.49H111.6V190.69H118.8V183.49Z" fill="black"/>
<path d="M140.4 183.49H133.2V190.69H140.4V183.49Z" fill="black"/>
<path d="M176.4 183.49H169.2V190.69H176.4V183.49Z" fill="black"/>
<path d="M183.6 183.49H176.4V190.69H183.6V183.49Z" fill="black"/>
<path d="M25.2 190.69H18V197.89H25.2V190.69Z" fill="black"/>
<path d="M32.4 190.69H25.2V197.89H32.4V190.69Z" fill="black"/>
<path d="M39.6 190.69H32.4V197.89H39.6V190.69Z" fill="black"/>
<path d="M46.8 190.69H39.6V197.89H46.8V190.69Z" fill="black"/>
<path d="M54 190.69H46.8V197.89H54V190.69Z" fill="black"/>
<path d="M61.2 190.69H54V197.89H61.2L61.2 190.69Z" fill="black"/>
<path d="M68.4 190.69H61.2L61.2 197.89H68.4V190.69Z" fill="black"/>
<path d="M82.8 190.69H75.6V197.89H82.8V190.69Z" fill="black"/>
<path d="M90 190.69H82.8V197.89H90V190.69Z" fill="black"/>
<path d="M97.2 190.69H90V197.89H97.2V190.69Z" fill="black"/>
<path d="M111.6 190.69H104.4V197.89H111.6V190.69Z" fill="black"/>
<path d="M118.8 190.69H111.6V197.89H118.8V190.69Z" fill="black"/>
<path d="M126 190.69H118.8V197.89H126V190.69Z" fill="black"/>
<path d="M147.6 190.69H140.4V197.89H147.6V190.69Z" fill="black"/>
<path d="M154.8 190.69H147.6V197.89H154.8V190.69Z" fill="black"/>
<path d="M162 190.69H154.8V197.89H162V190.69Z" fill="black"/>
<path d="M169.2 190.69H162V197.89H169.2V190.69Z" fill="black"/>
<path d="M183.6 190.69H176.4V197.89H183.6V190.69Z" fill="black"/>
<path d="M198 190.69H190.8V197.89H198V190.69Z" fill="black"/>
<g clip-path="url(#clip0_27_4896)">
<path d="M15.2433 283.447C14.6934 283.447 14.1567 283.44 13.6111 283.428C12.4807 283.413 11.353 283.317 10.2372 283.138C9.1967 282.962 8.18879 282.634 7.24665 282.166C6.31315 281.701 5.46173 281.092 4.72499 280.361C3.97759 279.64 3.35535 278.802 2.88292 277.883C2.40528 276.957 2.07473 275.965 1.90277 274.941C1.71708 273.841 1.61661 272.728 1.60223 271.613C1.59079 271.239 1.57581 269.992 1.57581 269.992V228.989C1.57581 228.989 1.59176 227.762 1.60232 227.401C1.61609 226.288 1.71597 225.177 1.90111 224.078C2.07338 223.051 2.40419 222.056 2.88209 221.128C3.35278 220.209 3.97157 219.371 4.71447 218.646C5.45653 217.915 6.31068 217.303 7.24577 216.832C8.18574 216.365 9.19175 216.039 10.2301 215.866C11.3496 215.686 12.4812 215.589 13.6155 215.575L15.2442 215.553H200.747L202.395 215.576C203.519 215.589 204.64 215.685 205.75 215.864C206.798 216.04 207.815 216.367 208.766 216.837C210.639 217.786 212.163 219.288 213.125 221.132C213.595 222.054 213.921 223.041 214.091 224.059C214.278 225.167 214.383 226.286 214.405 227.409C214.41 227.911 214.41 228.451 214.41 228.989C214.424 229.654 214.424 230.288 214.424 230.927V268.075C214.424 268.72 214.424 269.349 214.41 269.984C214.41 270.561 214.41 271.09 214.403 271.634C214.382 272.736 214.279 273.836 214.094 274.924C213.926 275.955 213.597 276.955 213.12 277.888C212.644 278.798 212.025 279.628 211.286 280.348C210.549 281.082 209.696 281.695 208.76 282.163C207.812 282.635 206.797 282.964 205.75 283.138C204.634 283.318 203.506 283.414 202.376 283.428C201.847 283.44 201.293 283.447 200.756 283.447L198.799 283.451L15.2433 283.447Z" fill="black"/>
<path d="M44.709 250.034C44.7284 248.552 45.1286 247.099 45.8723 245.811C46.616 244.522 47.6791 243.44 48.9627 242.664C48.1473 241.519 47.0716 240.576 45.821 239.911C44.5704 239.246 43.1794 238.878 41.7584 238.834C38.7273 238.521 35.7888 240.617 34.2442 240.617C32.6697 240.617 30.2915 238.865 27.7306 238.917C26.0742 238.969 24.4598 239.443 23.0449 240.292C21.63 241.14 20.4627 242.335 19.6568 243.759C16.1658 249.702 18.7697 258.437 22.1138 263.241C23.7869 265.594 25.7423 268.222 28.3009 268.128C30.8046 268.026 31.7397 266.558 34.7619 266.558C37.756 266.558 38.6333 268.128 41.2438 268.069C43.9304 268.026 45.6231 265.706 47.2375 263.331C48.4396 261.655 49.3647 259.803 49.9783 257.842C48.4175 257.193 47.0855 256.106 46.1485 254.718C45.2114 253.329 44.7108 251.7 44.709 250.034Z" fill="white"/>
<path d="M39.7783 235.674C41.2431 233.945 41.9648 231.722 41.7901 229.478C39.5521 229.71 37.4848 230.761 36.0002 232.424C35.2743 233.237 34.7184 234.182 34.3641 235.205C34.0099 236.229 33.8643 237.312 33.9358 238.391C35.0551 238.402 36.1625 238.163 37.1746 237.693C38.1866 237.222 39.0769 236.532 39.7783 235.674Z" fill="white"/>
<path d="M76.3577 262.173H67.8137L65.7619 268.13H62.1429L70.2357 246.089H73.9956L82.0884 268.13H78.4078L76.3577 262.173ZM68.6986 259.424H75.4711L72.1325 249.755H72.0391L68.6986 259.424Z" fill="white"/>
<path d="M99.5661 260.096C99.5661 265.09 96.848 268.299 92.7461 268.299C91.707 268.352 90.6736 268.117 89.7642 267.619C88.8548 267.122 88.1062 266.383 87.6041 265.487H87.5265V273.447H84.172V252.06H87.419V254.733H87.4807C88.0059 253.841 88.7672 253.106 89.6835 252.606C90.5998 252.105 91.6368 251.859 92.6844 251.892C96.832 251.892 99.5661 255.116 99.5661 260.096ZM96.1182 260.096C96.1182 256.843 94.4083 254.704 91.7994 254.704C89.2364 254.704 87.5124 256.888 87.5124 260.096C87.5124 263.334 89.2364 265.503 91.7994 265.503C94.4083 265.503 96.1182 263.379 96.1182 260.096Z" fill="white"/>
<path d="M117.553 260.096C117.553 265.09 114.835 268.299 110.733 268.299C109.694 268.352 108.661 268.117 107.751 267.619C106.842 267.122 106.093 266.383 105.591 265.487H105.514V273.447H102.159V252.06H105.406V254.733H105.468C105.993 253.841 106.754 253.106 107.67 252.606C108.587 252.105 109.624 251.859 110.671 251.892C114.819 251.892 117.553 255.116 117.553 260.096ZM114.105 260.096C114.105 256.843 112.395 254.704 109.787 254.704C107.223 254.704 105.5 256.888 105.5 260.096C105.5 263.334 107.223 265.503 109.787 265.503C112.395 265.503 114.105 263.379 114.105 260.096H114.105Z" fill="white"/>
<path d="M129.441 261.989C129.69 264.175 131.849 265.61 134.8 265.61C137.627 265.61 139.662 264.175 139.662 262.204C139.662 260.493 138.435 259.469 135.53 258.767L132.625 258.078C128.509 257.101 126.598 255.208 126.598 252.136C126.598 248.333 129.968 245.721 134.754 245.721C139.491 245.721 142.738 248.333 142.847 252.136H139.461C139.258 249.937 137.409 248.609 134.706 248.609C132.004 248.609 130.155 249.952 130.155 251.907C130.155 253.466 131.336 254.383 134.225 255.085L136.695 255.681C141.294 256.751 143.205 258.567 143.205 261.791C143.205 265.915 139.864 268.498 134.551 268.498C129.58 268.498 126.224 265.976 126.007 261.989L129.441 261.989Z" fill="white"/>
<path d="M150.444 248.257V252.06H153.552V254.672H150.444V263.532C150.444 264.908 151.067 265.549 152.433 265.549C152.802 265.543 153.17 265.518 153.536 265.473V268.07C152.922 268.182 152.298 268.234 151.673 268.222C148.364 268.222 147.074 267 147.074 263.883V254.672H144.698V252.06H147.074V248.257H150.444Z" fill="white"/>
<path d="M155.352 260.096C155.352 255.04 158.38 251.862 163.103 251.862C167.841 251.862 170.855 255.04 170.855 260.096C170.855 265.166 167.857 268.33 163.103 268.33C158.35 268.33 155.352 265.166 155.352 260.096ZM167.437 260.096C167.437 256.628 165.821 254.58 163.103 254.58C160.384 254.58 158.77 256.643 158.77 260.096C158.77 263.578 160.384 265.61 163.103 265.61C165.821 265.61 167.437 263.578 167.437 260.096H167.437Z" fill="white"/>
<path d="M173.621 252.06H176.82V254.795H176.898C177.114 253.941 177.623 253.186 178.339 252.657C179.055 252.129 179.934 251.858 180.829 251.892C181.215 251.891 181.601 251.932 181.978 252.015V255.1C181.49 254.954 180.981 254.886 180.471 254.901C179.984 254.882 179.498 254.966 179.047 255.149C178.596 255.331 178.19 255.608 177.858 255.959C177.526 256.31 177.275 256.728 177.123 257.184C176.971 257.639 176.92 258.122 176.975 258.598V268.13H173.621L173.621 252.06Z" fill="white"/>
<path d="M197.444 263.41C196.993 266.328 194.104 268.33 190.408 268.33C185.653 268.33 182.703 265.197 182.703 260.172C182.703 255.132 185.669 251.862 190.267 251.862C194.788 251.862 197.631 254.917 197.631 259.789V260.919H186.089V261.119C186.036 261.71 186.111 262.306 186.31 262.867C186.509 263.427 186.827 263.94 187.242 264.37C187.658 264.801 188.162 265.139 188.721 265.364C189.281 265.588 189.882 265.693 190.485 265.671C191.278 265.744 192.073 265.563 192.753 265.156C193.433 264.749 193.961 264.136 194.259 263.41L197.444 263.41ZM186.105 258.614H194.275C194.305 258.082 194.223 257.55 194.034 257.051C193.845 256.552 193.553 256.096 193.177 255.713C192.801 255.33 192.348 255.028 191.847 254.825C191.346 254.623 190.808 254.524 190.267 254.535C189.72 254.532 189.179 254.635 188.673 254.839C188.168 255.043 187.708 255.343 187.321 255.722C186.935 256.101 186.628 256.552 186.419 257.048C186.21 257.545 186.103 258.077 186.105 258.614V258.614Z" fill="white"/>
<path d="M66.3145 233.975H67.7547C68.0026 234.005 68.2542 233.985 68.4937 233.915C68.7332 233.845 68.9553 233.727 69.1461 233.568C69.3369 233.409 69.4922 233.214 69.6022 232.993C69.7122 232.772 69.7746 232.532 69.7854 232.286C69.7854 231.31 69.038 230.679 67.7706 230.679C67.5166 230.644 67.258 230.659 67.0102 230.724C66.7624 230.789 66.5304 230.902 66.3278 231.057C66.1252 231.212 65.9561 231.405 65.8306 231.625C65.7051 231.845 65.6257 232.087 65.5971 232.338H64.0159C64.0431 231.883 64.1652 231.438 64.3747 231.032C64.5842 230.625 64.8766 230.265 65.2336 229.975C65.5906 229.684 66.0046 229.469 66.4499 229.343C66.8951 229.216 67.3621 229.181 67.8216 229.24C69.9422 229.24 71.4354 230.407 71.4354 232.088C71.4403 232.651 71.2488 233.199 70.8927 233.639C70.5366 234.08 70.0375 234.388 69.4787 234.51V234.635C70.1411 234.664 70.765 234.95 71.2139 235.43C71.6628 235.91 71.9002 236.545 71.8743 237.196C71.8252 237.665 71.6816 238.119 71.4518 238.532C71.222 238.945 70.9107 239.309 70.536 239.602C70.1614 239.895 69.731 240.112 69.27 240.24C68.8091 240.367 68.3269 240.403 67.8517 240.345C67.3755 240.409 66.8911 240.378 66.4274 240.254C65.9636 240.129 65.5301 239.915 65.1526 239.622C64.7751 239.33 64.4613 238.966 64.23 238.551C63.9986 238.137 63.8545 237.681 63.8062 237.211H65.412C65.509 238.224 66.4556 238.878 67.8517 238.878C69.2477 238.878 70.1591 238.144 70.1591 237.109C70.1591 236.059 69.3006 235.413 67.8005 235.413H66.3145V233.975Z" fill="white"/>
<path d="M73.6986 237.828C73.6986 236.39 74.7897 235.56 76.7217 235.442L78.9234 235.317V234.628C78.9234 233.783 78.3575 233.307 77.2594 233.307C76.3639 233.307 75.7452 233.63 75.5654 234.195H74.0124C74.1763 232.822 75.4913 231.942 77.3352 231.942C79.3729 231.942 80.5222 232.939 80.5222 234.628V240.089H78.9763V238.965H78.8494C78.5918 239.368 78.23 239.697 77.8011 239.917C77.3722 240.138 76.8914 240.242 76.408 240.22C76.0667 240.255 75.7219 240.219 75.3956 240.115C75.0693 240.011 74.7688 239.841 74.5136 239.615C74.2583 239.39 74.0539 239.115 73.9135 238.807C73.7732 238.499 73.7 238.166 73.6986 237.828ZM78.9234 237.145V236.477L76.9385 236.602C75.8191 236.676 75.3114 237.05 75.3114 237.755C75.3114 238.474 75.946 238.893 76.8187 238.893C77.0743 238.918 77.3326 238.893 77.5781 238.818C77.8236 238.743 78.0513 238.621 78.2477 238.458C78.4441 238.295 78.6051 238.094 78.7212 237.869C78.8373 237.644 78.906 237.397 78.9234 237.145Z" fill="white"/>
<path d="M84.7793 233.423V240.088H83.1752V232.096H88.5269V233.423L84.7793 233.423Z" fill="white"/>
<path d="M98.2486 236.089C98.2486 238.628 96.9424 240.22 94.8906 240.22C94.3869 240.254 93.8839 240.146 93.4407 239.908C92.9976 239.67 92.6328 239.313 92.3892 238.878H92.2623V242.746H90.6582V232.096H92.2024V233.417H92.3222C92.5701 232.967 92.9397 232.593 93.3901 232.336C93.8406 232.08 94.3543 231.951 94.8747 231.963C96.9424 231.963 98.2486 233.548 98.2486 236.089ZM96.5987 236.089C96.5987 234.4 95.786 233.38 94.427 233.38C93.0768 233.38 92.2324 234.422 92.2324 236.096C92.2324 237.761 93.0767 238.804 94.4199 238.804C95.786 238.804 96.5987 237.784 96.5987 236.089Z" fill="white"/>
<path d="M100.385 242.951V241.593C100.558 241.615 100.733 241.625 100.908 241.622C101.25 241.647 101.589 241.547 101.86 241.341C102.132 241.136 102.316 240.838 102.378 240.507L102.498 240.118L99.5563 232.096H101.303L103.341 238.444H103.468L105.499 232.096H107.2L104.169 240.419C103.475 242.363 102.706 242.988 101.049 242.988C100.915 242.988 100.535 242.973 100.385 242.951Z" fill="white"/>
<path d="M108.449 237.82H110.046C110.203 238.525 110.875 238.892 111.814 238.892C112.883 238.892 113.538 238.43 113.538 237.71C113.538 236.94 112.95 236.572 111.814 236.572H110.598V235.347H111.793C112.763 235.347 113.256 234.98 113.256 234.312C113.256 233.725 112.779 233.277 111.793 233.277C110.896 233.277 110.24 233.652 110.136 234.282H108.59C108.706 233.557 109.106 232.906 109.705 232.468C110.304 232.03 111.054 231.841 111.793 231.942C113.725 231.942 114.83 232.8 114.83 234.151C114.84 234.527 114.717 234.894 114.483 235.192C114.25 235.49 113.919 235.7 113.547 235.787V235.912C113.99 235.968 114.397 236.182 114.69 236.514C114.983 236.845 115.142 237.271 115.137 237.71C115.137 239.23 113.822 240.235 111.814 240.235C110.039 240.235 108.597 239.435 108.449 237.82Z" fill="white"/>
<path d="M117.447 240.088V232.096H119.037V237.593H119.164L122.91 232.096H124.5V240.088H122.91V234.561H122.79L119.037 240.088L117.447 240.088Z" fill="white"/>
<path d="M133.259 233.423H130.7V240.088H129.094V233.423H126.534V232.096H133.259V233.423Z" fill="white"/>
<path d="M141.9 237.93C141.682 238.661 141.209 239.292 140.565 239.715C139.921 240.138 139.146 240.325 138.376 240.243C137.841 240.257 137.309 240.156 136.817 239.947C136.325 239.738 135.885 239.427 135.528 239.035C135.171 238.642 134.905 238.178 134.748 237.674C134.592 237.17 134.549 236.639 134.622 236.117C134.551 235.594 134.594 235.061 134.751 234.556C134.907 234.051 135.171 233.584 135.527 233.188C135.882 232.792 136.32 232.476 136.81 232.261C137.301 232.046 137.832 231.937 138.369 231.941C140.631 231.941 141.997 233.461 141.997 235.971V236.521H136.258V236.609C136.232 236.903 136.27 237.198 136.367 237.477C136.465 237.755 136.62 238.01 136.824 238.226C137.028 238.441 137.276 238.613 137.551 238.729C137.826 238.845 138.123 238.903 138.422 238.899C138.806 238.944 139.194 238.876 139.538 238.704C139.882 238.531 140.166 238.262 140.354 237.93L141.9 237.93ZM136.258 235.354H140.361C140.382 235.086 140.345 234.817 140.253 234.564C140.161 234.311 140.016 234.079 139.828 233.884C139.64 233.689 139.412 233.535 139.16 233.432C138.907 233.328 138.636 233.278 138.362 233.284C138.085 233.28 137.809 233.331 137.552 233.434C137.295 233.537 137.062 233.689 136.865 233.882C136.669 234.075 136.514 234.305 136.41 234.558C136.306 234.811 136.254 235.082 136.258 235.354H136.258Z" fill="white"/>
<path d="M148.701 232.096H152.366C153.956 232.096 154.888 232.888 154.888 234.128C154.891 234.522 154.756 234.904 154.506 235.211C154.256 235.519 153.906 235.732 153.515 235.816V235.941C153.99 235.971 154.435 236.178 154.758 236.521C155.082 236.864 155.259 237.316 155.253 237.784C155.253 239.178 154.187 240.088 152.403 240.088H148.701V232.096ZM150.291 233.306V235.376H151.881C152.85 235.376 153.314 235.01 153.314 234.333C153.314 233.71 152.91 233.306 152.059 233.306L150.291 233.306ZM150.291 236.536V238.878H152.193C153.141 238.878 153.649 238.466 153.649 237.71C153.649 236.91 153.074 236.536 151.992 236.536L150.291 236.536Z" fill="white"/>
</g>
<defs>
<clipPath id="clip0_27_4896">
<rect width="216" height="71" fill="white" transform="translate(0 214)"/>
</clipPath>
</defs>
</svg>
