<svg width="18" height="18" viewBox="0 0 18 18" fill="none" xmlns="http://www.w3.org/2000/svg">
<path d="M4.38529 9.95294C4.20882 9.95294 4.06176 9.89412 3.94412 9.77647C3.82647 9.65882 3.76765 9.51176 3.76765 9.33529C3.76765 9.16471 3.82647 9.02059 3.94412 8.90294C4.06176 8.78529 4.20882 8.72647 4.38529 8.72647H8.38235V3.38824C8.38235 3.21765 8.44118 3.07353 8.55882 2.95588C8.67647 2.83824 8.82059 2.77941 8.99118 2.77941C9.16765 2.77941 9.31471 2.83824 9.43235 2.95588C9.55 3.07353 9.60882 3.21765 9.60882 3.38824V9.33529C9.60882 9.51176 9.55 9.65882 9.43235 9.77647C9.31471 9.89412 9.16765 9.95294 8.99118 9.95294H4.38529ZM9 18C7.77059 18 6.61176 17.7647 5.52353 17.2941C4.44118 16.8235 3.48529 16.1735 2.65588 15.3441C1.82647 14.5147 1.17647 13.5588 0.705882 12.4765C0.235294 11.3882 0 10.2294 0 9C0 7.77059 0.235294 6.61471 0.705882 5.53235C1.17647 4.44412 1.82353 3.48529 2.64706 2.65588C3.47647 1.82647 4.43235 1.17647 5.51471 0.705882C6.60294 0.235294 7.76176 0 8.99118 0C10.2206 0 11.3794 0.235294 12.4676 0.705882C13.5559 1.17647 14.5147 1.82647 15.3441 2.65588C16.1735 3.48529 16.8235 4.44412 17.2941 5.53235C17.7647 6.61471 18 7.77059 18 9C18 10.2294 17.7647 11.3882 17.2941 12.4765C16.8235 13.5588 16.1735 14.5147 15.3441 15.3441C14.5147 16.1735 13.5559 16.8235 12.4676 17.2941C11.3853 17.7647 10.2294 18 9 18ZM9 16.5C10.0412 16.5 11.0147 16.3059 11.9206 15.9176C12.8265 15.5294 13.6235 14.9941 14.3118 14.3118C15 13.6235 15.5353 12.8265 15.9176 11.9206C16.3059 11.0147 16.5 10.0412 16.5 9C16.5 7.95882 16.3059 6.98529 15.9176 6.07941C15.5294 5.17353 14.9912 4.37647 14.3029 3.68824C13.6206 3 12.8235 2.46471 11.9118 2.08235C11.0059 1.69412 10.0324 1.5 8.99118 1.5C7.95 1.5 6.97647 1.69412 6.07059 2.08235C5.16471 2.46471 4.37059 3 3.68824 3.68824C3.00588 4.37647 2.47059 5.17353 2.08235 6.07941C1.7 6.98529 1.50882 7.95882 1.50882 9C1.50882 10.0412 1.7 11.0147 2.08235 11.9206C2.47059 12.8265 3.00588 13.6235 3.68824 14.3118C4.37647 14.9941 5.17353 15.5294 6.07941 15.9176C6.98529 16.3059 7.95882 16.5 9 16.5Z" fill="black"/>
</svg>
