<svg width="32" height="32" viewBox="0 0 32 32" fill="none" xmlns="http://www.w3.org/2000/svg">
<path d="M17 7L16 8L14 6L11.5 5H9L7 7L5 9V13.5L8 19.5L12 23L13.5 25L16 26L18 25L21 22L24.5 18.5L26 15.5L27 11.5L26 8L24.5 5.5L21.5 5L19 5.5L17 7Z" fill="white"/>
<path d="M4 11.521C4 10.4153 4.16683 9.40395 4.50049 8.48686C4.83415 7.56978 5.30615 6.77697 5.9165 6.10844C6.52686 5.43134 7.23893 4.9128 8.05273 4.55282C8.86654 4.18427 9.75358 4 10.7139 4C11.8206 4 12.8298 4.27855 13.7412 4.83566C14.6527 5.3842 15.3688 6.11701 15.8896 7.0341C16.4105 6.11701 17.1266 5.3842 18.0381 4.83566C18.9495 4.27855 19.9587 4 21.0654 4C22.0257 4 22.9128 4.18427 23.7266 4.55282C24.5485 4.9128 25.2606 5.43134 25.8628 6.10844C26.4731 6.77697 26.9452 7.56978 27.2788 8.48686C27.6125 9.40395 27.7793 10.4153 27.7793 11.521C27.7793 13.3037 27.3154 15.0693 26.3877 16.8178C25.4681 18.5662 24.1701 20.2718 22.4937 21.9346C20.8254 23.5974 18.8722 25.1873 16.6343 26.7043C16.5285 26.7814 16.4064 26.85 16.2681 26.91C16.1297 26.97 16.0036 27 15.8896 27C15.7839 27 15.6618 26.97 15.5234 26.91C15.3851 26.85 15.259 26.7814 15.145 26.7043C12.9152 25.1873 10.9621 23.5974 9.28564 21.9346C7.61735 20.2718 6.31934 18.5662 5.3916 16.8178C4.46387 15.0693 4 13.3037 4 11.521ZM5.50146 11.521C5.50146 12.7209 5.77409 13.9337 6.31934 15.1593C6.87272 16.3764 7.62142 17.5763 8.56543 18.7591C9.51758 19.9419 10.604 21.0818 11.8247 22.1789C13.0454 23.2674 14.3312 24.2787 15.6821 25.213C15.7879 25.2987 15.8571 25.3415 15.8896 25.3415C15.9222 25.3415 15.9954 25.2987 16.1094 25.213C17.4603 24.2787 18.7461 23.2674 19.9668 22.1789C21.1875 21.0818 22.2699 19.9419 23.2139 18.7591C24.166 17.5763 24.9147 16.3764 25.46 15.1593C26.0052 13.9337 26.2778 12.7209 26.2778 11.521C26.2778 10.3382 26.05 9.3011 25.5942 8.40973C25.1466 7.51835 24.5322 6.82411 23.751 6.327C22.9697 5.82989 22.0786 5.58133 21.0776 5.58133C20.3289 5.58133 19.6698 5.72704 19.1001 6.01845C18.5304 6.30129 18.0381 6.66983 17.623 7.12409C17.208 7.57835 16.854 8.04975 16.561 8.53829C16.4308 8.74399 16.3169 8.88541 16.2192 8.96255C16.1216 9.03969 16.0117 9.07826 15.8896 9.07826C15.7676 9.07826 15.6577 9.03969 15.5601 8.96255C15.4624 8.88541 15.3444 8.74399 15.2061 8.53829C14.9294 8.04118 14.5835 7.56978 14.1685 7.12409C13.7616 6.66983 13.2692 6.30129 12.6914 6.01845C12.1217 5.72704 11.4585 5.58133 10.7017 5.58133C9.70068 5.58133 8.80957 5.82989 8.02832 6.327C7.24707 6.82411 6.62858 7.51835 6.17285 8.40973C5.72526 9.3011 5.50146 10.3382 5.50146 11.521Z" fill="#141414"/>
</svg>
