<svg width="12" height="12" viewBox="0 0 12 12" fill="none" xmlns="http://www.w3.org/2000/svg">
<path d="M2.12956 11.29L0.488282 11.9224C0.403021 11.9555 0.324865 11.9342 0.253814 11.8584C0.1875 11.7874 0.170921 11.7092 0.204079 11.624L0.879061 10.0395L8.63781 2.29498L9.8812 3.54547L2.12956 11.29ZM10.5064 2.93443L9.24885 1.68394L9.96646 0.973432C10.1465 0.798173 10.3288 0.703438 10.5136 0.689228C10.703 0.675018 10.8783 0.748437 11.0393 0.909486L11.2809 1.15106C11.4467 1.31684 11.5248 1.4921 11.5154 1.67683C11.5059 1.86157 11.4088 2.0463 11.2241 2.23103L10.5064 2.93443Z" fill="#808080"/>
</svg>
