<svg width="180" height="180" viewBox="0 0 180 180" fill="none" xmlns="http://www.w3.org/2000/svg">
<rect width="180" height="180" rx="50" fill="#BCBCBC"/>
<path d="M57.3596 131.496C55.4444 131.496 53.9123 130.842 52.7632 129.535C51.6489 128.26 51.0918 126.561 51.0918 124.437V55.514C51.0918 53.3897 51.6489 51.6904 52.7632 50.4158C53.9123 49.1413 55.4444 48.504 57.3596 48.504C58.4042 48.504 59.3966 48.6838 60.3368 49.0433C61.2769 49.3701 62.2693 49.8112 63.314 50.3668L124.216 83.4557C126.41 84.6322 127.924 85.6943 128.76 86.642C129.631 87.5571 130.066 88.6682 130.066 89.9754C130.066 91.2826 129.631 92.4101 128.76 93.3578C127.924 94.2729 126.41 95.335 124.216 96.5442L63.314 129.584C62.2693 130.172 61.2769 130.63 60.3368 130.957C59.3966 131.316 58.4042 131.496 57.3596 131.496Z" fill="white"/>
</svg>
