<svg width="18" height="18" viewBox="0 0 18 18" fill="none" xmlns="http://www.w3.org/2000/svg">
<path d="M9.25387 0C9.54624 0.0432405 9.84203 0.068552 10.1299 0.132885C13.1084 0.797312 15.0577 2.62888 15.9225 5.62548C16.4251 7.36706 16.2228 9.07523 15.4877 10.7229C14.8753 12.094 14.0057 13.284 13.0184 14.3892C11.9714 15.561 10.7999 16.5977 9.6373 17.6421C9.44901 17.8112 9.17821 17.8833 8.94575 18H8.6034C8.23435 17.9297 7.95704 17.7022 7.68693 17.4526C6.61537 16.4613 5.52054 15.4949 4.54244 14.4022C3.53833 13.2805 2.63486 12.082 2.04328 10.6737C0.836496 7.79876 1.20863 5.12171 3.12579 2.70271C4.29321 1.2262 5.84371 0.382485 7.67255 0.082965C7.87796 0.0478101 8.08885 0.0274208 8.297 0H9.25387Z" fill="#141414"/>
<circle cx="8.77578" cy="7.42501" r="3.6" fill="white"/>
</svg>
