<svg width="32" height="32" viewBox="0 0 32 32" fill="none" xmlns="http://www.w3.org/2000/svg">
<path d="M25.2812 27C25.2628 24.7953 24.5779 22.8209 23.1698 21.1257C21.6066 19.2437 19.6085 18.0964 17.1653 17.8025C14.3418 17.4627 11.857 18.2533 9.74934 20.1658C8.0207 21.7342 7.0423 23.6987 6.77203 26.0147C6.73379 26.3409 6.73551 26.6713 6.71875 27H5V26.3555C5.0162 26.2949 5.02826 26.2333 5.03609 26.1711C5.10584 25.0406 5.36345 23.9295 5.79836 22.8836C7.03787 19.9268 9.15307 17.8643 12.144 16.6961L12.3906 16.5973C12.2948 16.5246 12.2312 16.4787 12.1698 16.4305C10.5799 15.1806 9.71668 13.5486 9.64793 11.5235C9.59701 10.2249 9.96338 8.94421 10.6934 7.86902C11.5639 6.56535 12.7524 5.67762 14.2684 5.25309C14.6929 5.13492 15.1355 5.08121 15.5699 5H16.4293C16.773 5.05844 17.1258 5.08981 17.4605 5.17918C19.847 5.81254 21.4592 7.30184 22.1102 9.68145C22.7908 12.1702 22.0981 14.3281 20.2243 16.101C20.0404 16.2729 19.8332 16.425 19.6386 16.5848C19.6493 16.6024 19.6519 16.6114 19.6571 16.614C19.6949 16.6336 19.7338 16.6511 19.7735 16.6664C21.246 17.1994 22.5848 18.0464 23.697 19.1488C25.3672 20.7953 26.4225 22.7719 26.8281 25.0857C26.9016 25.506 26.9433 25.9322 27 26.3555V27H25.2812ZM20.6406 11.3516C20.6337 8.80145 18.5523 6.72219 16.0039 6.71961C13.4554 6.71703 11.3529 8.81434 11.3594 11.3671C11.3658 13.9199 13.4481 15.9966 15.997 16C18.5459 16.0034 20.6471 13.9044 20.6406 11.3516Z" fill="#BCBCBC"/>
</svg>
