<svg width="32" height="32" viewBox="0 0 32 32" fill="none" xmlns="http://www.w3.org/2000/svg">
<path d="M9.21873 26H22.8963C23.9177 26 24.7082 25.713 25.2676 25.139C25.827 24.5649 26.1067 23.7149 26.1067 22.5889V10.3601C26.1067 9.23652 25.817 8.38709 25.2374 7.81185C24.6578 7.2366 23.8011 6.94898 22.6673 6.94898H9.21873C8.07967 6.94898 7.22167 7.23539 6.64472 7.8082C6.06777 8.38101 5.7793 9.23165 5.7793 10.3601V22.5889C5.7793 23.7198 6.06777 24.571 6.64472 25.1426C7.22167 25.7142 8.07967 26 9.21873 26ZM9.24574 24.5646C8.58569 24.5646 8.08278 24.3925 7.737 24.0481C7.39122 23.7038 7.21833 23.1936 7.21833 22.5175V10.4315C7.21833 9.75793 7.39122 9.24896 7.737 8.90458C8.08278 8.5602 8.58569 8.38801 9.24574 8.38801H22.6323C23.2772 8.38801 23.7783 8.5602 24.1356 8.90458C24.4929 9.24896 24.6715 9.75793 24.6715 10.4315V22.5175C24.6715 23.1936 24.5029 23.7038 24.1657 24.0481C23.8285 24.3925 23.3937 24.5646 22.8613 24.5646H9.24574ZM11.5633 7.3972L12.9987 7.40523C12.9987 6.82001 13.1252 6.29979 13.3782 5.84457C13.6312 5.38935 13.9793 5.02988 14.4224 4.76616C14.8655 4.50245 15.3717 4.37059 15.9408 4.37059C16.5129 4.37059 17.0205 4.50245 17.4637 4.76616C17.9069 5.02988 18.255 5.38935 18.508 5.84457C18.761 6.29979 18.8875 6.82001 18.8875 7.40523L20.3227 7.3972C20.3227 6.57704 20.1295 5.83505 19.743 5.17123C19.3565 4.50741 18.832 3.97958 18.1694 3.58775C17.5068 3.19592 16.7639 3 15.9408 3C15.1153 3 14.3726 3.19592 13.7128 3.58775C13.0529 3.97958 12.5297 4.50741 12.1431 5.17123C11.7566 5.83505 11.5633 6.57704 11.5633 7.3972Z" fill="#141414"/>
</svg>
