<svg width="16" height="16" viewBox="0 0 16 16" fill="none" xmlns="http://www.w3.org/2000/svg">
<path d="M2 6.59698C2 6.06819 2.08419 5.5845 2.25257 5.14589C2.42094 4.70729 2.65914 4.32812 2.96715 4.00838C3.27515 3.68455 3.6345 3.43656 4.04517 3.26439C4.45585 3.08813 4.90349 3 5.38809 3C5.94661 3 6.45585 3.13322 6.91581 3.39966C7.37577 3.66201 7.73717 4.01248 8 4.45109C8.26283 4.01248 8.62423 3.66201 9.08419 3.39966C9.54415 3.13322 10.0534 3 10.6119 3C11.0965 3 11.5441 3.08813 11.9548 3.26439C12.3696 3.43656 12.729 3.68455 13.0329 4.00838C13.3409 4.32812 13.5791 4.70729 13.7474 5.14589C13.9158 5.5845 14 6.06819 14 6.59698C14 7.4496 13.7659 8.29402 13.2977 9.13024C12.8337 9.96646 12.1786 10.7822 11.3326 11.5774C10.4908 12.3726 9.50513 13.133 8.37577 13.8586C8.32238 13.8955 8.26078 13.9283 8.19096 13.957C8.12115 13.9857 8.05749 14 8 14C7.94661 14 7.88501 13.9857 7.8152 13.957C7.74538 13.9283 7.68172 13.8955 7.62423 13.8586C6.49897 13.133 5.51335 12.3726 4.66735 11.5774C3.82546 10.7822 3.17043 9.96646 2.70226 9.13024C2.23409 8.29402 2 7.4496 2 6.59698ZM2.7577 6.59698C2.7577 7.17086 2.89528 7.75088 3.17043 8.33706C3.44969 8.91914 3.82752 9.49301 4.3039 10.0587C4.78439 10.6244 5.33265 11.1696 5.94867 11.6942C6.56468 12.2148 7.21355 12.6985 7.89528 13.1453C7.94867 13.1863 7.98357 13.2068 8 13.2068C8.01643 13.2068 8.05339 13.1863 8.11088 13.1453C8.79261 12.6985 9.44148 12.2148 10.0575 11.6942C10.6735 11.1696 11.2197 10.6244 11.6961 10.0587C12.1766 9.49301 12.5544 8.91914 12.8296 8.33706C13.1047 7.75088 13.2423 7.17086 13.2423 6.59698C13.2423 6.0313 13.1273 5.53531 12.8973 5.109C12.6715 4.68269 12.3614 4.35066 11.9671 4.11291C11.5729 3.87516 11.1232 3.75629 10.6181 3.75629C10.2402 3.75629 9.9076 3.82597 9.62012 3.96534C9.33265 4.10061 9.08419 4.27688 8.87474 4.49413C8.6653 4.71138 8.48665 4.93684 8.33881 5.17049C8.2731 5.26887 8.21561 5.3365 8.16632 5.37339C8.11704 5.41028 8.0616 5.42873 8 5.42873C7.9384 5.42873 7.88296 5.41028 7.83368 5.37339C7.78439 5.3365 7.72485 5.26887 7.65503 5.17049C7.5154 4.93274 7.34086 4.70729 7.13142 4.49413C6.92608 4.27688 6.67762 4.10061 6.38604 3.96534C6.09856 3.82597 5.76386 3.75629 5.38193 3.75629C4.8768 3.75629 4.4271 3.87516 4.03285 4.11291C3.6386 4.35066 3.32649 4.68269 3.09651 5.109C2.87064 5.53531 2.7577 6.0313 2.7577 6.59698Z" fill="#BCBCBC"/>
</svg>
