<svg width="16" height="16" viewBox="0 0 16 16" fill="none" xmlns="http://www.w3.org/2000/svg">
<g clip-path="url(#clip0_34_17297)">
<path d="M16 8.5V7.5C15.9886 7.46052 15.9799 7.42028 15.9742 7.37958C15.8792 6.12958 15.5158 4.95917 14.8579 3.89333C13.5862 1.83667 11.7604 0.57 9.3775 0.122499C9.08583 0.0679159 8.79417 0.0391665 8.5 0H7.5C7.31 0.0233326 7.11958 0.041666 6.93 0.0704165C5.45458 0.278749 4.12875 0.840417 2.97542 1.785C1.43375 3.04667 0.475417 4.66 0.1225 6.62167C0.0700001 6.91333 0.0391667 7.20708 0 7.5V8.5C0.0241667 8.69542 0.0445829 8.89125 0.0724996 9.08625C0.3 10.6783 0.937499 12.0863 2.00667 13.2879C3.245 14.68 4.78375 15.5504 6.62208 15.8771C6.91375 15.9287 7.2075 15.9604 7.5 16H8.5C8.7725 15.9646 9.04625 15.9379 9.31708 15.8917C10.8083 15.6371 12.13 15.0167 13.2637 14.0142C14.6692 12.7729 15.5475 11.2279 15.8771 9.37833C15.9292 9.0875 15.9583 8.79167 16 8.5ZM5.73583 5.82125C7.23808 6.02354 8.76067 6.02354 10.2629 5.82125C10.5721 7.25646 10.5721 8.74105 10.2629 10.1763C8.76255 9.94396 7.23537 9.94396 5.735 10.1763C5.42685 8.74091 5.42713 7.25648 5.73583 5.82125ZM1.7825 11.1871C1.27083 10.2642 0.878335 8.8325 1.0325 7.31875C1.11715 6.44221 1.3698 5.59016 1.77667 4.80917L4.735 5.71458C4.425 7.21976 4.425 8.77232 4.735 10.2775L1.7825 11.1871ZM11.2663 10.2783C11.5765 8.77374 11.5765 7.22168 11.2663 5.71708L14.2325 4.80708C15.2642 6.93208 15.2637 9.075 14.2325 11.1912L11.2663 10.2783ZM10.0038 11.1533C9.58206 12.4697 8.90071 13.6882 8 14.7367C7.09825 13.6887 6.41653 12.4701 5.99542 11.1533C7.3261 10.9832 8.67303 10.9831 10.0038 11.1529V11.1533ZM6 4.83333C6.42146 3.52229 7.10153 2.30907 8 1.26542C8.89788 2.30948 9.57788 3.52258 10 4.83333C9.31417 5.01833 6.70833 5.01917 6 4.83333ZM9.20417 14.875C10.0029 13.797 10.6125 12.5911 11.0071 11.3088C11.9165 11.4886 12.807 11.7538 13.6667 12.1008C12.5254 13.6092 11.0533 14.5392 9.20458 14.875H9.20417ZM11.0046 4.68833C10.6109 3.40873 10.0036 2.20494 9.20833 1.12792C11.0596 1.46417 12.5313 2.39417 13.6583 3.88875C13.2804 4.10292 11.5946 4.61042 11.005 4.68667L11.0046 4.68833ZM2.33542 3.9C3.47083 2.39125 4.94458 1.46375 6.79125 1.12958C5.99473 2.20698 5.38614 3.41132 4.99125 4.69167C4.08313 4.51153 3.19395 4.24647 2.33542 3.9ZM6.79167 14.8729C4.94333 14.5358 3.46917 13.6096 2.33333 12.0996C3.19208 11.7537 4.08121 11.4887 4.98917 11.3079C5.38363 12.5898 5.99314 13.7953 6.79167 14.8729Z" fill="white"/>
</g>
<defs>
<clipPath id="clip0_34_17297">
<rect width="16" height="16" fill="white" transform="matrix(1 0 0 -1 0 16)"/>
</clipPath>
</defs>
</svg>
