<svg width="180" height="180" viewBox="0 0 180 180" fill="none" xmlns="http://www.w3.org/2000/svg">
<rect width="180" height="180" rx="50" fill="#BCBCBC"/>
<path fill-rule="evenodd" clip-rule="evenodd" d="M62.55 39.375C58.8221 39.375 55.8 42.3971 55.8 46.125V133.875C55.8 137.603 58.8221 140.625 62.55 140.625C66.2779 140.625 69.3 137.603 69.3 133.875V46.125C69.3 42.3971 66.2779 39.375 62.55 39.375ZM118.35 39.375C114.622 39.375 111.6 42.3971 111.6 46.125V133.875C111.6 137.603 114.622 140.625 118.35 140.625C122.078 140.625 125.1 137.603 125.1 133.875V46.125C125.1 42.3971 122.078 39.375 118.35 39.375Z" fill="white"/>
</svg>
