<svg width="231" height="30" viewBox="0 0 231 30" fill="none" xmlns="http://www.w3.org/2000/svg">
<path d="M67.8373 20.8629L69.8184 9.23766H72.987L71.0045 20.8629H67.8373ZM82.4527 9.48827C81.825 9.25274 80.8412 9 79.6128 9C76.4816 9 74.2762 10.5767 74.2574 12.8365C74.2397 14.507 75.832 15.4389 77.0339 15.9949C78.2674 16.5649 78.6819 16.9282 78.676 17.437C78.6681 18.2163 77.691 18.5721 76.7802 18.5721C75.512 18.5721 74.8382 18.396 73.7975 17.9621L73.3891 17.7773L72.9445 20.3797C73.6846 20.7044 75.0531 20.9854 76.4742 21C79.8051 21 81.9675 19.4413 81.9921 17.028C82.0039 15.7055 81.1597 14.6992 79.3315 13.8694C78.224 13.3316 77.5457 12.9728 77.5529 12.4282C77.5529 11.945 78.127 11.4283 79.3677 11.4283C80.4037 11.4122 81.1545 11.6381 81.7393 11.8737L82.0232 12.0078L82.4527 9.48827ZM90.6069 9.23748H88.1584C87.3999 9.23748 86.8322 9.4445 86.4992 10.2015L81.7932 20.8553H85.1206C85.1206 20.8553 85.6645 19.4228 85.7876 19.1083C86.1512 19.1083 89.3836 19.1133 89.8457 19.1133C89.9405 19.5203 90.2312 20.8553 90.2312 20.8553H93.1715L90.6069 9.23713V9.23748ZM86.722 16.7444C86.9842 16.0746 87.9846 13.4946 87.9846 13.4946C87.9659 13.5255 88.2447 12.8215 88.4047 12.385L88.6188 13.3873C88.6188 13.3873 89.2256 16.1623 89.3524 16.7442H86.722V16.7444ZM65.1473 9.23748L62.0451 17.1654L61.7146 15.5544C61.137 13.6971 59.3377 11.685 57.3262 10.6776L60.1628 20.8444L63.5154 20.8407L68.504 9.23736L65.1473 9.2373" fill="#0E4595"/>
<path d="M59.1501 9.2373H54.0405L54 9.47918C57.9752 10.4415 60.6054 12.7669 61.6975 15.5614L60.5865 10.2191C60.3947 9.48298 59.8384 9.26326 59.1502 9.2376" fill="#F2AE14"/>
<path d="M230.664 11.8442V19.1787H228.045V14.0337H225.523V19.1787H222.904V11.8438L230.664 11.8442Z" fill="black"/>
<path fill-rule="evenodd" clip-rule="evenodd" d="M217.527 19.4412C219.872 19.4412 221.613 18.0037 221.613 15.8244C221.613 13.7152 220.328 12.3457 218.182 12.3457C217.191 12.3457 216.373 12.6944 215.758 13.2962C215.905 12.0524 216.956 11.1444 218.114 11.1444C218.382 11.1444 220.394 11.1402 220.394 11.1402L221.531 8.96289C221.531 8.96289 219.005 9.02039 217.831 9.02039C215.148 9.06714 213.336 11.5059 213.336 14.4679C213.336 17.9187 215.103 19.4412 217.527 19.4412ZM217.542 14.2742C218.412 14.2742 219.016 14.8462 219.016 15.8242C219.016 16.7044 218.479 17.4297 217.542 17.4317C216.645 17.4317 216.041 16.7597 216.041 15.8392C216.041 14.8609 216.645 14.2742 217.542 14.2742Z" fill="black"/>
<path d="M211.205 16.7229C211.205 16.7229 210.587 17.0794 209.663 17.1469C208.601 17.1784 207.655 16.5078 207.655 15.316C207.655 14.1535 208.49 13.4872 209.636 13.4872C210.339 13.4872 211.269 13.9745 211.269 13.9745C211.269 13.9745 211.95 12.7257 212.302 12.1012C211.657 11.612 210.797 11.3438 209.797 11.3438C207.273 11.3438 205.318 12.9892 205.318 15.3012C205.318 17.6427 207.156 19.25 209.797 19.2015C210.535 19.174 211.554 18.9147 212.174 18.516L211.205 16.7229Z" fill="black"/>
<path d="M179 6.53027L182.633 13.024V16.985L179.004 23.466L179 6.53027Z" fill="#5B57A2"/>
<path d="M192.949 10.6613L196.354 8.57486L203.321 8.56836L192.949 14.9219V10.6613Z" fill="#D90751"/>
<path d="M192.931 6.49175L192.95 15.0892L189.309 12.8518V0L192.931 6.49175Z" fill="#FAB718"/>
<path d="M203.321 8.56775L196.354 8.57425L192.931 6.49175L189.309 0L203.321 8.56775Z" fill="#ED6F26"/>
<path d="M192.95 23.5019V19.3307L189.309 17.1357L189.311 30.0002L192.95 23.5019Z" fill="#63B22F"/>
<path d="M196.345 21.4345L182.633 13.024L179 6.53027L203.306 21.426L196.345 21.4345Z" fill="#1487C9"/>
<path d="M189.311 30L192.95 23.5018L196.345 21.4343L203.306 21.4258L189.311 30Z" fill="#017F36"/>
<path d="M179.004 23.4654L189.337 17.1354L185.863 15.0039L182.633 16.9844L179.004 23.4654Z" fill="#984995"/>
<path fill-rule="evenodd" clip-rule="evenodd" d="M118.069 9.00205C118.462 8.9997 119.63 8.89448 120.125 10.5646C120.458 11.6896 120.989 13.5324 121.718 16.093H122.015C122.796 13.3934 123.333 11.5506 123.625 10.5646C124.125 8.87708 125.375 9.00208 125.875 9.00208L129.733 9.00209V21.0021H125.801V13.9303H125.537L123.345 21.0021H120.387L118.195 13.925H117.932V21.0021H114V9.00209L118.069 9.00205ZM135.379 9.00209V16.0791H135.692L138.358 10.2597C138.876 9.10165 139.979 9.00209 139.979 9.00209H143.784V21.0021H139.77V13.925H139.456L136.842 19.7444C136.325 20.8973 135.17 21.0021 135.17 21.0021H131.365V9.00209H135.379ZM157.658 14.7046C157.098 16.2912 155.339 17.4275 153.393 17.4275H149.183V21.0021H145.366V14.7046H157.658Z" fill="#006844"/>
<path fill-rule="evenodd" clip-rule="evenodd" d="M153.577 9.00195H145.166C145.366 11.6735 147.667 13.9606 150.049 13.9606H157.923C158.377 11.7402 156.813 9.00195 153.577 9.00195Z" fill="url(#paint0_linear_27_59245)"/>
<path d="M20.0001 14.9998C20.0001 20.5229 15.5227 24.9996 9.99978 24.9996C4.47684 24.9996 0 20.5227 0 14.9998C0 9.47717 4.47689 5 9.99978 5C15.5226 5 20.0001 9.47739 20.0001 14.9998Z" fill="#D9222A"/>
<path d="M23.4254 5C20.8417 5 18.4872 5.98026 16.7125 7.58863C16.3509 7.9167 16.0135 8.27034 15.7028 8.64688H17.7232C17.9998 8.9832 18.2544 9.33695 18.4855 9.70602H14.9405C14.7273 10.0471 14.5349 10.4007 14.3644 10.7649H19.0614C19.2226 11.1095 19.3639 11.463 19.4848 11.8236H13.941C13.8246 12.1709 13.7275 12.5245 13.6504 12.8826H19.775C19.9248 13.5784 20.0004 14.2881 20.0002 14.9999C20.0002 16.1105 19.8189 17.1788 19.4847 18.1765H13.9409C14.0615 18.5374 14.2027 18.8909 14.3641 19.2354H19.0612C18.8906 19.5998 18.6981 19.9535 18.4848 20.2946H14.9403C15.1714 20.6634 15.4261 21.017 15.7027 21.3529H17.7227C17.4124 21.7302 17.0748 22.0842 16.7127 22.4121C18.4874 24.0202 20.8417 25 23.4256 25C28.9485 25 33.4259 20.5232 33.4259 15.0002C33.4259 9.47784 28.9485 5.00045 23.4256 5.00045" fill="#EE9F2D"/>
<path d="M32.0931 20.5743C32.0931 20.396 32.2375 20.2511 32.416 20.2511C32.5945 20.2511 32.7389 20.396 32.7389 20.5743C32.7389 20.7525 32.5945 20.8974 32.416 20.8974C32.2375 20.8974 32.0931 20.7525 32.0931 20.5743ZM32.416 20.8198C32.5516 20.8198 32.6615 20.7098 32.6616 20.5743C32.6616 20.4388 32.5518 20.329 32.4163 20.3289H32.416C32.2807 20.3287 32.1709 20.4383 32.1707 20.5735V20.5743C32.1706 20.7099 32.2803 20.8198 32.4158 20.8199C32.4158 20.8198 32.416 20.8198 32.416 20.8198ZM32.3724 20.7162H32.3063V20.4323H32.426C32.451 20.4323 32.4766 20.4323 32.4987 20.4465C32.5217 20.462 32.5347 20.4894 32.5347 20.5177C32.5347 20.5495 32.5158 20.5792 32.4854 20.5908L32.5377 20.7161H32.4644L32.421 20.6038H32.3725L32.3724 20.7162ZM32.3724 20.5552H32.409C32.4228 20.5552 32.4372 20.5564 32.4495 20.5496C32.4604 20.5427 32.466 20.5296 32.466 20.5171C32.4657 20.5055 32.4597 20.4947 32.4499 20.4882C32.4384 20.4811 32.4201 20.4826 32.4077 20.4826H32.3724V20.5552ZM7.66542 16.095C7.55144 16.0817 7.50136 16.0782 7.42309 16.0782C6.80773 16.0782 6.4962 16.2892 6.4962 16.7059C6.4962 16.9628 6.64823 17.1263 6.88544 17.1263C7.32771 17.1263 7.64637 16.7051 7.66542 16.095ZM8.45488 17.9331H7.5554L7.57607 17.5055C7.30164 17.8434 6.93563 18.0041 6.43815 18.0041C5.8497 18.0041 5.44631 17.5445 5.44631 16.8771C5.44631 15.873 6.14802 15.2871 7.35251 15.2871C7.47551 15.2871 7.63339 15.2982 7.79489 15.3189C7.82854 15.1829 7.8374 15.1246 7.8374 15.0514C7.8374 14.778 7.64821 14.6761 7.14103 14.6761C6.60996 14.6701 6.17192 14.8026 5.99203 14.8618C6.0034 14.7933 6.14245 13.9337 6.14245 13.9337C6.68349 13.7752 7.04026 13.7155 7.44186 13.7155C8.37399 13.7155 8.86779 14.1341 8.86685 14.9251C8.86868 15.137 8.83359 15.3986 8.77888 15.7424C8.68468 16.3404 8.48251 17.6209 8.45488 17.9331ZM4.99211 17.9331H3.90651L4.52833 14.0337L3.13979 17.9331H2.40003L2.30855 14.056L1.65492 17.9331H0.638672L1.48751 12.8605H3.04853L3.14324 15.6999L4.09542 12.8605H5.8317L4.99211 17.9331ZM24.7672 16.095C24.6537 16.0817 24.6033 16.0782 24.5253 16.0782C23.9102 16.0782 23.5986 16.2892 23.5986 16.7059C23.5986 16.9628 23.7505 17.1263 23.9876 17.1263C24.4299 17.1263 24.7488 16.7051 24.7672 16.095ZM25.5573 17.9331H24.6579L24.6782 17.5055C24.4038 17.8434 24.0376 18.0041 23.5406 18.0041C22.952 18.0041 22.5489 17.5445 22.5489 16.8771C22.5489 15.873 23.2502 15.2871 24.4549 15.2871C24.5779 15.2871 24.7355 15.2982 24.8969 15.3189C24.9306 15.1829 24.9394 15.1246 24.9394 15.0514C24.9394 14.778 24.7504 14.6761 24.2433 14.6761C23.7122 14.6701 23.2747 14.8026 23.094 14.8618C23.1054 14.7933 23.245 13.9337 23.245 13.9337C23.786 13.7752 24.1425 13.7155 24.5437 13.7155C25.4763 13.7155 25.9701 14.1341 25.9691 14.9251C25.9709 15.137 25.9359 15.3986 25.8812 15.7424C25.7874 16.3404 25.5847 17.6209 25.5573 17.9331ZM13.2796 17.8705C12.9825 17.964 12.7509 18.0041 12.4997 18.0041C11.9447 18.0041 11.6418 17.6851 11.6418 17.0978C11.6339 16.9156 11.7217 16.436 11.7906 15.9983C11.8533 15.613 12.2613 13.1834 12.2613 13.1834H13.3404L13.2144 13.8078H13.8661L13.7189 14.7992H13.0648C12.9395 15.5837 12.761 16.561 12.7589 16.6905C12.7589 16.9031 12.8724 16.9959 13.1305 16.9959C13.2543 16.9959 13.35 16.9833 13.4232 16.957L13.2796 17.8705ZM16.5883 17.837C16.2176 17.9504 15.8599 18.0051 15.4808 18.0042C14.2729 18.003 13.6432 17.3721 13.6432 16.164C13.6432 14.7538 14.4443 13.7157 15.5317 13.7157C16.4214 13.7157 16.9896 14.297 16.9896 15.2085C16.9896 15.511 16.9506 15.8062 16.8566 16.2231H14.7077C14.635 16.8215 15.018 17.0708 15.6456 17.0708C16.032 17.0708 16.3803 16.9912 16.7677 16.8111L16.5883 17.837ZM15.9817 15.3914C15.9877 15.3055 16.0962 14.6551 15.4796 14.6551C15.1358 14.6551 14.8901 14.9172 14.7899 15.3914H15.9817ZM9.10612 15.1119C9.10612 15.6338 9.35915 15.9936 9.93295 16.2638C10.3726 16.4704 10.4406 16.5317 10.4406 16.7189C10.4406 16.9761 10.2468 17.0922 9.81713 17.0922C9.49329 17.0922 9.19202 17.0416 8.84456 16.9294C8.84456 16.9294 8.70178 17.8387 8.69526 17.8822C8.94205 17.936 9.1621 17.9858 9.82498 18.0042C10.9705 18.0042 11.4995 17.568 11.4995 16.6254C11.4995 16.0585 11.278 15.7259 10.7343 15.4759C10.2791 15.267 10.2269 15.2203 10.2269 15.0277C10.2269 14.8046 10.4072 14.6909 10.7582 14.6909C10.9713 14.6909 11.2623 14.7136 11.5381 14.7528L11.6927 13.796C11.4116 13.7515 10.9854 13.7157 10.7373 13.7157C9.52276 13.7157 9.10238 14.3501 9.10612 15.1119ZM21.8685 13.8242C22.17 13.8242 22.4511 13.9033 22.8385 14.0983L23.0161 12.9973C22.8571 12.9349 22.2972 12.5684 21.823 12.5684C21.0965 12.5684 20.4824 12.9289 20.0503 13.5238C19.4203 13.3151 19.1613 13.7369 18.8438 14.157L18.5618 14.2227C18.5831 14.0844 18.6024 13.9469 18.5959 13.8079H17.5989C17.4627 15.0846 17.2213 16.3776 17.0323 17.656L16.983 17.9332H18.0691C18.2504 16.7553 18.3498 16.0012 18.4101 15.4908L18.8191 15.2633C18.8802 15.0361 19.0714 14.9592 19.4551 14.9685C19.4035 15.2475 19.3778 15.5307 19.3781 15.8144C19.3781 17.164 20.1062 18.0042 21.275 18.0042C21.576 18.0042 21.8344 17.9646 22.2343 17.8562L22.4254 16.6997C22.0657 16.8769 21.7703 16.9602 21.5029 16.9602C20.8718 16.9602 20.4899 16.4943 20.4899 15.7243C20.4899 14.6073 21.0579 13.8242 21.8685 13.8242Z" fill="black"/>
<path d="M5.30456 17.6314H4.21873L4.84106 13.7325L3.45245 17.6314H2.71247L2.621 13.7548L1.96736 17.6314H0.951172L1.80001 12.5596H3.36103L3.40493 15.6994L4.45806 12.5596H6.1442L5.30456 17.6314Z" fill="white"/>
<path d="M31.0599 12.8604L30.8191 14.326C30.5223 13.9353 30.2033 13.6526 29.7823 13.6526C29.2345 13.6526 28.7359 14.0679 28.4095 14.679C27.955 14.5848 27.4849 14.4248 27.4849 14.4248L27.4847 14.4286C27.5213 14.0868 27.536 13.8784 27.5327 13.8076H26.5355C26.3997 15.0843 26.1583 16.3774 25.9697 17.6557L25.9199 17.9329H27.0058C27.1525 16.9805 27.2647 16.1897 27.3475 15.5625C27.7184 15.2273 27.9041 14.9348 28.279 14.9543C28.113 15.3557 28.0158 15.818 28.0158 16.2923C28.0158 17.3236 28.5375 18.004 29.3268 18.004C29.7246 18.004 30.0299 17.8668 30.3277 17.5488L30.2768 17.9323H31.3038L32.1306 12.8604L31.0599 12.8604ZM29.7022 16.9795C29.3326 16.9795 29.146 16.7061 29.146 16.1664C29.146 15.3556 29.4954 14.7806 29.9879 14.7806C30.3609 14.7806 30.5628 15.065 30.5628 15.5889C30.5629 16.4067 30.208 16.9795 29.7022 16.9795Z" fill="black"/>
<path d="M7.97654 15.795C7.86278 15.7818 7.81242 15.7783 7.73443 15.7783C7.11906 15.7783 6.80776 15.9893 6.80776 16.4059C6.80776 16.6624 6.95979 16.8264 7.19655 16.8264C7.63927 16.8263 7.95799 16.4053 7.97654 15.795ZM8.76638 17.6325H7.8669L7.88735 17.2056C7.6132 17.5428 7.24669 17.7042 6.74971 17.7042C6.16103 17.7042 5.75781 17.2446 5.75781 16.5772C5.75781 15.5727 6.4593 14.9872 7.66401 14.9872C7.78701 14.9872 7.94489 14.9983 8.10623 15.019C8.13988 14.883 8.14873 14.8247 8.14873 14.7511C8.14873 14.4777 7.95977 14.3763 7.45259 14.3763C6.9213 14.3703 6.48348 14.5028 6.30337 14.5613C6.31474 14.493 6.45379 13.6345 6.45379 13.6345C6.99461 13.4752 7.35182 13.4156 7.75292 13.4156C8.68532 13.4156 9.1793 13.8343 9.1784 14.6247C9.18002 14.8376 9.14476 15.0989 9.09016 15.4422C8.99618 16.0396 8.79384 17.321 8.76638 17.6325ZM23.3276 12.6971L23.1498 13.7983C22.7627 13.6035 22.4813 13.5242 22.1801 13.5242C21.3695 13.5242 20.8013 14.3074 20.8013 15.4242C20.8013 16.1942 21.1833 16.6599 21.8143 16.6599C22.0817 16.6599 22.3768 16.5768 22.7365 16.3995L22.546 17.5554C22.1457 17.6645 21.8877 17.7042 21.5864 17.7042C20.4178 17.7042 19.6894 16.8639 19.6894 15.5143C19.6894 13.701 20.6955 12.4336 22.1344 12.4336C22.6083 12.4336 23.1684 12.6346 23.3276 12.6971ZM25.0793 15.795C24.9656 15.7818 24.9154 15.7783 24.8371 15.7783C24.222 15.7783 23.9105 15.9893 23.9105 16.4059C23.9105 16.6624 24.0625 16.8264 24.2995 16.8264C24.7417 16.8263 25.0607 16.4053 25.0793 15.795ZM25.8691 17.6325H24.9694L24.9901 17.2056C24.7157 17.5428 24.3494 17.7042 23.8525 17.7042C23.264 17.7042 22.8606 17.2446 22.8606 16.5772C22.8606 15.5727 23.5623 14.9872 24.7665 14.9872C24.8898 14.9872 25.0474 14.9983 25.2089 15.019C25.2424 14.883 25.2514 14.8247 25.2514 14.7511C25.2514 14.4777 25.0624 14.3763 24.5553 14.3763C24.0243 14.3703 23.5862 14.5028 23.4061 14.5613C23.4174 14.493 23.5567 13.6345 23.5567 13.6345C24.0976 13.4752 24.4545 13.4156 24.8556 13.4156C25.7882 13.4156 26.282 13.8343 26.2808 14.6247C26.2826 14.8376 26.2476 15.0989 26.1928 15.4422C26.0991 16.0396 25.8963 17.321 25.8691 17.6325ZM13.5914 17.57C13.294 17.6636 13.0624 17.7042 12.8115 17.7042C12.2565 17.7042 11.9536 17.3852 11.9536 16.7979C11.9459 16.6152 12.0337 16.1361 12.1026 15.6984C12.165 15.3126 12.5731 12.8832 12.5731 12.8832H13.6521L13.5262 13.5078H14.08L13.9326 14.4988H13.3769C13.2515 15.2838 13.0725 16.2603 13.0707 16.3901C13.0707 16.6035 13.1844 16.6955 13.4423 16.6955C13.5661 16.6955 13.6617 16.6835 13.735 16.657L13.5914 17.57ZM16.9 17.537C16.5295 17.6503 16.1714 17.7048 15.7926 17.7042C14.5845 17.703 13.9549 17.0721 13.9549 15.8639C13.9549 14.4533 14.7559 13.4155 15.8434 13.4155C16.7331 13.4155 17.3013 13.9965 17.3013 14.9085C17.3013 15.2112 17.2623 15.5065 17.1685 15.9231H15.0196C14.9469 16.5215 15.3299 16.7711 15.9576 16.7711C16.3436 16.7711 16.6923 16.6912 17.0795 16.5106L16.9 17.537ZM16.2933 15.0907C16.2998 15.0051 16.408 14.3544 15.7912 14.3544C15.4476 14.3544 15.2018 14.6172 15.1018 15.0907H16.2933ZM9.41767 14.8119C9.41767 15.3338 9.67071 15.6931 10.2445 15.9637C10.6842 16.1703 10.7521 16.2318 10.7521 16.419C10.7521 16.6761 10.5581 16.7922 10.1289 16.7922C9.80485 16.7922 9.50352 16.7416 9.15579 16.6294C9.15579 16.6294 9.01351 17.5387 9.00699 17.5821C9.25328 17.636 9.47355 17.6852 10.1365 17.7042C11.2822 17.7042 11.811 17.268 11.811 16.3256C11.811 15.7585 11.5898 15.4259 11.0458 15.1759C10.5908 14.9665 10.5381 14.9206 10.5381 14.7277C10.5381 14.5049 10.7189 14.3902 11.0697 14.3902C11.2825 14.3902 11.5736 14.4136 11.8498 14.4528L12.0042 13.4958C11.7233 13.4512 11.2971 13.4155 11.049 13.4155C9.83432 13.4155 9.41416 14.0494 9.41767 14.8119ZM31.615 17.6325H30.5878L30.6389 17.2485C30.341 17.567 30.0358 17.7042 29.6379 17.7042C28.8487 17.7042 28.3272 17.0238 28.3272 15.9925C28.3272 14.6203 29.1361 13.4637 30.0936 13.4637C30.5147 13.4637 30.8334 13.6357 31.13 14.0261L31.3709 12.5606H32.4417L31.615 17.6325ZM30.0135 16.6793C30.5191 16.6793 30.8742 16.1065 30.8742 15.2892C30.8742 14.7653 30.6721 14.481 30.299 14.481C29.8067 14.481 29.457 15.0556 29.457 15.8667C29.4569 16.4063 29.644 16.6793 30.0135 16.6793ZM26.8469 13.5079C26.7109 14.7846 26.4696 16.0777 26.2808 17.3553L26.2311 17.6325H27.3169C27.7053 15.1103 27.7993 14.6177 28.4082 14.6794C28.5052 14.1632 28.6857 13.7111 28.8204 13.4829C28.3656 13.3882 28.1117 13.6452 27.7793 14.1333C27.8055 13.9223 27.8535 13.7173 27.844 13.5079L26.8469 13.5079ZM17.9101 13.5079C17.7738 14.7846 17.5324 16.0777 17.3437 17.3553L17.2942 17.6325H18.3805C18.7684 15.1103 18.8622 14.6177 19.4708 14.6794C19.5683 14.1632 19.7488 13.7111 19.883 13.4829C19.4287 13.3882 19.1745 13.6452 18.8424 14.1333C18.8686 13.9223 18.9161 13.7173 18.9071 13.5079L17.9101 13.5079ZM32.0919 17.3095C32.0917 17.1313 32.236 16.9867 32.4142 16.9865H32.4148C32.5929 16.9863 32.7375 17.1305 32.7377 17.3086V17.3095C32.7377 17.4879 32.5931 17.6324 32.4148 17.6325C32.2365 17.6324 32.092 17.4879 32.0919 17.3095ZM32.4148 17.5549C32.5503 17.555 32.6601 17.4452 32.6601 17.3099V17.3096C32.6603 17.1741 32.5505 17.0642 32.415 17.0641H32.4148C32.2792 17.0641 32.1693 17.174 32.1693 17.3096C32.1694 17.4451 32.2793 17.5549 32.4148 17.5549ZM32.3711 17.4507H32.305V17.1676H32.4249C32.4498 17.1676 32.4755 17.1681 32.4971 17.1817C32.5203 17.1975 32.5335 17.2245 32.5335 17.2527C32.5335 17.2847 32.5148 17.3147 32.4841 17.3261L32.5365 17.4506H32.463L32.4196 17.3387H32.3711L32.3711 17.4507ZM32.3711 17.2903H32.4075C32.4212 17.2903 32.4361 17.2914 32.4481 17.2847C32.4591 17.2778 32.4646 17.2646 32.4646 17.252C32.4641 17.2403 32.4583 17.2295 32.4486 17.2228C32.4373 17.2163 32.4184 17.2182 32.4061 17.2182H32.3711L32.3711 17.2903Z" fill="white"/>
<defs>
<linearGradient id="paint0_linear_27_59245" x1="158" y1="12.1212" x2="145.166" y2="12.1212" gradientUnits="userSpaceOnUse">
<stop stop-color="#1F5CD7"/>
<stop offset="1" stop-color="#02AEFF"/>
</linearGradient>
</defs>
</svg>
