<svg width="290" height="86" viewBox="0 0 290 86" fill="none" xmlns="http://www.w3.org/2000/svg">
<rect width="290" height="86" rx="10" fill="white"/>
<path d="M20.4932 84.0412C19.7491 84.0412 19.0229 84.0328 18.2846 84.0182C16.7551 84.0007 15.2293 83.8837 13.7195 83.6682C12.3117 83.4552 10.9479 83.0589 9.67308 82.4924C8.40999 81.9306 7.25795 81.194 6.26109 80.3107C5.2498 79.4379 4.40786 78.4255 3.76862 77.3138C3.12234 76.1948 2.67508 74.9954 2.44241 73.7573C2.19115 72.427 2.05521 71.0819 2.03576 69.7335C2.02027 69.2809 2 67.7739 2 67.7739V18.1988C2 18.1988 2.02159 16.715 2.03588 16.2791C2.0545 14.9328 2.18966 13.5898 2.44016 12.2615C2.67326 11.0201 3.12087 9.8172 3.7675 8.69456C4.40438 7.58357 5.24165 6.57046 6.24685 5.69448C7.25092 4.81018 8.40664 4.06975 9.67189 3.5002C10.9437 2.93554 12.305 2.54204 13.7099 2.33288C15.2247 2.11519 16.7558 1.9975 18.2906 1.98079L20.4944 1.95459H271.494L273.724 1.98184C275.245 1.99772 276.762 2.11436 278.263 2.33077C279.682 2.54256 281.057 2.9388 282.344 3.50649C284.878 4.6543 286.941 6.47024 288.242 8.69979C288.878 9.81468 289.319 11.0077 289.549 12.2385C289.803 13.5776 289.945 14.9312 289.974 16.2885C289.981 16.8963 289.981 17.5491 289.981 18.1988C290 19.0036 290 19.7696 290 20.5419V65.4559C290 66.2356 290 66.9964 289.981 67.7634C289.981 68.4613 289.981 69.1006 289.971 69.7586C289.943 71.0916 289.803 72.4211 289.554 73.7363C289.326 74.9833 288.881 76.192 288.235 77.3202C287.591 78.4199 286.754 79.4235 285.754 80.294C284.757 81.182 283.603 81.9229 282.337 82.4883C281.054 83.0592 279.68 83.4569 278.263 83.6682C276.753 83.8849 275.227 84.0019 273.697 84.0182C272.982 84.0328 272.233 84.0412 271.506 84.0412L268.858 84.0455L20.4932 84.0412Z" fill="white"/>
<path d="M68.9479 42.7621C68.9725 40.896 69.4812 39.0663 70.4264 37.4432C71.3717 35.8202 72.7229 34.4565 74.3543 33.4791C73.3179 32.0366 71.9507 30.8496 70.3612 30.0121C68.7717 29.1747 67.0038 28.71 65.1978 28.655C61.3453 28.2609 57.6105 30.9015 55.6473 30.9015C53.6461 30.9015 50.6235 28.6941 47.3687 28.7593C45.2633 28.8256 43.2115 29.4223 41.4132 30.4911C39.6148 31.5599 38.1312 33.0645 37.1069 34.8583C32.6701 42.3446 35.9796 53.3469 40.2298 59.3984C42.3563 62.3615 44.8415 65.6715 48.0934 65.5541C51.2756 65.4255 52.4641 63.5766 56.3053 63.5766C60.1108 63.5766 61.2258 65.5541 64.5437 65.4795C67.9584 65.4255 70.1097 62.5031 72.1616 59.5119C73.6895 57.4005 74.8652 55.067 75.6452 52.5977C73.6614 51.78 71.9684 50.4113 70.7775 48.6623C69.5865 46.9132 68.9502 44.8612 68.9479 42.7621Z" fill="black"/>
<path d="M62.681 24.6752C64.5429 22.4971 65.4601 19.6975 65.238 16.871C62.3936 17.1621 59.7661 18.4869 57.8792 20.5815C56.9566 21.6047 56.25 22.7951 55.7998 24.0847C55.3495 25.3742 55.1645 26.7376 55.2553 28.0968C56.678 28.1111 58.0855 27.8106 59.3718 27.2179C60.658 26.6252 61.7895 25.7558 62.681 24.6752Z" fill="black"/>
<path d="M107.126 58.3505H96.6832L94.1754 65.5669H89.7523L99.6434 38.8682H104.239L114.13 65.5669H109.632L107.126 58.3505ZM97.7647 55.0205H106.042L101.962 43.3089H101.847L97.7647 55.0205Z" fill="black"/>
<path d="M135.492 55.8351C135.492 61.8841 132.169 65.7704 127.156 65.7704C125.886 65.8352 124.623 65.5501 123.511 64.9478C122.4 64.3455 121.485 63.4504 120.871 62.3648H120.777V72.0063H116.677V46.1013H120.645V49.3389H120.721C121.362 48.2586 122.293 47.3681 123.413 46.7621C124.533 46.1562 125.8 45.8574 127.08 45.8976C132.15 45.8977 135.492 49.8029 135.492 55.8351ZM131.277 55.8351C131.277 51.8942 129.188 49.3032 125.999 49.3032C122.866 49.3032 120.759 51.9487 120.759 55.8351C120.759 59.7572 122.866 62.3838 125.999 62.3838C129.188 62.3838 131.277 59.8118 131.277 55.8351H131.277Z" fill="black"/>
<path d="M157.477 55.8351C157.477 61.8841 154.154 65.7704 149.14 65.7704C147.87 65.8352 146.607 65.5501 145.496 64.9478C144.384 64.3455 143.469 63.4504 142.856 62.3648H142.761V72.0063H138.661V46.1013H142.629V49.3389H142.705C143.347 48.2586 144.277 47.3681 145.397 46.7621C146.517 46.1562 147.784 45.8574 149.065 45.8976C154.134 45.8977 157.477 49.8029 157.477 55.8351ZM153.262 55.8351C153.262 51.8942 151.172 49.3032 147.983 49.3032C144.851 49.3032 142.744 51.9487 142.744 55.8351C142.744 59.7572 144.851 62.3838 147.983 62.3838C151.172 62.3838 153.262 59.8118 153.262 55.8351Z" fill="black"/>
<path d="M172.004 58.1278C172.308 60.7754 174.947 62.5138 178.554 62.5138C182.01 62.5138 184.496 60.7753 184.496 58.3881C184.496 56.3157 182.997 55.0749 179.446 54.2245L175.895 53.391C170.865 52.2068 168.529 49.914 168.529 46.1935C168.529 41.587 172.649 38.4229 178.496 38.4229C184.287 38.4229 188.256 41.587 188.389 46.1935H184.25C184.003 43.5291 181.743 41.9208 178.44 41.9208C175.137 41.9208 172.877 43.548 172.877 45.9164C172.877 47.8039 174.32 48.9146 177.852 49.7649L180.87 50.4871C186.491 51.7826 188.824 53.983 188.824 57.8883C188.824 62.8832 184.744 66.0116 178.25 66.0116C172.175 66.0116 168.072 62.9567 167.807 58.1276L172.004 58.1278Z" fill="black"/>
<path d="M197.677 41.4948V46.1013H201.476V49.2654H197.677V59.9965C197.677 61.6636 198.438 62.4405 200.107 62.4405C200.558 62.4328 201.009 62.4019 201.456 62.348V65.4932C200.705 65.6299 199.942 65.6918 199.179 65.678C195.135 65.678 193.558 64.1978 193.558 60.4227V49.2654H190.654V46.1013H193.558V41.4948H197.677Z" fill="black"/>
<path d="M203.673 55.8351C203.673 49.7105 207.374 45.8619 213.146 45.8619C218.937 45.8619 222.622 49.7104 222.622 55.8351C222.622 61.9764 218.957 65.8082 213.146 65.8082C207.338 65.8082 203.673 61.9764 203.673 55.8351ZM218.444 55.8351C218.444 51.6338 216.468 49.1541 213.146 49.1541C209.824 49.1541 207.848 51.6527 207.848 55.8351C207.848 60.0532 209.824 62.5139 213.146 62.5139C216.468 62.5139 218.444 60.0532 218.444 55.8351H218.444Z" fill="black"/>
<path d="M226.002 46.1014H229.912V49.4145H230.007C230.272 48.3797 230.894 47.4653 231.769 46.8248C232.644 46.1844 233.718 45.857 234.812 45.8977C235.284 45.8961 235.755 45.9461 236.216 46.0468V49.7841C235.62 49.6064 234.998 49.5249 234.374 49.5426C233.778 49.5191 233.185 49.6214 232.633 49.8426C232.082 50.0638 231.587 50.3986 231.181 50.8241C230.775 51.2496 230.468 51.7556 230.282 52.3074C230.096 52.8593 230.034 53.4439 230.102 54.0211V65.5668H226.002L226.002 46.1014Z" fill="black"/>
<path d="M255.12 59.8495C254.568 63.3832 251.037 65.8082 246.519 65.8082C240.708 65.8082 237.102 62.0142 237.102 55.9275C237.102 49.8218 240.728 45.8619 246.347 45.8619C251.873 45.8619 255.348 49.5614 255.348 55.4635V56.8324H241.24V57.0738C241.175 57.7902 241.267 58.5119 241.51 59.191C241.753 59.87 242.142 60.4909 242.65 61.0124C243.158 61.5339 243.775 61.944 244.458 62.2156C245.141 62.4871 245.876 62.6139 246.614 62.5874C247.583 62.6759 248.555 62.4572 249.386 61.9639C250.217 61.4706 250.863 60.729 251.226 59.8495L255.12 59.8495ZM241.26 54.0399H251.246C251.283 53.3958 251.182 52.7512 250.951 52.1466C250.72 51.542 250.364 50.9904 249.904 50.5265C249.444 50.0626 248.89 49.6964 248.278 49.4509C247.666 49.2053 247.008 49.0857 246.347 49.0995C245.679 49.0957 245.017 49.2207 244.399 49.4674C243.781 49.7141 243.22 50.0776 242.747 50.5369C242.274 50.9962 241.899 51.5422 241.644 52.1435C241.389 52.7447 241.258 53.3893 241.26 54.0399V54.0399Z" fill="black"/>
<path d="M81.0512 24.195H82.8114C83.1144 24.2318 83.422 24.207 83.7146 24.1222C84.0073 24.0374 84.2788 23.8944 84.512 23.7023C84.7452 23.5101 84.935 23.273 85.0695 23.0059C85.204 22.7387 85.2802 22.4473 85.2934 22.15C85.2934 20.9669 84.3799 20.2026 82.8308 20.2026C82.5204 20.1603 82.2044 20.1791 81.9015 20.2578C81.5986 20.3365 81.315 20.4736 81.0674 20.6609C80.8198 20.8482 80.6132 21.0819 80.4598 21.3483C80.3064 21.6147 80.2093 21.9084 80.1743 22.2119H78.2417C78.275 21.6609 78.4243 21.1224 78.6804 20.63C78.9364 20.1377 79.2937 19.7019 79.7301 19.35C80.1664 18.998 80.6724 18.7374 81.2166 18.5842C81.7608 18.4311 82.3315 18.3888 82.8932 18.4599C85.485 18.4599 87.31 19.874 87.31 21.9096C87.3161 22.5915 87.082 23.2548 86.6467 23.7889C86.2115 24.3229 85.6015 24.6952 84.9185 24.8438V24.995C85.7282 25.03 86.4907 25.3759 87.0393 25.9572C87.588 26.5386 87.8782 27.3079 87.8464 28.0971C87.7865 28.6645 87.611 29.2145 87.3301 29.7149C87.0493 30.2153 86.6687 30.656 86.2108 31.0112C85.7529 31.3665 85.2268 31.629 84.6635 31.7835C84.1001 31.9381 83.5107 31.9814 82.9299 31.9111C82.3479 31.9884 81.7559 31.9507 81.1891 31.8003C80.6224 31.6499 80.0925 31.3898 79.6311 31.0356C79.1696 30.6813 78.7861 30.2402 78.5034 29.7384C78.2207 29.2366 78.0445 28.6845 77.9854 28.115H79.9481C80.0666 29.3422 81.2236 30.1338 82.9299 30.1338C84.6362 30.1338 85.7501 29.2447 85.7501 27.9912C85.7501 26.7199 84.7009 25.9367 82.8674 25.9367H81.0512V24.195Z" fill="black"/>
<path d="M90.0762 28.8626C90.0762 27.1199 91.4098 26.1152 93.7711 25.9724L96.4621 25.8213V24.9856C96.4621 23.9631 95.7705 23.3857 94.4283 23.3857C93.3338 23.3857 92.5776 23.7773 92.3578 24.4618H90.4597C90.6601 22.7989 92.2673 21.7323 94.5209 21.7323C97.0115 21.7323 98.4162 22.9406 98.4162 24.9856V31.6005H96.5267V30.2399H96.3716C96.0567 30.7279 95.6146 31.1258 95.0904 31.3929C94.5661 31.6599 93.9786 31.7866 93.3877 31.76C92.9706 31.8022 92.5491 31.7589 92.1503 31.6327C91.7515 31.5065 91.3843 31.3002 91.0723 31.0272C90.7603 30.7543 90.5105 30.4206 90.3389 30.0478C90.1674 29.6749 90.0779 29.2712 90.0762 28.8626ZM96.4621 28.0353V27.2259L94.0361 27.3771C92.668 27.4663 92.0475 27.9198 92.0475 28.7733C92.0475 29.6446 92.8231 30.1517 93.8896 30.1517C94.2021 30.1825 94.5178 30.1518 94.8179 30.0613C95.1179 29.9708 95.3962 29.8224 95.6363 29.625C95.8763 29.4275 96.0731 29.185 96.2149 28.9119C96.3568 28.6388 96.4409 28.3407 96.4621 28.0353Z" fill="black"/>
<path d="M103.619 23.5273V31.6002H101.659V21.9189H108.2V23.5271L103.619 23.5273Z" fill="black"/>
<path d="M120.082 26.7556C120.082 29.8315 118.485 31.76 115.977 31.76C115.362 31.801 114.747 31.6697 114.205 31.3816C113.664 31.0935 113.218 30.6606 112.92 30.1339H112.765V34.8192H110.804V21.9192H112.692V23.5191H112.838C113.141 22.974 113.593 22.521 114.143 22.2104C114.694 21.8997 115.322 21.7433 115.958 21.7586C118.485 21.7585 120.082 23.6786 120.082 26.7556ZM118.065 26.7556C118.065 24.7106 117.072 23.475 115.411 23.475C113.76 23.475 112.728 24.7368 112.728 26.764C112.728 28.7817 113.76 30.0446 115.402 30.0446C117.072 30.0446 118.065 28.809 118.065 26.7556Z" fill="black"/>
<path d="M122.693 35.0678V33.4227C122.905 33.449 123.119 33.4609 123.333 33.4584C123.75 33.4886 124.165 33.3673 124.496 33.118C124.828 32.8686 125.053 32.5087 125.129 32.1073L125.276 31.6359L121.68 21.9189H123.815L126.306 29.6088H126.461L128.943 21.9189H131.022L127.318 32.0002C126.47 34.356 125.53 35.1119 123.505 35.1119C123.341 35.1118 122.876 35.094 122.693 35.0678Z" fill="black"/>
<path d="M132.549 28.853H134.501C134.693 29.7065 135.514 30.1516 136.662 30.1516C137.968 30.1516 138.769 29.591 138.769 28.7197C138.769 27.7864 138.05 27.3413 136.662 27.3413H135.176V25.8569H136.637C137.821 25.8569 138.425 25.4128 138.425 24.6034C138.425 23.8927 137.841 23.35 136.637 23.35C135.54 23.35 134.738 23.8035 134.611 24.5678H132.722C132.863 23.6896 133.352 22.9005 134.084 22.3702C134.817 21.8399 135.733 21.6109 136.637 21.7322C138.998 21.7322 140.349 22.7726 140.349 24.4082C140.36 24.8636 140.21 25.309 139.924 25.6698C139.639 26.0305 139.235 26.2849 138.78 26.3902V26.5414C139.322 26.6095 139.819 26.8689 140.177 27.2704C140.535 27.672 140.73 28.1877 140.724 28.7197C140.724 30.5601 139.116 31.7778 136.662 31.7778C134.493 31.7777 132.73 30.8088 132.549 28.853Z" fill="black"/>
<path d="M143.547 31.6002V21.9189H145.49V28.5779H145.645L150.224 21.919H152.167V31.6003H150.224V24.9057H150.077L145.49 31.6003L143.547 31.6002Z" fill="black"/>
<path d="M162.872 23.5274H159.744V31.6004H157.781V23.5274H154.653V21.9192H162.872V23.5274Z" fill="black"/>
<path d="M173.434 28.9864C173.167 29.8712 172.589 30.6363 171.802 31.1483C171.015 31.6602 170.068 31.8864 169.127 31.7873C168.472 31.8041 167.822 31.6819 167.221 31.4292C166.62 31.1766 166.082 30.7994 165.646 30.3239C165.209 29.8485 164.884 29.2861 164.692 28.6759C164.501 28.0657 164.448 27.4222 164.538 26.7902C164.451 26.1562 164.504 25.5113 164.695 24.8993C164.886 24.2872 165.21 23.7223 165.644 23.2427C166.078 22.7631 166.613 22.38 167.213 22.1194C167.812 21.8588 168.462 21.7268 169.118 21.7322C171.883 21.7322 173.552 23.5726 173.552 26.6127V27.2794H166.537V27.3865C166.506 27.7419 166.552 28.0996 166.671 28.4368C166.79 28.774 166.981 29.0831 167.23 29.3443C167.479 29.6055 167.782 29.813 168.118 29.9535C168.454 30.094 168.817 30.1643 169.183 30.16C169.652 30.2146 170.126 30.1322 170.547 29.9232C170.967 29.7142 171.315 29.3881 171.544 28.9863L173.434 28.9864ZM166.537 25.8664H171.553C171.578 25.5416 171.532 25.2154 171.42 24.9087C171.308 24.6019 171.131 24.3215 170.901 24.0853C170.671 23.8491 170.393 23.6624 170.084 23.5373C169.776 23.4121 169.444 23.3511 169.11 23.3584C168.771 23.3539 168.434 23.4157 168.12 23.5402C167.805 23.6646 167.52 23.8492 167.28 24.083C167.04 24.3168 166.851 24.5951 166.723 24.9014C166.596 25.2077 166.533 25.5358 166.537 25.8664H166.537Z" fill="black"/>
<path d="M181.746 21.9189H186.225C188.168 21.9189 189.308 22.8785 189.308 24.3807C189.311 24.8574 189.146 25.3206 188.84 25.6929C188.535 26.0651 188.107 26.3238 187.63 26.4257V26.5769C188.21 26.6126 188.754 26.8641 189.149 27.2795C189.544 27.6948 189.761 28.2423 189.754 28.8088C189.754 30.4979 188.45 31.6002 186.27 31.6002H181.746V21.9189ZM183.689 23.3855V25.8924H185.632C186.817 25.8924 187.384 25.4484 187.384 24.6295C187.384 23.8747 186.891 23.3855 185.85 23.3855L183.689 23.3855ZM183.689 27.2971V30.1337H186.014C187.173 30.1337 187.793 29.635 187.793 28.7196C187.793 27.7506 187.091 27.2971 185.768 27.2971L183.689 27.2971Z" fill="black"/>
</svg>
