<svg width="216" height="285" viewBox="0 0 216 285" fill="none" xmlns="http://www.w3.org/2000/svg">
<rect width="216" height="285" rx="10" fill="black"/>
<rect x="2" y="2.00708" width="212" height="212.754" rx="10" fill="white"/>
<path d="M26.2069 19.8904H20V26.0973H26.2069V19.8904Z" fill="black"/>
<path d="M32.4138 19.8904H26.2069V26.0973H32.4138V19.8904Z" fill="black"/>
<path d="M38.6207 19.8904H32.4138V26.0973H38.6207V19.8904Z" fill="black"/>
<path d="M44.8276 19.8904H38.6207V26.0973H44.8276V19.8904Z" fill="black"/>
<path d="M51.0345 19.8904H44.8276V26.0973H51.0345V19.8904Z" fill="black"/>
<path d="M57.2414 19.8904H51.0345V26.0973H57.2414V19.8904Z" fill="black"/>
<path d="M63.4483 19.8904H57.2414V26.0973H63.4483V19.8904Z" fill="black"/>
<path d="M75.8621 19.8904H69.6552V26.0973H75.8621V19.8904Z" fill="black"/>
<path d="M82.069 19.8904H75.8621V26.0973H82.069V19.8904Z" fill="black"/>
<path d="M94.4828 19.8904H88.2759V26.0973H94.4828V19.8904Z" fill="black"/>
<path d="M100.69 19.8904H94.4828V26.0973H100.69V19.8904Z" fill="black"/>
<path d="M119.31 19.8904H113.103V26.0973H119.31V19.8904Z" fill="black"/>
<path d="M137.931 19.8904H131.724V26.0973H137.931V19.8904Z" fill="black"/>
<path d="M150.345 19.8904H144.138V26.0973H150.345V19.8904Z" fill="black"/>
<path d="M162.759 19.8904H156.552V26.0973H162.759V19.8904Z" fill="black"/>
<path d="M168.966 19.8904H162.759V26.0973H168.966V19.8904Z" fill="black"/>
<path d="M175.172 19.8904H168.966V26.0973H175.172V19.8904Z" fill="black"/>
<path d="M181.379 19.8904H175.172V26.0973H181.379V19.8904Z" fill="black"/>
<path d="M187.586 19.8904H181.379V26.0973H187.586V19.8904Z" fill="black"/>
<path d="M193.793 19.8904H187.586V26.0973H193.793V19.8904Z" fill="black"/>
<path d="M200 19.8904H193.793V26.0973H200V19.8904Z" fill="black"/>
<path d="M26.2069 26.0973H20V32.3042H26.2069V26.0973Z" fill="black"/>
<path d="M63.4483 26.0973H57.2414V32.3042H63.4483V26.0973Z" fill="black"/>
<path d="M88.2759 26.0973H82.069V32.3042H88.2759V26.0973Z" fill="black"/>
<path d="M94.4828 26.0973H88.2759V32.3042H94.4828V26.0973Z" fill="black"/>
<path d="M113.103 26.0973H106.897V32.3042H113.103V26.0973Z" fill="black"/>
<path d="M125.517 26.0973H119.31V32.3042H125.517V26.0973Z" fill="black"/>
<path d="M162.759 26.0973H156.552V32.3042H162.759V26.0973Z" fill="black"/>
<path d="M200 26.0973H193.793V32.3042H200V26.0973Z" fill="black"/>
<path d="M26.2069 32.3042H20V38.5111H26.2069V32.3042Z" fill="black"/>
<path d="M38.6207 32.3042H32.4138V38.5111H38.6207V32.3042Z" fill="black"/>
<path d="M44.8276 32.3042H38.6207V38.5111H44.8276V32.3042Z" fill="black"/>
<path d="M51.0345 32.3042H44.8276V38.5111H51.0345V32.3042Z" fill="black"/>
<path d="M63.4483 32.3042H57.2414V38.5111H63.4483V32.3042Z" fill="black"/>
<path d="M82.069 32.3042H75.8621V38.5111H82.069V32.3042Z" fill="black"/>
<path d="M94.4828 32.3042H88.2759V38.5111H94.4828V32.3042Z" fill="black"/>
<path d="M100.69 32.3042H94.4828V38.5111H100.69V32.3042Z" fill="black"/>
<path d="M113.103 32.3042H106.897V38.5111H113.103V32.3042Z" fill="black"/>
<path d="M125.517 32.3042H119.31V38.5111H125.517V32.3042Z" fill="black"/>
<path d="M162.759 32.3042H156.552V38.5111H162.759V32.3042Z" fill="black"/>
<path d="M175.172 32.3042H168.966V38.5111H175.172V32.3042Z" fill="black"/>
<path d="M181.379 32.3042H175.172V38.5111H181.379V32.3042Z" fill="black"/>
<path d="M187.586 32.3042H181.379V38.5111H187.586V32.3042Z" fill="black"/>
<path d="M200 32.3042H193.793V38.5111H200V32.3042Z" fill="black"/>
<path d="M26.2069 38.5111H20V44.718H26.2069V38.5111Z" fill="black"/>
<path d="M38.6207 38.5111H32.4138V44.718H38.6207V38.5111Z" fill="black"/>
<path d="M44.8276 38.5111H38.6207V44.718H44.8276V38.5111Z" fill="black"/>
<path d="M51.0345 38.5111H44.8276V44.718H51.0345V38.5111Z" fill="black"/>
<path d="M63.4483 38.5111H57.2414V44.718H63.4483V38.5111Z" fill="black"/>
<path d="M75.8621 38.5111H69.6552V44.718H75.8621V38.5111Z" fill="black"/>
<path d="M82.069 38.5111H75.8621V44.718H82.069V38.5111Z" fill="black"/>
<path d="M94.4828 38.5111H88.2759V44.718H94.4828V38.5111Z" fill="black"/>
<path d="M100.69 38.5111H94.4828V44.718H100.69V38.5111Z" fill="black"/>
<path d="M106.897 38.5111H100.69V44.718H106.897V38.5111Z" fill="black"/>
<path d="M131.724 38.5111H125.517V44.718H131.724V38.5111Z" fill="black"/>
<path d="M137.931 38.5111H131.724V44.718H137.931V38.5111Z" fill="black"/>
<path d="M162.759 38.5111H156.552V44.718H162.759V38.5111Z" fill="black"/>
<path d="M175.172 38.5111H168.966V44.718H175.172V38.5111Z" fill="black"/>
<path d="M181.379 38.5111H175.172V44.718H181.379V38.5111Z" fill="black"/>
<path d="M187.586 38.5111H181.379V44.718H187.586V38.5111Z" fill="black"/>
<path d="M200 38.5111H193.793V44.718H200V38.5111Z" fill="black"/>
<path d="M26.2069 44.718H20V50.9249H26.2069V44.718Z" fill="black"/>
<path d="M38.6207 44.718H32.4138V50.9249H38.6207V44.718Z" fill="black"/>
<path d="M44.8276 44.718H38.6207V50.9249H44.8276V44.718Z" fill="black"/>
<path d="M51.0345 44.718H44.8276V50.9249H51.0345V44.718Z" fill="black"/>
<path d="M63.4483 44.718H57.2414V50.9249H63.4483V44.718Z" fill="black"/>
<path d="M100.69 44.718H94.4828V50.9249H100.69V44.718Z" fill="black"/>
<path d="M113.103 44.718H106.897V50.9249H113.103V44.718Z" fill="black"/>
<path d="M119.31 44.718H113.103V50.9249H119.31V44.718Z" fill="black"/>
<path d="M125.517 44.718H119.31V50.9249H125.517V44.718Z" fill="black"/>
<path d="M131.724 44.718H125.517V50.9249H131.724V44.718Z" fill="black"/>
<path d="M137.931 44.718H131.724V50.9249H137.931V44.718Z" fill="black"/>
<path d="M144.138 44.718H137.931V50.9249H144.138V44.718Z" fill="black"/>
<path d="M162.759 44.718H156.552V50.9249H162.759V44.718Z" fill="black"/>
<path d="M175.172 44.718H168.966V50.9249H175.172V44.718Z" fill="black"/>
<path d="M181.379 44.718H175.172V50.9249H181.379V44.718Z" fill="black"/>
<path d="M187.586 44.718H181.379V50.9249H187.586V44.718Z" fill="black"/>
<path d="M200 44.718H193.793V50.9249H200V44.718Z" fill="black"/>
<path d="M26.2069 50.9249H20V57.1318H26.2069V50.9249Z" fill="black"/>
<path d="M63.4483 50.9249H57.2414V57.1318H63.4483V50.9249Z" fill="black"/>
<path d="M75.8621 50.9249H69.6552V57.1318H75.8621V50.9249Z" fill="black"/>
<path d="M82.069 50.9249H75.8621V57.1318H82.069V50.9249Z" fill="black"/>
<path d="M88.2759 50.9249H82.069V57.1318H88.2759V50.9249Z" fill="black"/>
<path d="M94.4828 50.9249H88.2759V57.1318H94.4828V50.9249Z" fill="black"/>
<path d="M100.69 50.9249H94.4828V57.1318H100.69V50.9249Z" fill="black"/>
<path d="M106.897 50.9249H100.69V57.1318H106.897V50.9249Z" fill="black"/>
<path d="M113.103 50.9249H106.897V57.1318H113.103V50.9249Z" fill="black"/>
<path d="M125.517 50.9249H119.31V57.1318H125.517V50.9249Z" fill="black"/>
<path d="M137.931 50.9249H131.724V57.1318H137.931V50.9249Z" fill="black"/>
<path d="M150.345 50.9249H144.138V57.1318H150.345V50.9249Z" fill="black"/>
<path d="M162.759 50.9249H156.552V57.1318H162.759V50.9249Z" fill="black"/>
<path d="M200 50.9249H193.793V57.1318H200V50.9249Z" fill="black"/>
<path d="M26.2069 57.1318H20V63.3387H26.2069V57.1318Z" fill="black"/>
<path d="M32.4138 57.1318H26.2069V63.3387H32.4138V57.1318Z" fill="black"/>
<path d="M38.6207 57.1318H32.4138V63.3387H38.6207V57.1318Z" fill="black"/>
<path d="M44.8276 57.1318H38.6207V63.3387H44.8276V57.1318Z" fill="black"/>
<path d="M51.0345 57.1318H44.8276V63.3387H51.0345V57.1318Z" fill="black"/>
<path d="M57.2414 57.1318H51.0345V63.3387H57.2414V57.1318Z" fill="black"/>
<path d="M63.4483 57.1318H57.2414V63.3387H63.4483V57.1318Z" fill="black"/>
<path d="M75.8621 57.1318H69.6552V63.3387H75.8621V57.1318Z" fill="black"/>
<path d="M88.2759 57.1318H82.069V63.3387H88.2759V57.1318Z" fill="black"/>
<path d="M100.69 57.1318H94.4828V63.3387H100.69V57.1318Z" fill="black"/>
<path d="M113.103 57.1318H106.897V63.3387H113.103V57.1318Z" fill="black"/>
<path d="M125.517 57.1318H119.31V63.3387H125.517V57.1318Z" fill="black"/>
<path d="M137.931 57.1318H131.724V63.3387H137.931V57.1318Z" fill="black"/>
<path d="M150.345 57.1318H144.138V63.3387H150.345V57.1318Z" fill="black"/>
<path d="M162.759 57.1318H156.552V63.3387H162.759V57.1318Z" fill="black"/>
<path d="M168.966 57.1318H162.759V63.3387H168.966V57.1318Z" fill="black"/>
<path d="M175.172 57.1318H168.966V63.3387H175.172V57.1318Z" fill="black"/>
<path d="M181.379 57.1318H175.172V63.3387H181.379V57.1318Z" fill="black"/>
<path d="M187.586 57.1318H181.379V63.3387H187.586V57.1318Z" fill="black"/>
<path d="M193.793 57.1318H187.586V63.3387H193.793V57.1318Z" fill="black"/>
<path d="M200 57.1318H193.793V63.3387H200V57.1318Z" fill="black"/>
<path d="M88.2759 63.3387H82.069V69.5456H88.2759V63.3387Z" fill="black"/>
<path d="M119.31 63.3387H113.103V69.5456H119.31V63.3387Z" fill="black"/>
<path d="M125.517 63.3387H119.31V69.5456H125.517V63.3387Z" fill="black"/>
<path d="M131.724 63.3387H125.517V69.5456H131.724V63.3387Z" fill="black"/>
<path d="M150.345 63.3387H144.138V69.5456H150.345V63.3387Z" fill="black"/>
<path d="M57.2414 69.5456H51.0345V75.7525H57.2414V69.5456Z" fill="black"/>
<path d="M63.4483 69.5456H57.2414V75.7525H63.4483V69.5456Z" fill="black"/>
<path d="M75.8621 69.5456H69.6552V75.7525H75.8621V69.5456Z" fill="black"/>
<path d="M82.069 69.5456H75.8621V75.7525H82.069V69.5456Z" fill="black"/>
<path d="M119.31 69.5456H113.103V75.7525H119.31V69.5456Z" fill="black"/>
<path d="M137.931 69.5456H131.724V75.7525H137.931V69.5456Z" fill="black"/>
<path d="M156.552 69.5456H150.345V75.7525H156.552V69.5456Z" fill="black"/>
<path d="M168.966 69.5456H162.759V75.7525H168.966V69.5456Z" fill="black"/>
<path d="M181.379 69.5456H175.172V75.7525H181.379V69.5456Z" fill="black"/>
<path d="M200 69.5456H193.793V75.7525H200V69.5456Z" fill="black"/>
<path d="M26.2069 75.7525H20V81.9594H26.2069V75.7525Z" fill="black"/>
<path d="M44.8276 75.7525H38.6207V81.9594H44.8276V75.7525Z" fill="black"/>
<path d="M51.0345 75.7525H44.8276V81.9594H51.0345V75.7525Z" fill="black"/>
<path d="M75.8621 75.7525H69.6552V81.9594H75.8621V75.7525Z" fill="black"/>
<path d="M82.069 75.7525H75.8621V81.9594H82.069V75.7525Z" fill="black"/>
<path d="M88.2759 75.7525H82.069V81.9594H88.2759V75.7525Z" fill="black"/>
<path d="M100.69 75.7525H94.4828V81.9594H100.69V75.7525Z" fill="black"/>
<path d="M106.897 75.7525H100.69V81.9594H106.897V75.7525Z" fill="black"/>
<path d="M131.724 75.7525H125.517V81.9594H131.724V75.7525Z" fill="black"/>
<path d="M156.552 75.7525H150.345V81.9594H156.552V75.7525Z" fill="black"/>
<path d="M175.172 75.7525H168.966V81.9594H175.172V75.7525Z" fill="black"/>
<path d="M181.379 75.7525H175.172V81.9594H181.379V75.7525Z" fill="black"/>
<path d="M187.586 75.7525H181.379V81.9594H187.586V75.7525Z" fill="black"/>
<path d="M32.4138 81.9594H26.2069V88.1662H32.4138V81.9594Z" fill="black"/>
<path d="M38.6207 81.9594H32.4138V88.1662H38.6207V81.9594Z" fill="black"/>
<path d="M51.0345 81.9594H44.8276V88.1662H51.0345V81.9594Z" fill="black"/>
<path d="M57.2414 81.9594H51.0345V88.1662H57.2414V81.9594Z" fill="black"/>
<path d="M63.4483 81.9594H57.2414V88.1662H63.4483V81.9594Z" fill="black"/>
<path d="M82.069 81.9594H75.8621V88.1662H82.069V81.9594Z" fill="black"/>
<path d="M125.517 81.9594H119.31V88.1662H125.517V81.9594Z" fill="black"/>
<path d="M131.724 81.9594H125.517V88.1662H131.724V81.9594Z" fill="black"/>
<path d="M137.931 81.9594H131.724V88.1662H137.931V81.9594Z" fill="black"/>
<path d="M144.138 81.9594H137.931V88.1662H144.138V81.9594Z" fill="black"/>
<path d="M150.345 81.9594H144.138V88.1662H150.345V81.9594Z" fill="black"/>
<path d="M162.759 81.9594H156.552V88.1662H162.759V81.9594Z" fill="black"/>
<path d="M181.379 81.9594H175.172V88.1662H181.379V81.9594Z" fill="black"/>
<path d="M26.2069 88.1662H20V94.3731H26.2069V88.1662Z" fill="black"/>
<path d="M32.4138 88.1662H26.2069V94.3731H32.4138V88.1662Z" fill="black"/>
<path d="M51.0345 88.1662H44.8276V94.3731H51.0345V88.1662Z" fill="black"/>
<path d="M57.2414 88.1662H51.0345V94.3731H57.2414V88.1662Z" fill="black"/>
<path d="M88.2759 88.1662H82.069V94.3731H88.2759V88.1662Z" fill="black"/>
<path d="M125.517 88.1662H119.31V94.3731H125.517V88.1662Z" fill="black"/>
<path d="M131.724 88.1662H125.517V94.3731H131.724V88.1662Z" fill="black"/>
<path d="M144.138 88.1662H137.931V94.3731H144.138V88.1662Z" fill="black"/>
<path d="M150.345 88.1662H144.138V94.3731H150.345V88.1662Z" fill="black"/>
<path d="M168.966 88.1662H162.759V94.3731H168.966V88.1662Z" fill="black"/>
<path d="M187.586 88.1662H181.379V94.3731H187.586V88.1662Z" fill="black"/>
<path d="M193.793 88.1662H187.586V94.3731H193.793V88.1662Z" fill="black"/>
<path d="M200 88.1662H193.793V94.3731H200V88.1662Z" fill="black"/>
<path d="M26.2069 94.3731H20V100.58H26.2069V94.3731Z" fill="black"/>
<path d="M32.4138 94.3731H26.2069V100.58H32.4138V94.3731Z" fill="black"/>
<path d="M38.6207 94.3731H32.4138V100.58H38.6207V94.3731Z" fill="black"/>
<path d="M51.0345 94.3731H44.8276V100.58H51.0345V94.3731Z" fill="black"/>
<path d="M63.4483 94.3731H57.2414V100.58H63.4483V94.3731Z" fill="black"/>
<path d="M69.6552 94.3731H63.4483V100.58H69.6552V94.3731Z" fill="black"/>
<path d="M82.069 94.3731H75.8621V100.58H82.069V94.3731Z" fill="black"/>
<path d="M94.4828 94.3731H88.2759V100.58H94.4828V94.3731Z" fill="black"/>
<path d="M100.69 94.3731H94.4828V100.58H100.69V94.3731Z" fill="black"/>
<path d="M106.897 94.3731H100.69V100.58H106.897V94.3731Z" fill="black"/>
<path d="M113.103 94.3731H106.897V100.58H113.103V94.3731Z" fill="black"/>
<path d="M119.31 94.3731H113.103V100.58H119.31V94.3731Z" fill="black"/>
<path d="M131.724 94.3731H125.517V100.58H131.724V94.3731Z" fill="black"/>
<path d="M137.931 94.3731H131.724V100.58H137.931V94.3731Z" fill="black"/>
<path d="M162.759 94.3731H156.552V100.58H162.759V94.3731Z" fill="black"/>
<path d="M26.2069 100.58H20V106.787H26.2069V100.58Z" fill="black"/>
<path d="M32.4138 100.58H26.2069V106.787H32.4138V100.58Z" fill="black"/>
<path d="M38.6207 100.58H32.4138V106.787H38.6207V100.58Z" fill="black"/>
<path d="M44.8276 100.58H38.6207V106.787H44.8276V100.58Z" fill="black"/>
<path d="M51.0345 100.58H44.8276V106.787H51.0345V100.58Z" fill="black"/>
<path d="M57.2414 100.58H51.0345V106.787H57.2414V100.58Z" fill="black"/>
<path d="M119.31 100.58H113.103V106.787H119.31V100.58Z" fill="black"/>
<path d="M125.517 100.58H119.31V106.787H125.517V100.58Z" fill="black"/>
<path d="M137.931 100.58H131.724V106.787H137.931V100.58Z" fill="black"/>
<path d="M144.138 100.58H137.931V106.787H144.138V100.58Z" fill="black"/>
<path d="M156.552 100.58H150.345V106.787H156.552V100.58Z" fill="black"/>
<path d="M162.759 100.58H156.552V106.787H162.759V100.58Z" fill="black"/>
<path d="M168.966 100.58H162.759V106.787H168.966V100.58Z" fill="black"/>
<path d="M187.586 100.58H181.379V106.787H187.586V100.58Z" fill="black"/>
<path d="M200 100.58H193.793V106.787H200V100.58Z" fill="black"/>
<path d="M32.4138 106.787H26.2069V112.994H32.4138V106.787Z" fill="black"/>
<path d="M44.8276 106.787H38.6207V112.994H44.8276V106.787Z" fill="black"/>
<path d="M51.0345 106.787H44.8276V112.994H51.0345V106.787Z" fill="black"/>
<path d="M57.2414 106.787H51.0345V112.994H57.2414V106.787Z" fill="black"/>
<path d="M63.4483 106.787H57.2414V112.994H63.4483V106.787Z" fill="black"/>
<path d="M69.6552 106.787H63.4483V112.994H69.6552V106.787Z" fill="black"/>
<path d="M82.069 106.787H75.8621V112.994H82.069V106.787Z" fill="black"/>
<path d="M94.4828 106.787H88.2759V112.994H94.4828V106.787Z" fill="black"/>
<path d="M119.31 106.787H113.103V112.994H119.31V106.787Z" fill="black"/>
<path d="M125.517 106.787H119.31V112.994H125.517V106.787Z" fill="black"/>
<path d="M150.345 106.787H144.138V112.994H150.345V106.787Z" fill="black"/>
<path d="M162.759 106.787H156.552V112.994H162.759V106.787Z" fill="black"/>
<path d="M175.172 106.787H168.966V112.994H175.172V106.787Z" fill="black"/>
<path d="M181.379 106.787H175.172V112.994H181.379V106.787Z" fill="black"/>
<path d="M193.793 106.787H187.586V112.994H193.793V106.787Z" fill="black"/>
<path d="M200 106.787H193.793V112.994H200V106.787Z" fill="black"/>
<path d="M32.4138 112.994H26.2069V119.201H32.4138V112.994Z" fill="black"/>
<path d="M44.8276 112.994H38.6207V119.201H44.8276V112.994Z" fill="black"/>
<path d="M75.8621 112.994H69.6552V119.201H75.8621V112.994Z" fill="black"/>
<path d="M82.069 112.994H75.8621V119.201H82.069V112.994Z" fill="black"/>
<path d="M94.4828 112.994H88.2759V119.201H94.4828V112.994Z" fill="black"/>
<path d="M106.897 112.994H100.69V119.201H106.897V112.994Z" fill="black"/>
<path d="M113.103 112.994H106.897V119.201H113.103V112.994Z" fill="black"/>
<path d="M125.517 112.994H119.31V119.201H125.517V112.994Z" fill="black"/>
<path d="M131.724 112.994H125.517V119.201H131.724V112.994Z" fill="black"/>
<path d="M144.138 112.994H137.931V119.201H144.138V112.994Z" fill="black"/>
<path d="M156.552 112.994H150.345V119.201H156.552V112.994Z" fill="black"/>
<path d="M162.759 112.994H156.552V119.201H162.759V112.994Z" fill="black"/>
<path d="M175.172 112.994H168.966V119.201H175.172V112.994Z" fill="black"/>
<path d="M181.379 112.994H175.172V119.201H181.379V112.994Z" fill="black"/>
<path d="M193.793 112.994H187.586V119.201H193.793V112.994Z" fill="black"/>
<path d="M26.2069 119.201H20V125.408H26.2069V119.201Z" fill="black"/>
<path d="M38.6207 119.201H32.4138V125.408H38.6207V119.201Z" fill="black"/>
<path d="M51.0345 119.201H44.8276V125.408H51.0345V119.201Z" fill="black"/>
<path d="M63.4483 119.201H57.2414V125.408H63.4483V119.201Z" fill="black"/>
<path d="M88.2759 119.201H82.069V125.408H88.2759V119.201Z" fill="black"/>
<path d="M100.69 119.201H94.4828V125.408H100.69V119.201Z" fill="black"/>
<path d="M113.103 119.201H106.897V125.408H113.103V119.201Z" fill="black"/>
<path d="M119.31 119.201H113.103V125.408H119.31V119.201Z" fill="black"/>
<path d="M125.517 119.201H119.31V125.408H125.517V119.201Z" fill="black"/>
<path d="M144.138 119.201H137.931V125.408H144.138V119.201Z" fill="black"/>
<path d="M150.345 119.201H144.138V125.408H150.345V119.201Z" fill="black"/>
<path d="M156.552 119.201H150.345V125.408H156.552V119.201Z" fill="black"/>
<path d="M168.966 119.201H162.759V125.408H168.966V119.201Z" fill="black"/>
<path d="M181.379 119.201H175.172V125.408H181.379V119.201Z" fill="black"/>
<path d="M38.6207 125.408H32.4138V131.615H38.6207V125.408Z" fill="black"/>
<path d="M51.0345 125.408H44.8276V131.615H51.0345V125.408Z" fill="black"/>
<path d="M57.2414 125.408H51.0345V131.615H57.2414V125.408Z" fill="black"/>
<path d="M69.6552 125.408H63.4483V131.615H69.6552V125.408Z" fill="black"/>
<path d="M100.69 125.408H94.4828V131.615H100.69V125.408Z" fill="black"/>
<path d="M106.897 125.408H100.69V131.615H106.897V125.408Z" fill="black"/>
<path d="M113.103 125.408H106.897V131.615H113.103V125.408Z" fill="black"/>
<path d="M119.31 125.408H113.103V131.615H119.31V125.408Z" fill="black"/>
<path d="M131.724 125.408H125.517V131.615H131.724V125.408Z" fill="black"/>
<path d="M137.931 125.408H131.724V131.615H137.931V125.408Z" fill="black"/>
<path d="M150.345 125.408H144.138V131.615H150.345V125.408Z" fill="black"/>
<path d="M156.552 125.408H150.345V131.615H156.552V125.408Z" fill="black"/>
<path d="M38.6207 131.615H32.4138V137.821H38.6207V131.615Z" fill="black"/>
<path d="M44.8276 131.615H38.6207V137.821H44.8276V131.615Z" fill="black"/>
<path d="M51.0345 131.615H44.8276V137.821H51.0345V131.615Z" fill="black"/>
<path d="M57.2414 131.615H51.0345V137.821H57.2414V131.615Z" fill="black"/>
<path d="M63.4483 131.615H57.2414V137.821H63.4483V131.615Z" fill="black"/>
<path d="M69.6552 131.615H63.4483V137.821H69.6552V131.615Z" fill="black"/>
<path d="M88.2759 131.615H82.069V137.821H88.2759V131.615Z" fill="black"/>
<path d="M94.4828 131.615H88.2759V137.821H94.4828V131.615Z" fill="black"/>
<path d="M125.517 131.615H119.31V137.821H125.517V131.615Z" fill="black"/>
<path d="M162.759 131.615H156.552V137.821H162.759V131.615Z" fill="black"/>
<path d="M168.966 131.615H162.759V137.821H168.966V131.615Z" fill="black"/>
<path d="M175.172 131.615H168.966V137.821H175.172V131.615Z" fill="black"/>
<path d="M181.379 131.615H175.172V137.821H181.379V131.615Z" fill="black"/>
<path d="M26.2069 137.821H20V144.028H26.2069V137.821Z" fill="black"/>
<path d="M44.8276 137.821H38.6207V144.028H44.8276V137.821Z" fill="black"/>
<path d="M57.2414 137.821H51.0345V144.028H57.2414V137.821Z" fill="black"/>
<path d="M69.6552 137.821H63.4483V144.028H69.6552V137.821Z" fill="black"/>
<path d="M75.8621 137.821H69.6552V144.028H75.8621V137.821Z" fill="black"/>
<path d="M88.2759 137.821H82.069V144.028H88.2759V137.821Z" fill="black"/>
<path d="M94.4828 137.821H88.2759V144.028H94.4828V137.821Z" fill="black"/>
<path d="M106.897 137.821H100.69V144.028H106.897V137.821Z" fill="black"/>
<path d="M38.6207 144.028H32.4138V150.235H38.6207V144.028Z" fill="black"/>
<path d="M57.2414 144.028H51.0345V150.235H57.2414V144.028Z" fill="black"/>
<path d="M63.4483 144.028H57.2414V150.235H63.4483V144.028Z" fill="black"/>
<path d="M69.6552 144.028H63.4483V150.235H69.6552V144.028Z" fill="black"/>
<path d="M82.069 144.028H75.8621V150.235H82.069V144.028Z" fill="black"/>
<path d="M94.4828 144.028H88.2759V150.235H94.4828V144.028Z" fill="black"/>
<path d="M100.69 144.028H94.4828V150.235H100.69V144.028Z" fill="black"/>
<path d="M106.897 144.028H100.69V150.235H106.897V144.028Z" fill="black"/>
<path d="M113.103 144.028H106.897V150.235H113.103V144.028Z" fill="black"/>
<path d="M119.31 144.028H113.103V150.235H119.31V144.028Z" fill="black"/>
<path d="M125.517 144.028H119.31V150.235H125.517V144.028Z" fill="black"/>
<path d="M131.724 144.028H125.517V150.235H131.724V144.028Z" fill="black"/>
<path d="M144.138 144.028H137.931V150.235H144.138V144.028Z" fill="black"/>
<path d="M150.345 144.028H144.138V150.235H150.345V144.028Z" fill="black"/>
<path d="M156.552 144.028H150.345V150.235H156.552V144.028Z" fill="black"/>
<path d="M162.759 144.028H156.552V150.235H162.759V144.028Z" fill="black"/>
<path d="M168.966 144.028H162.759V150.235H168.966V144.028Z" fill="black"/>
<path d="M175.172 144.028H168.966V150.235H175.172V144.028Z" fill="black"/>
<path d="M181.379 144.028H175.172V150.235H181.379V144.028Z" fill="black"/>
<path d="M193.793 144.028H187.586V150.235H193.793V144.028Z" fill="black"/>
<path d="M200 144.028H193.793V150.235H200V144.028Z" fill="black"/>
<path d="M75.8621 150.235H69.6552V156.442H75.8621V150.235Z" fill="black"/>
<path d="M82.069 150.235H75.8621V156.442H82.069V150.235Z" fill="black"/>
<path d="M100.69 150.235H94.4828V156.442H100.69V150.235Z" fill="black"/>
<path d="M106.897 150.235H100.69V156.442H106.897V150.235Z" fill="black"/>
<path d="M125.517 150.235H119.31V156.442H125.517V150.235Z" fill="black"/>
<path d="M131.724 150.235H125.517V156.442H131.724V150.235Z" fill="black"/>
<path d="M150.345 150.235H144.138V156.442H150.345V150.235Z" fill="black"/>
<path d="M175.172 150.235H168.966V156.442H175.172V150.235Z" fill="black"/>
<path d="M181.379 150.235H175.172V156.442H181.379V150.235Z" fill="black"/>
<path d="M26.2069 156.442H20V162.649H26.2069V156.442Z" fill="black"/>
<path d="M32.4138 156.442H26.2069V162.649H32.4138V156.442Z" fill="black"/>
<path d="M38.6207 156.442H32.4138V162.649H38.6207V156.442Z" fill="black"/>
<path d="M44.8276 156.442H38.6207V162.649H44.8276V156.442Z" fill="black"/>
<path d="M51.0345 156.442H44.8276V162.649H51.0345V156.442Z" fill="black"/>
<path d="M57.2414 156.442H51.0345V162.649H57.2414V156.442Z" fill="black"/>
<path d="M63.4483 156.442H57.2414V162.649H63.4483V156.442Z" fill="black"/>
<path d="M82.069 156.442H75.8621V162.649H82.069V156.442Z" fill="black"/>
<path d="M94.4828 156.442H88.2759V162.649H94.4828V156.442Z" fill="black"/>
<path d="M100.69 156.442H94.4828V162.649H100.69V156.442Z" fill="black"/>
<path d="M113.103 156.442H106.897V162.649H113.103V156.442Z" fill="black"/>
<path d="M119.31 156.442H113.103V162.649H119.31V156.442Z" fill="black"/>
<path d="M131.724 156.442H125.517V162.649H131.724V156.442Z" fill="black"/>
<path d="M144.138 156.442H137.931V162.649H144.138V156.442Z" fill="black"/>
<path d="M150.345 156.442H144.138V162.649H150.345V156.442Z" fill="black"/>
<path d="M162.759 156.442H156.552V162.649H162.759V156.442Z" fill="black"/>
<path d="M175.172 156.442H168.966V162.649H175.172V156.442Z" fill="black"/>
<path d="M181.379 156.442H175.172V162.649H181.379V156.442Z" fill="black"/>
<path d="M193.793 156.442H187.586V162.649H193.793V156.442Z" fill="black"/>
<path d="M200 156.442H193.793V162.649H200V156.442Z" fill="black"/>
<path d="M26.2069 162.649H20V168.856H26.2069V162.649Z" fill="black"/>
<path d="M63.4483 162.649H57.2414V168.856H63.4483V162.649Z" fill="black"/>
<path d="M75.8621 162.649H69.6552V168.856H75.8621V162.649Z" fill="black"/>
<path d="M88.2759 162.649H82.069V168.856H88.2759V162.649Z" fill="black"/>
<path d="M113.103 162.649H106.897V168.856H113.103V162.649Z" fill="black"/>
<path d="M125.517 162.649H119.31V168.856H125.517V162.649Z" fill="black"/>
<path d="M131.724 162.649H125.517V168.856H131.724V162.649Z" fill="black"/>
<path d="M137.931 162.649H131.724V168.856H137.931V162.649Z" fill="black"/>
<path d="M144.138 162.649H137.931V168.856H144.138V162.649Z" fill="black"/>
<path d="M150.345 162.649H144.138V168.856H150.345V162.649Z" fill="black"/>
<path d="M175.172 162.649H168.966V168.856H175.172V162.649Z" fill="black"/>
<path d="M181.379 162.649H175.172V168.856H181.379V162.649Z" fill="black"/>
<path d="M193.793 162.649H187.586V168.856H193.793V162.649Z" fill="black"/>
<path d="M200 162.649H193.793V168.856H200V162.649Z" fill="black"/>
<path d="M26.2069 168.856H20V175.063H26.2069V168.856Z" fill="black"/>
<path d="M38.6207 168.856H32.4138V175.063H38.6207V168.856Z" fill="black"/>
<path d="M44.8276 168.856H38.6207V175.063H44.8276V168.856Z" fill="black"/>
<path d="M51.0345 168.856H44.8276V175.063H51.0345V168.856Z" fill="black"/>
<path d="M63.4483 168.856H57.2414V175.063H63.4483V168.856Z" fill="black"/>
<path d="M88.2759 168.856H82.069V175.063H88.2759V168.856Z" fill="black"/>
<path d="M113.103 168.856H106.897V175.063H113.103V168.856Z" fill="black"/>
<path d="M137.931 168.856H131.724V175.063H137.931V168.856Z" fill="black"/>
<path d="M144.138 168.856H137.931V175.063H144.138V168.856Z" fill="black"/>
<path d="M150.345 168.856H144.138V175.063H150.345V168.856Z" fill="black"/>
<path d="M156.552 168.856H150.345V175.063H156.552V168.856Z" fill="black"/>
<path d="M162.759 168.856H156.552V175.063H162.759V168.856Z" fill="black"/>
<path d="M168.966 168.856H162.759V175.063H168.966V168.856Z" fill="black"/>
<path d="M175.172 168.856H168.966V175.063H175.172V168.856Z" fill="black"/>
<path d="M181.379 168.856H175.172V175.063H181.379V168.856Z" fill="black"/>
<path d="M187.586 168.856H181.379V175.063H187.586V168.856Z" fill="black"/>
<path d="M193.793 168.856H187.586V175.063H193.793V168.856Z" fill="black"/>
<path d="M200 168.856H193.793V175.063H200V168.856Z" fill="black"/>
<path d="M26.2069 175.063H20V181.27H26.2069V175.063Z" fill="black"/>
<path d="M38.6207 175.063H32.4138V181.27H38.6207V175.063Z" fill="black"/>
<path d="M44.8276 175.063H38.6207V181.27H44.8276V175.063Z" fill="black"/>
<path d="M51.0345 175.063H44.8276V181.27H51.0345V175.063Z" fill="black"/>
<path d="M63.4483 175.063H57.2414V181.27H63.4483V175.063Z" fill="black"/>
<path d="M82.069 175.063H75.8621V181.27H82.069V175.063Z" fill="black"/>
<path d="M88.2759 175.063H82.069V181.27H88.2759V175.063Z" fill="black"/>
<path d="M100.69 175.063H94.4828V181.27H100.69V175.063Z" fill="black"/>
<path d="M113.103 175.063H106.897V181.27H113.103V175.063Z" fill="black"/>
<path d="M119.31 175.063H113.103V181.27H119.31V175.063Z" fill="black"/>
<path d="M131.724 175.063H125.517V181.27H131.724V175.063Z" fill="black"/>
<path d="M168.966 175.063H162.759V181.27H168.966V175.063Z" fill="black"/>
<path d="M181.379 175.063H175.172V181.27H181.379V175.063Z" fill="black"/>
<path d="M187.586 175.063H181.379V181.27H187.586V175.063Z" fill="black"/>
<path d="M26.2069 181.27H20V187.477H26.2069V181.27Z" fill="black"/>
<path d="M38.6207 181.27H32.4138V187.477H38.6207V181.27Z" fill="black"/>
<path d="M44.8276 181.27H38.6207V187.477H44.8276V181.27Z" fill="black"/>
<path d="M51.0345 181.27H44.8276V187.477H51.0345V181.27Z" fill="black"/>
<path d="M63.4483 181.27H57.2414V187.477H63.4483V181.27Z" fill="black"/>
<path d="M88.2759 181.27H82.069V187.477H88.2759V181.27Z" fill="black"/>
<path d="M94.4828 181.27H88.2759V187.477H94.4828V181.27Z" fill="black"/>
<path d="M113.103 181.27H106.897V187.477H113.103V181.27Z" fill="black"/>
<path d="M150.345 181.27H144.138V187.477H150.345V181.27Z" fill="black"/>
<path d="M156.552 181.27H150.345V187.477H156.552V181.27Z" fill="black"/>
<path d="M168.966 181.27H162.759V187.477H168.966V181.27Z" fill="black"/>
<path d="M181.379 181.27H175.172V187.477H181.379V181.27Z" fill="black"/>
<path d="M187.586 181.27H181.379V187.477H187.586V181.27Z" fill="black"/>
<path d="M26.2069 187.477H20V193.683H26.2069V187.477Z" fill="black"/>
<path d="M63.4483 187.477H57.2414V193.683H63.4483V187.477Z" fill="black"/>
<path d="M88.2759 187.477H82.069V193.683H88.2759V187.477Z" fill="black"/>
<path d="M94.4828 187.477H88.2759V193.683H94.4828V187.477Z" fill="black"/>
<path d="M100.69 187.477H94.4828V193.683H100.69V187.477Z" fill="black"/>
<path d="M113.103 187.477H106.897V193.683H113.103V187.477Z" fill="black"/>
<path d="M119.31 187.477H113.103V193.683H119.31V187.477Z" fill="black"/>
<path d="M125.517 187.477H119.31V193.683H125.517V187.477Z" fill="black"/>
<path d="M137.931 187.477H131.724V193.683H137.931V187.477Z" fill="black"/>
<path d="M144.138 187.477H137.931V193.683H144.138V187.477Z" fill="black"/>
<path d="M156.552 187.477H150.345V193.683H156.552V187.477Z" fill="black"/>
<path d="M162.759 187.477H156.552V193.683H162.759V187.477Z" fill="black"/>
<path d="M168.966 187.477H162.759V193.683H168.966V187.477Z" fill="black"/>
<path d="M193.793 187.477H187.586V193.683H193.793V187.477Z" fill="black"/>
<path d="M200 187.477H193.793V193.683H200V187.477Z" fill="black"/>
<path d="M26.2069 193.683H20V199.89H26.2069V193.683Z" fill="black"/>
<path d="M32.4138 193.683H26.2069V199.89H32.4138V193.683Z" fill="black"/>
<path d="M38.6207 193.683H32.4138V199.89H38.6207V193.683Z" fill="black"/>
<path d="M44.8276 193.683H38.6207V199.89H44.8276V193.683Z" fill="black"/>
<path d="M51.0345 193.683H44.8276V199.89H51.0345V193.683Z" fill="black"/>
<path d="M57.2414 193.683H51.0345V199.89H57.2414V193.683Z" fill="black"/>
<path d="M63.4483 193.683H57.2414V199.89H63.4483V193.683Z" fill="black"/>
<path d="M82.069 193.683H75.8621V199.89H82.069V193.683Z" fill="black"/>
<path d="M100.69 193.683H94.4828V199.89H100.69V193.683Z" fill="black"/>
<path d="M113.103 193.683H106.897V199.89H113.103V193.683Z" fill="black"/>
<path d="M131.724 193.683H125.517V199.89H131.724V193.683Z" fill="black"/>
<path d="M137.931 193.683H131.724V199.89H137.931V193.683Z" fill="black"/>
<path d="M144.138 193.683H137.931V199.89H144.138V193.683Z" fill="black"/>
<path d="M156.552 193.683H150.345V199.89H156.552V193.683Z" fill="black"/>
<path d="M168.966 193.683H162.759V199.89H168.966V193.683Z" fill="black"/>
<path d="M181.379 193.683H175.172V199.89H181.379V193.683Z" fill="black"/>
<path d="M187.586 193.683H181.379V199.89H187.586V193.683Z" fill="black"/>
<g clip-path="url(#clip0_27_7871)">
<path d="M206.074 218H7.92593C3.54856 218 0 221.526 0 225.875V273.125C0 277.474 3.54856 281 7.92593 281H206.074C210.451 281 214 277.474 214 273.125V225.875C214 221.526 210.451 218 206.074 218Z" fill="black"/>
<path d="M108.014 252.256C106.679 252.259 105.374 252.656 104.265 253.396C103.157 254.136 102.294 255.186 101.785 256.413C101.277 257.64 101.147 258.989 101.41 260.29C101.674 261.591 102.32 262.785 103.266 263.721C104.213 264.657 105.418 265.294 106.728 265.549C108.039 265.805 109.396 265.669 110.629 265.159C111.862 264.648 112.914 263.785 113.654 262.68C114.393 261.575 114.786 260.277 114.783 258.95C114.796 258.065 114.63 257.186 114.294 256.366C113.958 255.546 113.459 254.802 112.827 254.177C112.196 253.552 111.444 253.061 110.617 252.731C109.79 252.401 108.905 252.239 108.014 252.256ZM108.014 263.014C107.196 263.07 106.379 262.881 105.67 262.471C104.961 262.06 104.392 261.447 104.039 260.712C103.685 259.976 103.562 259.151 103.686 258.346C103.81 257.54 104.176 256.789 104.735 256.192C105.293 255.595 106.02 255.179 106.82 254.998C107.62 254.817 108.457 254.879 109.221 255.177C109.985 255.474 110.641 255.993 111.105 256.666C111.568 257.339 111.817 258.135 111.819 258.95C111.844 259.467 111.765 259.983 111.587 260.469C111.408 260.955 111.134 261.4 110.779 261.779C110.425 262.158 109.997 262.462 109.522 262.674C109.048 262.886 108.535 263.002 108.014 263.014ZM93.2404 252.256C91.9048 252.259 90.6002 252.656 89.4914 253.396C88.3826 254.136 87.5196 255.186 87.0114 256.413C86.5032 257.64 86.3726 258.989 86.6363 260.29C86.8999 261.591 87.5459 262.785 88.4925 263.721C89.4391 264.657 90.6439 265.294 91.9544 265.549C93.265 265.805 94.6224 265.669 95.8551 265.159C97.0879 264.648 98.1405 263.785 98.8799 262.68C99.6193 261.575 100.012 260.277 100.009 258.95C100.022 258.065 99.8556 257.186 99.5196 256.366C99.1836 255.546 98.685 254.802 98.0534 254.177C97.4219 253.552 96.6703 253.061 95.8434 252.731C95.0166 252.401 94.1313 252.239 93.2404 252.256ZM93.2404 263.014C92.4218 263.07 91.6049 262.881 90.8959 262.471C90.1869 262.06 89.6185 261.447 89.2648 260.712C88.9111 259.976 88.7883 259.151 88.9123 258.346C89.0364 257.54 89.4017 256.789 89.9606 256.192C90.5196 255.595 91.2463 255.179 92.0464 254.998C92.8465 254.817 93.683 254.879 94.447 255.177C95.2111 255.474 95.8675 255.993 96.3308 256.666C96.794 257.339 97.0429 258.135 97.0449 258.95C97.0704 259.467 96.9916 259.983 96.813 260.469C96.6344 260.955 96.3598 261.4 96.0052 261.779C95.6506 262.158 95.2233 262.462 94.7485 262.674C94.2736 262.886 93.7609 263.002 93.2404 263.014ZM75.6766 254.32V257.155H82.5246C82.4172 258.49 81.8585 259.75 80.9394 260.73C80.2524 261.425 79.4262 261.97 78.5142 262.328C77.6022 262.686 76.6247 262.85 75.6449 262.809C73.6269 262.809 71.6915 262.012 70.2646 260.595C68.8376 259.177 68.036 257.254 68.036 255.249C68.036 253.244 68.8376 251.321 70.2646 249.903C71.6915 248.485 73.6269 247.689 75.6449 247.689C77.5795 247.66 79.4476 248.39 80.8443 249.721L82.8575 247.72C81.9127 246.792 80.7909 246.06 79.5578 245.568C78.3248 245.076 77.0053 244.833 75.6766 244.854C74.2673 244.799 72.8615 245.028 71.5434 245.526C70.2253 246.025 69.0219 246.782 68.0055 247.753C66.989 248.725 66.1804 249.89 65.6281 251.179C65.0757 252.469 64.791 253.855 64.791 255.257C64.791 256.658 65.0757 258.045 65.6281 259.334C66.1804 260.623 66.989 261.789 68.0055 262.76C69.0219 263.731 70.2253 264.489 71.5434 264.987C72.8615 265.485 74.2673 265.714 75.6766 265.66C77.0326 265.713 78.3847 265.482 79.6441 264.979C80.9036 264.477 82.0419 263.716 82.9843 262.746C84.6489 260.929 85.5359 258.539 85.4572 256.084C85.4628 255.493 85.4151 254.902 85.3145 254.32H75.6766ZM147.501 256.525C147.088 255.316 146.315 254.261 145.284 253.499C144.254 252.737 143.015 252.303 141.731 252.256C140.864 252.255 140.006 252.43 139.21 252.771C138.413 253.112 137.696 253.611 137.102 254.239C136.507 254.866 136.049 255.608 135.754 256.418C135.46 257.228 135.336 258.09 135.391 258.95C135.377 260.388 135.832 261.791 136.687 262.951C137.543 264.111 138.753 264.964 140.137 265.384C141.521 265.804 143.005 265.768 144.366 265.281C145.728 264.794 146.894 263.883 147.692 262.683L145.393 261.108C145.05 261.675 144.564 262.144 143.983 262.467C143.402 262.79 142.746 262.957 142.08 262.951C141.393 262.979 140.713 262.8 140.131 262.437C139.548 262.075 139.089 261.545 138.814 260.919L147.834 257.218L147.501 256.525ZM138.307 258.761C138.275 258.272 138.342 257.781 138.503 257.318C138.664 256.854 138.916 256.428 139.246 256.062C139.575 255.697 139.974 255.401 140.42 255.191C140.866 254.981 141.349 254.861 141.842 254.839C142.353 254.808 142.862 254.928 143.304 255.183C143.747 255.438 144.104 255.817 144.331 256.273L138.307 258.761ZM130.984 265.25H133.948V245.563H130.984V265.25ZM126.133 253.753H126.022C125.579 253.252 125.033 252.851 124.42 252.58C123.807 252.308 123.142 252.171 122.471 252.178C120.739 252.261 119.105 253.004 117.909 254.251C116.713 255.499 116.045 257.156 116.045 258.879C116.045 260.602 116.713 262.26 117.909 263.507C119.105 264.755 120.739 265.497 122.471 265.581C123.143 265.594 123.81 265.46 124.424 265.188C125.038 264.915 125.583 264.512 126.022 264.006H126.133V264.967C126.133 267.534 124.754 268.904 122.535 268.904C121.793 268.888 121.074 268.653 120.467 268.23C119.86 267.806 119.393 267.213 119.126 266.526L116.558 267.581C117.033 268.766 117.859 269.78 118.926 270.488C119.993 271.197 121.251 271.567 122.535 271.55C126.006 271.55 128.875 269.518 128.875 264.573V252.65H126.133V253.753ZM122.725 263.014C121.686 262.949 120.711 262.494 119.999 261.74C119.286 260.987 118.89 259.992 118.89 258.958C118.89 257.924 119.286 256.929 119.999 256.175C120.711 255.422 121.686 254.967 122.725 254.902C123.232 254.924 123.731 255.047 124.189 255.264C124.648 255.481 125.058 255.787 125.396 256.165C125.733 256.543 125.99 256.984 126.152 257.462C126.314 257.941 126.378 258.447 126.339 258.95C126.382 259.455 126.322 259.964 126.162 260.445C126.002 260.926 125.745 261.37 125.407 261.75C125.069 262.13 124.657 262.438 124.196 262.655C123.735 262.872 123.235 262.994 122.725 263.014ZM161.388 245.563H154.286V265.25H157.25V257.785H161.388C162.232 257.845 163.081 257.732 163.879 257.452C164.678 257.172 165.411 256.732 166.031 256.158C166.651 255.585 167.145 254.891 167.483 254.119C167.821 253.348 167.996 252.515 167.996 251.674C167.996 250.832 167.821 249.999 167.483 249.228C167.145 248.456 166.651 247.762 166.031 247.189C165.411 246.615 164.678 246.175 163.879 245.895C163.081 245.616 162.232 245.502 161.388 245.563ZM161.388 255.013H157.25V248.303H161.451C161.896 248.303 162.338 248.39 162.749 248.56C163.161 248.729 163.535 248.977 163.85 249.29C164.165 249.603 164.415 249.975 164.585 250.384C164.755 250.793 164.843 251.231 164.843 251.674C164.843 252.116 164.755 252.554 164.585 252.963C164.415 253.372 164.165 253.744 163.85 254.057C163.535 254.37 163.161 254.618 162.749 254.788C162.338 254.957 161.896 255.044 161.451 255.044L161.388 255.013ZM179.681 252.193C178.601 252.127 177.526 252.377 176.588 252.912C175.649 253.446 174.889 254.242 174.402 255.202L177.017 256.288C177.282 255.815 177.678 255.428 178.159 255.173C178.64 254.919 179.185 254.808 179.728 254.855C180.104 254.811 180.486 254.843 180.85 254.947C181.214 255.051 181.553 255.227 181.848 255.463C182.143 255.699 182.388 255.991 182.569 256.322C182.749 256.653 182.861 257.016 182.898 257.391V257.58C181.945 257.082 180.884 256.823 179.807 256.824C176.986 256.824 174.101 258.399 174.101 261.265C174.129 261.875 174.279 262.472 174.544 263.022C174.809 263.573 175.183 264.064 175.643 264.468C176.102 264.872 176.639 265.18 177.221 265.374C177.803 265.568 178.419 265.644 179.031 265.597C179.775 265.637 180.516 265.481 181.179 265.143C181.842 264.806 182.403 264.299 182.803 263.675H182.898V265.25H185.752V257.674C185.752 254.225 183.12 252.225 179.744 252.225L179.681 252.193ZM179.316 262.982C178.349 262.982 177.002 262.494 177.002 261.313C177.002 259.738 178.682 259.202 180.172 259.202C181.114 259.179 182.044 259.407 182.867 259.864C182.767 260.719 182.359 261.509 181.718 262.089C181.077 262.668 180.246 262.996 179.379 263.014L179.316 262.982ZM196.151 252.65L192.758 261.187H192.663L189.144 252.65H185.974L191.252 264.589L188.241 271.219H191.332L199.448 252.65H196.151ZM169.52 265.25H172.468V245.563H169.52V265.25Z" fill="white"/>
<path d="M16.5492 229.876C16.0269 230.489 15.7603 231.278 15.8042 232.081V266.92C15.7502 267.723 16.018 268.516 16.5492 269.125L16.6602 269.251L36.3006 249.736V249.264L16.6602 229.765L16.5492 229.876Z" fill="url(#paint0_linear_27_7871)"/>
<path d="M42.8003 256.241L36.301 249.736V249.264L42.8003 242.759L42.9429 242.854L50.7262 247.232C52.9455 248.476 52.9455 250.524 50.7262 251.784L42.9747 256.162L42.8003 256.241Z" fill="url(#paint1_linear_27_7871)"/>
<path d="M42.9904 256.147L36.301 249.5L16.5496 269.125C16.9975 269.521 17.5708 269.749 18.1702 269.769C18.7695 269.789 19.357 269.6 19.8309 269.235L42.9904 256.147Z" fill="url(#paint2_linear_27_7871)"/>
<path d="M42.9904 242.854L19.8309 229.781C19.3601 229.411 18.7731 229.217 18.1729 229.235C17.5728 229.252 16.9979 229.479 16.5496 229.876L36.301 249.5L42.9904 242.854Z" fill="url(#paint3_linear_27_7871)"/>
<path opacity="0.2" d="M42.8002 256.005L19.8309 268.999C19.3743 269.341 18.8178 269.526 18.2457 269.526C17.6736 269.526 17.1171 269.341 16.6605 268.999L16.5496 269.109L16.6605 269.235C17.1171 269.577 17.6736 269.762 18.2457 269.762C18.8178 269.762 19.3743 269.577 19.8309 269.235L42.9904 256.147L42.8002 256.005Z" fill="black"/>
<path opacity="0.12" d="M16.5491 268.904C16.0399 268.279 15.7904 267.485 15.8516 266.683V266.919C15.7977 267.723 16.0655 268.516 16.5967 269.124L16.7076 269.014L16.5491 268.904Z" fill="black"/>
<path opacity="0.12" d="M50.7257 251.547L42.7998 256.005L42.9425 256.147L50.7257 251.768C51.1852 251.575 51.5837 251.262 51.8794 250.863C52.1751 250.464 52.3571 249.993 52.406 249.5C52.3069 249.948 52.1032 250.367 51.8114 250.723C51.5195 251.078 51.1476 251.361 50.7257 251.547Z" fill="black"/>
<path opacity="0.25" d="M19.8308 230.001L50.7261 247.452C51.148 247.639 51.5198 247.922 51.8117 248.277C52.1036 248.633 52.3073 249.052 52.4064 249.5C52.3574 249.007 52.1755 248.536 51.8798 248.137C51.5841 247.737 51.1855 247.425 50.7261 247.232L19.8308 229.781C17.6274 228.521 15.8044 229.56 15.8044 232.08V232.317C15.852 229.797 17.6274 228.757 19.8308 230.001Z" fill="white"/>
<path d="M66.7519 240.475H65.5947V237.325H66.5775C67.0197 236.848 67.3523 236.281 67.5521 235.664C67.7519 235.047 67.8142 234.394 67.7347 233.75V229.025H74.0755V237.309H75.1375V240.459H73.9645V238.475H66.7519V240.475ZM68.9553 233.75C69.026 235.015 68.7112 236.272 68.0518 237.357H72.8073V230.19H68.9553V233.75Z" fill="white" stroke="white" stroke-width="0.411304" stroke-miterlimit="10"/>
<path d="M84.6648 237.247C84.2083 237.701 83.666 238.062 83.0689 238.308C82.4719 238.555 81.8318 238.681 81.1853 238.681C80.5389 238.681 79.8988 238.555 79.3017 238.308C78.7046 238.062 78.1623 237.701 77.7058 237.247C76.799 236.306 76.2927 235.053 76.2927 233.75C76.2927 232.447 76.799 231.195 77.7058 230.254C78.1623 229.799 78.7046 229.438 79.3017 229.192C79.8988 228.946 80.5389 228.819 81.1853 228.819C81.8318 228.819 82.4719 228.946 83.0689 229.192C83.666 229.438 84.2083 229.799 84.6648 230.254C85.1227 230.713 85.4835 231.26 85.7257 231.86C85.968 232.461 86.087 233.103 86.0756 233.75C86.0944 234.398 85.9788 235.043 85.7361 235.644C85.4934 236.246 85.1287 236.791 84.6648 237.247ZM78.5935 236.459C78.9276 236.804 79.3292 237.077 79.7737 237.261C80.2181 237.445 80.6959 237.537 81.1774 237.53C81.6593 237.54 82.1379 237.449 82.5828 237.265C83.0276 237.08 83.429 236.806 83.7612 236.459C84.4452 235.721 84.8249 234.754 84.8249 233.75C84.8249 232.746 84.4452 231.78 83.7612 231.041C83.429 230.694 83.0276 230.42 82.5828 230.235C82.1379 230.051 81.6593 229.961 81.1774 229.97C80.6959 229.963 80.2181 230.055 79.7737 230.239C79.3292 230.424 78.9276 230.696 78.5935 231.041C77.9196 231.784 77.5466 232.75 77.5466 233.75C77.5466 234.751 77.9196 235.716 78.5935 236.459Z" fill="white" stroke="white" stroke-width="0.411304" stroke-miterlimit="10"/>
<path d="M92.2263 238.68C91.585 238.69 90.9482 238.571 90.3543 238.33C89.7604 238.089 89.2217 237.731 88.7706 237.278C87.856 236.328 87.3455 235.065 87.3455 233.75C87.3455 232.436 87.856 231.172 88.7706 230.222C89.2291 229.761 89.7781 229.399 90.3835 229.158C90.9889 228.917 91.6378 228.802 92.2898 228.82C92.9534 228.802 93.6125 228.934 94.2169 229.207C94.8213 229.48 95.3549 229.886 95.7772 230.395L94.937 231.214C94.6256 230.816 94.2226 230.499 93.762 230.288C93.3014 230.077 92.7965 229.979 92.2898 230.002C91.8018 229.989 91.3165 230.076 90.8639 230.258C90.4113 230.439 90.0009 230.711 89.6583 231.057C88.9755 231.802 88.5971 232.774 88.5971 233.782C88.5971 234.789 88.9755 235.761 89.6583 236.506C90.0009 236.852 90.4113 237.124 90.8639 237.305C91.3165 237.487 91.8018 237.574 92.2898 237.562C92.8344 237.546 93.3692 237.413 93.8565 237.171C94.3439 236.929 94.7722 236.584 95.1114 236.16L95.9674 236.995C95.5331 237.512 94.9927 237.93 94.3822 238.223C93.7078 238.536 92.9706 238.692 92.2263 238.68Z" fill="white" stroke="white" stroke-width="0.411304" stroke-miterlimit="10"/>
<path d="M100.944 238.475H99.7239V230.19H97.0608V229.025H103.592V230.19H100.944V238.475Z" fill="white" stroke="white" stroke-width="0.411304" stroke-miterlimit="10"/>
<path d="M111.993 229.025L108.395 236.994C108.308 237.314 108.151 237.611 107.937 237.864C107.723 238.118 107.456 238.322 107.154 238.463C106.853 238.604 106.524 238.678 106.191 238.68C105.857 238.682 105.528 238.612 105.224 238.475L105.542 237.357C105.735 237.465 105.953 237.524 106.176 237.53C106.41 237.542 106.643 237.481 106.841 237.357C107.034 237.197 107.181 236.991 107.269 236.758L107.618 236.002L104.448 229.025H105.89L108.236 234.443L110.551 229.025H111.993Z" fill="white" stroke="white" stroke-width="0.411304" stroke-miterlimit="10"/>
<path d="M113.372 238.475V229.025H120.252V238.475H119.031V230.19H114.593V238.475H113.372Z" fill="white" stroke="white" stroke-width="0.411304" stroke-miterlimit="10"/>
<path d="M122.424 238.475V229.025H123.644V233.073H128.4V229.025H129.636V238.475H128.4V234.207H123.644V238.475H122.424Z" fill="white" stroke="white" stroke-width="0.411304" stroke-miterlimit="10"/>
<path d="M139.592 237.247C139.134 237.702 138.59 238.063 137.992 238.309C137.393 238.556 136.752 238.683 136.104 238.683C135.456 238.683 134.815 238.556 134.217 238.309C133.618 238.063 133.075 237.702 132.617 237.247C131.71 236.306 131.204 235.053 131.204 233.75C131.204 232.447 131.71 231.195 132.617 230.254C133.073 229.799 133.616 229.438 134.213 229.192C134.81 228.946 135.45 228.819 136.096 228.819C136.743 228.819 137.383 228.946 137.98 229.192C138.577 229.438 139.119 229.799 139.576 230.254C140.475 231.198 140.977 232.449 140.977 233.75C140.977 235.051 140.475 236.302 139.576 237.247H139.592ZM133.52 236.459C133.853 236.806 134.254 237.08 134.699 237.265C135.144 237.449 135.622 237.54 136.104 237.53C136.586 237.537 137.063 237.445 137.508 237.261C137.952 237.077 138.354 236.804 138.688 236.459C139.362 235.716 139.735 234.751 139.735 233.75C139.735 232.75 139.362 231.784 138.688 231.041C138.354 230.696 137.952 230.424 137.508 230.239C137.063 230.055 136.586 229.963 136.104 229.97C135.622 229.961 135.144 230.051 134.699 230.235C134.254 230.42 133.853 230.694 133.52 231.041C132.836 231.78 132.457 232.746 132.457 233.75C132.457 234.754 132.836 235.721 133.52 236.459Z" fill="white" stroke="white" stroke-width="0.411304" stroke-miterlimit="10"/>
<path d="M145.98 238.475V229.025H149.42C150.133 229.018 150.823 229.276 151.354 229.75C151.619 229.978 151.83 230.261 151.972 230.58C152.115 230.898 152.185 231.244 152.178 231.592C152.182 232.017 152.061 232.433 151.829 232.789C151.595 233.127 151.272 233.395 150.894 233.561C151.352 233.717 151.754 234.001 152.051 234.38C152.343 234.766 152.499 235.236 152.495 235.719C152.503 236.082 152.431 236.442 152.283 236.774C152.135 237.106 151.915 237.402 151.639 237.64C151.089 238.149 150.361 238.426 149.61 238.412L145.98 238.475ZM147.201 233.073H149.42C149.627 233.085 149.835 233.05 150.027 232.971C150.219 232.892 150.391 232.77 150.529 232.616C150.798 232.354 150.952 231.998 150.957 231.624C150.972 231.249 150.842 230.882 150.593 230.6C150.46 230.453 150.295 230.337 150.112 230.261C149.928 230.185 149.73 230.15 149.531 230.159H147.248L147.201 233.073ZM147.201 237.31H149.673C149.888 237.317 150.102 237.277 150.299 237.192C150.496 237.108 150.672 236.981 150.815 236.821C151.089 236.531 151.241 236.148 151.243 235.75C151.233 235.356 151.075 234.979 150.799 234.695C150.646 234.536 150.461 234.41 150.257 234.326C150.052 234.242 149.832 234.201 149.61 234.207H147.201V237.31Z" fill="white" stroke="white" stroke-width="0.411304" stroke-miterlimit="10"/>
</g>
<defs>
<linearGradient id="paint0_linear_27_7871" x1="34.5569" y1="231.718" x2="8.12897" y2="258.317" gradientUnits="userSpaceOnUse">
<stop stop-color="#00A0FF"/>
<stop offset="0.01" stop-color="#00A1FF"/>
<stop offset="0.26" stop-color="#00BEFF"/>
<stop offset="0.51" stop-color="#00D2FF"/>
<stop offset="0.76" stop-color="#00DFFF"/>
<stop offset="1" stop-color="#00E3FF"/>
</linearGradient>
<linearGradient id="paint1_linear_27_7871" x1="53.6271" y1="249.5" x2="15.2815" y2="249.5" gradientUnits="userSpaceOnUse">
<stop stop-color="#FFE000"/>
<stop offset="0.41" stop-color="#FFBD00"/>
<stop offset="0.78" stop-color="#FFA500"/>
<stop offset="1" stop-color="#FF9C00"/>
</linearGradient>
<linearGradient id="paint2_linear_27_7871" x1="39.3604" y1="253.123" x2="3.51401" y2="289.185" gradientUnits="userSpaceOnUse">
<stop stop-color="#FF3A44"/>
<stop offset="1" stop-color="#C31162"/>
</linearGradient>
<linearGradient id="paint3_linear_27_7871" x1="11.5721" y1="218.284" x2="27.5737" y2="234.389" gradientUnits="userSpaceOnUse">
<stop stop-color="#32A071"/>
<stop offset="0.07" stop-color="#2DA771"/>
<stop offset="0.48" stop-color="#15CF74"/>
<stop offset="0.8" stop-color="#06E775"/>
<stop offset="1" stop-color="#00F076"/>
</linearGradient>
<clipPath id="clip0_27_7871">
<rect width="214" height="63" fill="white" transform="translate(0 218)"/>
</clipPath>
</defs>
</svg>
