<svg width="290" height="86" viewBox="0 0 290 86" fill="none" xmlns="http://www.w3.org/2000/svg">
<g clip-path="url(#clip0_27_7982)">
<rect width="290" height="86" rx="10" fill="white"/>
<path d="M279.259 0H10.7407C4.80879 0 0 4.81294 0 10.75V75.25C0 81.1871 4.80879 86 10.7407 86H279.259C285.191 86 290 81.1871 290 75.25V10.75C290 4.81294 285.191 0 279.259 0Z" fill="white"/>
<path d="M146.375 46.7624C144.565 46.7666 142.797 47.3079 141.294 48.3179C139.792 49.3278 138.622 50.761 137.934 52.4362C137.245 54.1114 137.068 55.9534 137.425 57.7293C137.783 59.5051 138.658 61.135 139.941 62.4129C141.224 63.6908 142.856 64.5593 144.632 64.9085C146.408 65.2577 148.248 65.0721 149.918 64.3749C151.589 63.6778 153.015 62.5005 154.017 60.9919C155.019 59.4834 155.552 57.7113 155.547 55.8999C155.565 54.6914 155.339 53.4918 154.884 52.3725C154.429 51.2531 153.753 50.2369 152.897 49.3843C152.041 48.5317 151.023 47.8602 149.902 47.4098C148.782 46.9593 147.582 46.7392 146.375 46.7624ZM146.375 61.4469C145.266 61.5245 144.158 61.2663 143.198 60.7059C142.237 60.1455 141.467 59.3088 140.987 58.3045C140.508 57.3002 140.342 56.1748 140.51 55.0746C140.678 53.9744 141.173 52.9502 141.93 52.1353C142.688 51.3204 143.673 50.7523 144.757 50.505C145.841 50.2577 146.975 50.3426 148.01 50.7486C149.045 51.1547 149.935 51.8631 150.563 52.7817C151.191 53.7004 151.528 54.7868 151.53 55.8999C151.565 56.6051 151.458 57.3101 151.216 57.9734C150.974 58.6366 150.602 59.2447 150.122 59.7616C149.641 60.2786 149.062 60.6941 148.419 60.9835C147.775 61.2729 147.08 61.4305 146.375 61.4469ZM126.354 46.7624C124.544 46.7666 122.776 47.3079 121.274 48.3179C119.771 49.3278 118.602 50.761 117.913 52.4362C117.224 54.1114 117.047 55.9534 117.405 57.7293C117.762 59.5051 118.637 61.135 119.92 62.4129C121.203 63.6908 122.835 64.5593 124.611 64.9085C126.387 65.2577 128.227 65.0721 129.897 64.3749C131.568 63.6778 132.994 62.5005 133.996 60.9919C134.998 59.4834 135.531 57.7113 135.527 55.8999C135.544 54.6914 135.319 53.4918 134.863 52.3725C134.408 51.2531 133.732 50.2369 132.876 49.3843C132.021 48.5317 131.002 47.8602 129.882 47.4098C128.761 46.9593 127.561 46.7392 126.354 46.7624ZM126.354 61.4469C125.245 61.5245 124.138 61.2663 123.177 60.7059C122.216 60.1455 121.446 59.3088 120.967 58.3045C120.487 57.3002 120.321 56.1748 120.489 55.0746C120.657 53.9744 121.152 52.9502 121.91 52.1353C122.667 51.3204 123.652 50.7523 124.736 50.505C125.82 50.2577 126.954 50.3426 127.989 50.7486C129.025 51.1547 129.914 51.8631 130.542 52.7817C131.17 53.7004 131.507 54.7868 131.51 55.8999C131.544 56.6051 131.437 57.3101 131.195 57.9734C130.954 58.6366 130.581 59.2447 130.101 59.7616C129.62 60.2786 129.041 60.6941 128.398 60.9835C127.754 61.2729 127.059 61.4305 126.354 61.4469ZM102.553 49.5789V53.4489H111.833C111.687 55.2716 110.93 56.9916 109.685 58.3294C108.754 59.2786 107.634 60.0217 106.398 60.5106C105.162 60.9994 103.837 61.2232 102.51 61.1674C99.775 61.1674 97.1523 60.0801 95.2186 58.1447C93.2849 56.2093 92.1986 53.5844 92.1986 50.8474C92.1986 48.1103 93.2849 45.4854 95.2186 43.55C97.1523 41.6146 99.775 40.5274 102.51 40.5274C105.131 40.4883 107.663 41.4848 109.556 43.3009L112.284 40.5704C111.003 39.303 109.483 38.304 107.812 37.6321C106.141 36.9602 104.353 36.6288 102.553 36.6574C100.643 36.583 98.7379 36.8952 96.9516 37.5753C95.1654 38.2555 93.5347 39.2895 92.1572 40.6155C90.7798 41.9415 89.684 43.5322 88.9355 45.2922C88.187 47.0522 87.8012 48.9453 87.8012 50.8581C87.8012 52.7709 88.187 54.664 88.9355 56.424C89.684 58.184 90.7798 59.7747 92.1572 61.1007C93.5347 62.4267 95.1654 63.4607 96.9516 64.1409C98.7379 64.821 100.643 65.1332 102.553 65.0589C104.39 65.1323 106.223 64.8159 107.929 64.1304C109.636 63.4449 111.179 62.4058 112.456 61.0814C114.711 58.6011 115.913 55.3391 115.807 51.9869C115.814 51.18 115.75 50.3741 115.613 49.5789H102.553ZM199.885 52.5889C199.325 50.9392 198.277 49.4988 196.881 48.4584C195.485 47.4179 193.806 46.8265 192.066 46.7624C190.891 46.7601 189.728 46.999 188.649 47.4644C187.57 47.9298 186.597 48.6118 185.792 49.4682C184.987 50.3246 184.365 51.3372 183.967 52.4435C183.568 53.5497 183.4 54.7261 183.473 55.8999C183.455 57.8625 184.072 59.7784 185.231 61.3614C186.39 62.9445 188.03 64.1096 189.906 64.6829C191.781 65.2562 193.791 65.2069 195.637 64.5422C197.482 63.8776 199.063 62.6334 200.143 60.9954L197.028 58.8454C196.564 59.62 195.905 60.2596 195.118 60.7009C194.33 61.1421 193.441 61.3696 192.539 61.3609C191.608 61.3993 190.687 61.155 189.897 60.66C189.107 60.165 188.485 59.4425 188.113 58.5874L200.336 53.5349L199.885 52.5889ZM187.426 55.6419C187.382 54.974 187.472 54.3042 187.691 53.6716C187.909 53.0391 188.251 52.4564 188.697 51.9579C189.144 51.4593 189.685 51.0549 190.289 50.7682C190.893 50.4815 191.548 50.3184 192.216 50.2884C192.909 50.2461 193.598 50.4092 194.198 50.7572C194.798 51.1052 195.282 51.6227 195.589 52.2449L187.426 55.6419ZM177.502 64.4999H181.519V37.6249H177.502V64.4999ZM170.928 48.8049H170.778C170.178 48.1209 169.437 47.5746 168.607 47.2036C167.776 46.8325 166.875 46.6453 165.966 46.6549C163.618 46.7688 161.405 47.7824 159.784 49.4855C158.162 51.1887 157.258 53.4508 157.258 55.8031C157.258 58.1554 158.162 60.4176 159.784 62.1207C161.405 63.8239 163.618 64.8374 165.966 64.9514C166.877 64.9696 167.78 64.7864 168.612 64.4148C169.444 64.0431 170.183 63.4922 170.778 62.8014H170.928V64.1129C170.928 67.6174 169.059 69.4879 166.052 69.4879C165.047 69.4658 164.072 69.1454 163.25 68.5673C162.427 67.9893 161.795 67.1797 161.433 66.2414L157.953 67.6819C158.597 69.2992 159.715 70.683 161.161 71.6504C162.607 72.6178 164.313 73.1232 166.052 73.0999C170.756 73.0999 174.645 70.3264 174.645 63.5754V47.2999H170.928V48.8049ZM166.31 61.4469C164.902 61.359 163.581 60.7375 162.616 59.7089C161.65 58.6803 161.112 57.322 161.112 55.9106C161.112 54.4992 161.65 53.1409 162.616 52.1123C163.581 51.0837 164.902 50.4622 166.31 50.3744C166.998 50.4041 167.673 50.572 168.294 50.8681C168.916 51.1642 169.472 51.5824 169.929 52.098C170.386 52.6135 170.735 53.2157 170.954 53.8689C171.174 54.522 171.26 55.2127 171.207 55.8999C171.266 56.5893 171.184 57.2836 170.967 57.9405C170.75 58.5975 170.402 59.2036 169.944 59.7221C169.486 60.2406 168.928 60.6608 168.304 60.9573C167.679 61.2537 167.001 61.4203 166.31 61.4469ZM218.703 37.6249H209.079V64.4999H213.096V54.3089H218.703C219.848 54.3912 220.997 54.2366 222.08 53.8546C223.162 53.4727 224.155 52.8717 224.995 52.089C225.835 51.3063 226.505 50.3588 226.963 49.3055C227.422 48.2522 227.658 47.1157 227.658 45.9669C227.658 44.8181 227.422 43.6816 226.963 42.6283C226.505 41.575 225.835 40.6274 224.995 39.8447C224.155 39.0621 223.162 38.461 222.08 38.0791C220.997 37.6972 219.848 37.5425 218.703 37.6249ZM218.703 50.5249H213.096V41.3659H218.789C219.393 41.3659 219.99 41.4849 220.548 41.7161C221.106 41.9473 221.613 42.2862 222.04 42.7135C222.466 43.1407 222.805 43.6479 223.036 44.2061C223.267 44.7644 223.386 45.3626 223.386 45.9669C223.386 46.5711 223.267 47.1694 223.036 47.7276C222.805 48.2858 222.466 48.793 222.04 49.2203C221.613 49.6475 221.106 49.9864 220.548 50.2176C219.99 50.4489 219.393 50.5679 218.789 50.5679L218.703 50.5249ZM243.493 46.6764C242.03 46.5861 240.573 46.9269 239.301 47.6568C238.03 48.3866 237 49.4735 236.339 50.7829L239.884 52.2664C240.242 51.6201 240.779 51.0914 241.431 50.7442C242.083 50.397 242.821 50.2462 243.557 50.3099C244.067 50.2503 244.584 50.2929 245.077 50.4353C245.57 50.5776 246.03 50.8169 246.43 51.1391C246.83 51.4614 247.162 51.8601 247.406 52.312C247.651 52.7639 247.803 53.26 247.853 53.7714V54.0294C246.562 53.3498 245.124 52.9956 243.665 52.9974C239.841 52.9974 235.931 55.1474 235.931 59.0604C235.969 59.8921 236.173 60.7077 236.532 61.4588C236.891 62.2099 237.397 62.8811 238.021 63.4326C238.644 63.9841 239.371 64.4047 240.16 64.6693C240.949 64.9339 241.783 65.0371 242.612 64.9729C243.62 65.0287 244.625 64.8152 245.523 64.3542C246.421 63.8933 247.181 63.2015 247.725 62.3499H247.853V64.4999H251.72V54.1584C251.72 49.4499 248.154 46.7194 243.579 46.7194L243.493 46.6764ZM242.999 61.4039C241.688 61.4039 239.862 60.7374 239.862 59.1249C239.862 56.9749 242.139 56.2439 244.159 56.2439C245.435 56.2123 246.696 56.5242 247.81 57.1469C247.676 58.3145 247.122 59.3936 246.253 60.1842C245.384 60.9748 244.259 61.4234 243.085 61.4469L242.999 61.4039ZM265.812 47.2999L261.215 58.9529H261.086L256.317 47.2999H252.021L259.174 63.5969L255.093 72.6484H259.282L270.28 47.2999H265.812ZM229.723 64.4999H233.719V37.6249H229.723V64.4999Z" fill="black"/>
<path d="M22.4267 16.2111C21.7188 17.0487 21.3576 18.1255 21.4171 19.221V66.7791C21.344 67.8764 21.7068 68.9582 22.4267 69.789L22.5771 69.9611L49.1926 43.3225V42.6776L22.5771 16.0605L22.4267 16.2111Z" fill="url(#paint0_linear_27_7982)"/>
<path d="M58 52.2021L49.1926 43.3226V42.6776L58 33.7981L58.1933 33.9271L68.7407 39.9041C71.7481 41.6026 71.7481 44.3976 68.7407 46.1176L58.2363 52.0946L58 52.2021Z" fill="url(#paint1_linear_27_7982)"/>
<path d="M58.2578 52.0729L49.1926 42.9999L22.4267 69.7889C23.0337 70.3297 23.8107 70.6408 24.6229 70.6683C25.435 70.6957 26.2312 70.4379 26.8734 69.9394L58.2578 52.0729Z" fill="url(#paint2_linear_27_7982)"/>
<path d="M58.2578 33.927L26.8734 16.082C26.2354 15.5766 25.4398 15.3125 24.6266 15.336C23.8133 15.3596 23.0343 15.6695 22.4267 16.211L49.1926 43L58.2578 33.927Z" fill="url(#paint3_linear_27_7982)"/>
<path opacity="0.2" d="M58 51.8795L26.8734 69.617C26.2546 70.0844 25.5005 70.3373 24.7252 70.3373C23.95 70.3373 23.1959 70.0844 22.5771 69.617L22.4267 69.7675L22.5771 69.9395C23.1959 70.4069 23.95 70.6598 24.7252 70.6598C25.5005 70.6598 26.2546 70.4069 26.8734 69.9395L58.2578 52.073L58 51.8795Z" fill="black"/>
<path opacity="0.12" d="M22.4267 69.4882C21.7368 68.6354 21.3986 67.5509 21.4816 66.4567V66.7792C21.4085 67.8765 21.7713 68.9583 22.4912 69.7892L22.6416 69.6387L22.4267 69.4882Z" fill="black"/>
<path opacity="0.12" d="M68.7407 45.7949L57.9999 51.8794L58.1933 52.0729L68.7407 46.0959C69.3633 45.8324 69.9034 45.4058 70.3041 44.8609C70.7048 44.3161 70.9513 43.6732 71.0177 42.9999C70.8834 43.6117 70.6074 44.1834 70.2119 44.6689C69.8164 45.1543 69.3124 45.54 68.7407 45.7949Z" fill="black"/>
<path opacity="0.25" d="M26.8733 16.3831L68.7407 40.2051C69.3124 40.4599 69.8164 40.8456 70.2119 41.3311C70.6074 41.8165 70.8834 42.3882 71.0177 43.0001C70.9514 42.3268 70.7048 41.6839 70.3041 41.139C69.9034 40.5942 69.3633 40.1675 68.7407 39.9041L26.8733 16.0821C23.8874 14.3621 21.417 15.7811 21.417 19.2211V19.5436C21.4814 16.1036 23.8874 14.6846 26.8733 16.3831Z" fill="white"/>
<path d="M90.4585 30.6807H88.8903V26.3807H90.2222C90.8214 25.7296 91.272 24.9558 91.5428 24.1131C91.8136 23.2704 91.898 22.3788 91.7903 21.5002V15.0502H100.383V26.3592H101.822V30.6592H100.233V27.9502H90.4585V30.6807ZM93.4444 21.5002C93.5402 23.2272 93.1135 24.9431 92.2199 26.4237H98.6644V16.6412H93.4444V21.5002Z" fill="black" stroke="black" stroke-width="0.411304" stroke-miterlimit="10"/>
<path d="M114.733 26.273C114.114 26.8938 113.379 27.3863 112.57 27.7224C111.761 28.0585 110.893 28.2315 110.017 28.2315C109.141 28.2315 108.274 28.0585 107.465 27.7224C106.656 27.3863 105.921 26.8938 105.302 26.273C104.073 24.9883 103.387 23.2785 103.387 21.5C103.387 19.7214 104.073 18.0116 105.302 16.727C105.921 16.1061 106.656 15.6136 107.465 15.2775C108.274 14.9414 109.141 14.7684 110.017 14.7684C110.893 14.7684 111.761 14.9414 112.57 15.2775C113.379 15.6136 114.114 16.1061 114.733 16.727C115.353 17.3548 115.842 18.1004 116.17 18.9201C116.499 19.7398 116.66 20.617 116.644 21.5C116.67 22.3842 116.513 23.2643 116.184 24.0854C115.855 24.9065 115.361 25.6511 114.733 26.273ZM106.505 25.198C106.958 25.6685 107.502 26.041 108.104 26.2925C108.707 26.5439 109.354 26.669 110.007 26.66C110.66 26.6729 111.308 26.5496 111.911 26.2979C112.514 26.0462 113.058 25.6716 113.508 25.198C114.435 24.1899 114.95 22.8699 114.95 21.5C114.95 20.13 114.435 18.81 113.508 17.802C113.058 17.3283 112.514 16.9537 111.911 16.702C111.308 16.4503 110.66 16.327 110.007 16.34C109.354 16.3309 108.707 16.456 108.104 16.7075C107.502 16.9589 106.958 17.3314 106.505 17.802C105.592 18.8168 105.087 20.1342 105.087 21.5C105.087 22.8657 105.592 24.1831 106.505 25.198Z" fill="black" stroke="black" stroke-width="0.411304" stroke-miterlimit="10"/>
<path d="M124.979 28.2296C124.11 28.2433 123.247 28.0808 122.442 27.7519C121.638 27.4231 120.908 26.9347 120.296 26.3161C119.057 25.0196 118.365 23.2945 118.365 21.5001C118.365 19.7057 119.057 17.9806 120.296 16.6841C120.918 16.0549 121.662 15.5603 122.482 15.2311C123.302 14.9019 124.182 14.7452 125.065 14.7706C125.964 14.7451 126.858 14.9256 127.677 15.2982C128.496 15.6708 129.219 16.2257 129.791 16.9206L128.653 18.0386C128.231 17.4956 127.684 17.0618 127.06 16.7737C126.436 16.4856 125.752 16.3517 125.065 16.3831C124.404 16.3662 123.746 16.4854 123.133 16.7331C122.52 16.9809 121.963 17.3521 121.499 17.8236C120.574 18.841 120.061 20.1673 120.061 21.5431C120.061 22.9189 120.574 24.2452 121.499 25.2626C121.963 25.7341 122.52 26.1053 123.133 26.3531C123.746 26.6008 124.404 26.72 125.065 26.7031C125.803 26.6821 126.528 26.5 127.188 26.1695C127.849 25.839 128.429 25.368 128.889 24.7896L130.049 25.9291C129.46 26.6349 128.728 27.2067 127.901 27.6061C126.987 28.0334 125.988 28.2466 124.979 28.2296Z" fill="black" stroke="black" stroke-width="0.411304" stroke-miterlimit="10"/>
<path d="M136.794 27.9502H135.14V16.6412H131.531V15.0502H140.381V16.6412H136.794V27.9502Z" fill="black" stroke="black" stroke-width="0.411304" stroke-miterlimit="10"/>
<path d="M151.767 15.0502L146.89 25.9292C146.772 26.3654 146.561 26.7706 146.27 27.1168C145.98 27.463 145.618 27.7419 145.209 27.9341C144.801 28.1263 144.355 28.2274 143.903 28.2301C143.452 28.2329 143.005 28.1374 142.594 27.9502L143.024 26.4237C143.287 26.5715 143.582 26.6527 143.883 26.6602C144.201 26.6761 144.516 26.5935 144.785 26.4237C145.046 26.2064 145.246 25.9248 145.365 25.6067L145.838 24.5747L141.542 15.0502H143.496L146.676 22.4462L149.812 15.0502H151.767Z" fill="black" stroke="black" stroke-width="0.411304" stroke-miterlimit="10"/>
<path d="M153.635 27.9502V15.0502H162.958V27.9502H161.304V16.6412H155.29V27.9502H153.635Z" fill="black" stroke="black" stroke-width="0.411304" stroke-miterlimit="10"/>
<path d="M165.901 27.9502V15.0502H167.555V20.5757H174V15.0502H175.675V27.9502H174V22.1237H167.555V27.9502H165.901Z" fill="black" stroke="black" stroke-width="0.411304" stroke-miterlimit="10"/>
<path d="M189.166 26.273C188.546 26.8944 187.809 27.3874 186.998 27.7238C186.187 28.0602 185.318 28.2333 184.44 28.2333C183.562 28.2333 182.693 28.0602 181.882 27.7238C181.071 27.3874 180.335 26.8944 179.714 26.273C178.485 24.9883 177.799 23.2785 177.799 21.5C177.799 19.7214 178.485 18.0116 179.714 16.727C180.333 16.1061 181.068 15.6136 181.877 15.2775C182.686 14.9414 183.553 14.7684 184.429 14.7684C185.305 14.7684 186.173 14.9414 186.982 15.2775C187.791 15.6136 188.526 16.1061 189.144 16.727C190.364 18.0166 191.043 19.7245 191.043 21.5C191.043 23.2754 190.364 24.9834 189.144 26.273H189.166ZM180.939 25.198C181.389 25.6716 181.933 26.0462 182.535 26.2979C183.138 26.5496 183.787 26.6729 184.44 26.66C185.093 26.669 185.74 26.5439 186.342 26.2925C186.945 26.041 187.489 25.6685 187.941 25.198C188.855 24.1831 189.36 22.8657 189.36 21.5C189.36 20.1342 188.855 18.8168 187.941 17.802C187.489 17.3314 186.945 16.9589 186.342 16.7075C185.74 16.456 185.093 16.3309 184.44 16.34C183.787 16.327 183.138 16.4503 182.535 16.702C181.933 16.9537 181.389 17.3283 180.939 17.802C180.012 18.81 179.497 20.13 179.497 21.5C179.497 22.8699 180.012 24.1899 180.939 25.198Z" fill="black" stroke="black" stroke-width="0.411304" stroke-miterlimit="10"/>
<path d="M197.823 27.95V15.05H202.484C203.451 15.0403 204.386 15.3931 205.105 16.039C205.464 16.3508 205.75 16.7377 205.943 17.1724C206.136 17.6071 206.232 18.0789 206.222 18.5545C206.227 19.1337 206.063 19.7017 205.75 20.1885C205.433 20.6501 204.994 21.0148 204.482 21.242C205.102 21.4542 205.647 21.8427 206.05 22.36C206.445 22.8869 206.657 23.5289 206.652 24.1875C206.663 24.6831 206.565 25.1751 206.364 25.6285C206.164 26.0818 205.866 26.4854 205.492 26.8105C204.746 27.5049 203.76 27.8826 202.742 27.864L197.823 27.95ZM199.477 20.5755H202.484C202.766 20.5918 203.047 20.5442 203.308 20.4362C203.568 20.3282 203.801 20.1627 203.988 19.952C204.352 19.5947 204.561 19.1079 204.568 18.5975C204.588 18.0855 204.412 17.5853 204.074 17.2C203.893 16.9995 203.671 16.8415 203.422 16.7374C203.173 16.6333 202.904 16.5857 202.635 16.598H199.541L199.477 20.5755ZM199.477 26.359H202.828C203.119 26.3688 203.409 26.3141 203.676 26.1989C203.943 26.0837 204.182 25.9107 204.375 25.6925C204.746 25.296 204.953 24.7737 204.955 24.2305C204.942 23.6919 204.727 23.1778 204.353 22.79C204.146 22.5724 203.896 22.4006 203.618 22.2858C203.341 22.171 203.042 22.1157 202.742 22.1235H199.477V26.359Z" fill="black" stroke="black" stroke-width="0.411304" stroke-miterlimit="10"/>
</g>
<defs>
<linearGradient id="paint0_linear_27_7982" x1="46.8297" y1="18.7265" x2="10.7527" y2="54.7725" gradientUnits="userSpaceOnUse">
<stop stop-color="#00A0FF"/>
<stop offset="0.01" stop-color="#00A1FF"/>
<stop offset="0.26" stop-color="#00BEFF"/>
<stop offset="0.51" stop-color="#00D2FF"/>
<stop offset="0.76" stop-color="#00DFFF"/>
<stop offset="1" stop-color="#00E3FF"/>
</linearGradient>
<linearGradient id="paint1_linear_27_7982" x1="72.6718" y1="43.0001" x2="20.7081" y2="43.0001" gradientUnits="userSpaceOnUse">
<stop stop-color="#FFE000"/>
<stop offset="0.41" stop-color="#FFBD00"/>
<stop offset="0.78" stop-color="#FFA500"/>
<stop offset="1" stop-color="#FF9C00"/>
</linearGradient>
<linearGradient id="paint2_linear_27_7982" x1="53.3385" y1="47.9449" x2="4.40458" y2="96.8152" gradientUnits="userSpaceOnUse">
<stop stop-color="#FF3A44"/>
<stop offset="1" stop-color="#C31162"/>
</linearGradient>
<linearGradient id="paint3_linear_27_7982" x1="15.6815" y1="0.387034" x2="37.5255" y2="22.2122" gradientUnits="userSpaceOnUse">
<stop stop-color="#32A071"/>
<stop offset="0.07" stop-color="#2DA771"/>
<stop offset="0.48" stop-color="#15CF74"/>
<stop offset="0.8" stop-color="#06E775"/>
<stop offset="1" stop-color="#00F076"/>
</linearGradient>
<clipPath id="clip0_27_7982">
<rect width="290" height="86" rx="10" fill="white"/>
</clipPath>
</defs>
</svg>
