<svg width="101" height="114" viewBox="0 0 101 114" fill="none" xmlns="http://www.w3.org/2000/svg">
<path d="M7.97401 113.25C5.53751 113.25 3.5883 112.364 2.1264 110.592C0.708801 108.864 0 106.561 0 103.681V10.2524C0 7.37286 0.708801 5.06926 2.1264 3.34155C3.5883 1.61385 5.53751 0.75 7.97401 0.75C9.30301 0.75 10.5656 0.99365 11.7617 1.48095C12.9578 1.92395 14.2203 2.522 15.5493 3.2751L93.0301 48.1289C95.821 49.7237 97.7481 51.1635 98.8113 52.4482C99.9188 53.6886 100.473 55.1948 100.473 56.9668C100.473 58.7388 99.9188 60.2671 98.8113 61.5518C97.7481 62.7922 95.821 64.232 93.0301 65.8711L15.5493 110.658C14.2203 111.456 12.9578 112.076 11.7617 112.519C10.5656 113.006 9.30301 113.25 7.97401 113.25Z" fill="#BCBCBC"/>
</svg>
