<svg width="12" height="12" viewBox="0 0 12 12" fill="none" xmlns="http://www.w3.org/2000/svg">
<path d="M4.42732 11.9375C4.17048 11.9375 3.94411 11.8102 3.74822 11.5557L0.359284 7.20447C0.293987 7.12548 0.246102 7.04648 0.21563 6.96749C0.185158 6.88411 0.169922 6.80292 0.169922 6.72393C0.169922 6.54399 0.22869 6.39698 0.346225 6.28288C0.46376 6.16439 0.613945 6.10514 0.796777 6.10514C1.01444 6.10514 1.20162 6.21266 1.35834 6.4277L4.4012 10.4432L10.2649 1.02322C10.3433 0.900344 10.4238 0.814767 10.5065 0.766494C10.5892 0.713831 10.6959 0.6875 10.8265 0.6875C11.0049 0.6875 11.1486 0.742357 11.2574 0.85207C11.3663 0.961783 11.4207 1.1066 11.4207 1.28653C11.4207 1.36553 11.4076 1.44452 11.3815 1.52352C11.3554 1.59812 11.314 1.6815 11.2574 1.77366L5.08682 11.5689C4.92575 11.8146 4.70592 11.9375 4.42732 11.9375Z" fill="#141414"/>
</svg>
