<svg width="24" height="24" viewBox="0 0 24 24" fill="none" xmlns="http://www.w3.org/2000/svg">
<g clip-path="url(#clip0_2415_23699)">
<rect width="24" height="24" fill="white"/>
<path d="M15.8327 17.1053L15.7699 17.0425L15.7001 17.0975C14.6481 17.9266 13.413 18.492 12.098 18.7467C10.783 19.0014 9.42613 18.938 8.14062 18.5616C6.85511 18.1853 5.67825 17.507 4.70821 16.5833C3.73816 15.6596 3.00307 14.5174 2.56427 13.2518C2.12546 11.9863 1.99567 10.6341 2.18571 9.30823C2.37575 7.98232 2.88011 6.72108 3.65672 5.62973C4.43333 4.53839 5.45967 3.64859 6.65011 3.03457C7.84054 2.42055 9.16056 2.10011 10.5 2.1C12.0772 2.09989 13.6226 2.54382 14.9592 3.38098C16.2959 4.21814 17.3699 5.41471 18.0583 6.83374C18.7466 8.25277 19.0216 9.83694 18.8517 11.405C18.6818 12.973 18.0738 14.4615 17.0975 15.7001L17.0425 15.7699L17.1053 15.8327L20.7561 19.4835C20.7563 19.4837 20.7565 19.4839 20.7567 19.4841C20.9202 19.6537 21.0107 19.8808 21.0087 20.1165C21.0066 20.3525 20.912 20.5782 20.7451 20.7451C20.5783 20.912 20.3525 21.0066 20.1165 21.0087C19.8808 21.0107 19.6538 20.9202 19.4841 20.7566C19.4839 20.7565 19.4837 20.7563 19.4835 20.7561L15.8327 17.1053ZM5.8331 5.8331C4.59536 7.07084 3.90001 8.74957 3.90001 10.5C3.90001 12.2504 4.59536 13.9292 5.8331 15.1669C7.07084 16.4046 8.74958 17.1 10.5 17.1C12.2504 17.1 13.9292 16.4046 15.1669 15.1669C16.4047 13.9292 17.1 12.2504 17.1 10.5C17.1 8.74957 16.4047 7.07084 15.1669 5.8331C13.9292 4.59535 12.2504 3.9 10.5 3.9C8.74958 3.9 7.07084 4.59535 5.8331 5.8331Z" fill="#141414" stroke="white" stroke-width="0.2"/>
</g>
<defs>
<clipPath id="clip0_2415_23699">
<rect width="24" height="24" fill="white"/>
</clipPath>
</defs>
</svg>
