<svg width="16" height="16" viewBox="0 0 16 16" fill="none" xmlns="http://www.w3.org/2000/svg">
<path d="M6.40909 4.16667H9.59091C9.59091 3.80752 9.4233 3.46308 9.12494 3.20913C8.82659 2.95517 8.42194 2.8125 8 2.8125C7.57806 2.8125 7.17341 2.95517 6.87506 3.20913C6.5767 3.46308 6.40909 3.80752 6.40909 4.16667ZM5.45455 4.16667C5.45455 3.59203 5.72273 3.04093 6.20009 2.6346C6.67746 2.22827 7.3249 2 8 2C8.6751 2 9.32254 2.22827 9.79991 2.6346C10.2773 3.04093 10.5455 3.59203 10.5455 4.16667H14.5227C14.6493 4.16667 14.7707 4.20947 14.8602 4.28565C14.9497 4.36184 15 4.46517 15 4.57292C15 4.68066 14.9497 4.78399 14.8602 4.86018C14.7707 4.93637 14.6493 4.97917 14.5227 4.97917H13.6891L12.9146 12.8891C12.8583 13.4646 12.55 14.0009 12.0508 14.3919C11.5516 14.7829 10.898 15 10.2196 15H5.78036C5.10199 15 4.44842 14.7829 3.94923 14.3919C3.45004 14.0009 3.14171 13.4646 3.08536 12.8891L2.31091 4.97917H1.47727C1.35069 4.97917 1.2293 4.93637 1.13979 4.86018C1.05028 4.78399 1 4.68066 1 4.57292C1 4.46517 1.05028 4.36184 1.13979 4.28565C1.2293 4.20947 1.35069 4.16667 1.47727 4.16667H5.45455ZM4.03673 12.8214C4.07312 13.1938 4.27258 13.5409 4.59555 13.7939C4.91852 14.0469 5.34141 14.1874 5.78036 14.1875H10.2196C10.6586 14.1874 11.0815 14.0469 11.4045 13.7939C11.7274 13.5409 11.9269 13.1938 11.9633 12.8214L12.732 4.97917H3.26864L4.03673 12.8214ZM6.56818 6.875C6.69476 6.875 6.81616 6.9178 6.90566 6.99399C6.99517 7.07018 7.04545 7.17351 7.04545 7.28125V11.8854C7.04545 11.9932 6.99517 12.0965 6.90566 12.1727C6.81616 12.2489 6.69476 12.2917 6.56818 12.2917C6.4416 12.2917 6.32021 12.2489 6.2307 12.1727C6.14119 12.0965 6.09091 11.9932 6.09091 11.8854V7.28125C6.09091 7.17351 6.14119 7.07018 6.2307 6.99399C6.32021 6.9178 6.4416 6.875 6.56818 6.875ZM9.90909 7.28125C9.90909 7.17351 9.85881 7.07018 9.7693 6.99399C9.6798 6.9178 9.5584 6.875 9.43182 6.875C9.30524 6.875 9.18384 6.9178 9.09434 6.99399C9.00483 7.07018 8.95455 7.17351 8.95455 7.28125V11.8854C8.95455 11.9932 9.00483 12.0965 9.09434 12.1727C9.18384 12.2489 9.30524 12.2917 9.43182 12.2917C9.5584 12.2917 9.6798 12.2489 9.7693 12.1727C9.85881 12.0965 9.90909 11.9932 9.90909 11.8854V7.28125Z" fill="#BCBCBC"/>
</svg>
