<svg width="24" height="24" viewBox="0 0 24 24" fill="none" xmlns="http://www.w3.org/2000/svg">
<path d="M12 21.5C10.7706 21.5 9.61176 21.2647 8.52353 20.7941C7.44118 20.3235 6.48529 19.6735 5.65588 18.8441C4.82647 18.0147 4.17647 17.0588 3.70588 15.9765C3.23529 14.8882 3 13.7294 3 12.5C3 11.2706 3.23529 10.1147 3.70588 9.03235C4.17647 7.94412 4.82353 6.98529 5.64706 6.15588C6.47647 5.32647 7.43235 4.67647 8.51471 4.20588C9.60294 3.73529 10.7618 3.5 11.9912 3.5C13.2206 3.5 14.3794 3.73529 15.4676 4.20588C16.5559 4.67647 17.5147 5.32647 18.3441 6.15588C19.1735 6.98529 19.8235 7.94412 20.2941 9.03235C20.7647 10.1147 21 11.2706 21 12.5C21 13.7294 20.7647 14.8882 20.2941 15.9765C19.8235 17.0588 19.1735 18.0147 18.3441 18.8441C17.5147 19.6735 16.5559 20.3235 15.4676 20.7941C14.3853 21.2647 13.2294 21.5 12 21.5ZM12 20C13.0412 20 14.0147 19.8059 14.9206 19.4176C15.8265 19.0294 16.6235 18.4941 17.3118 17.8118C18 17.1235 18.5353 16.3265 18.9176 15.4206C19.3059 14.5147 19.5 13.5412 19.5 12.5C19.5 11.4588 19.3059 10.4853 18.9176 9.57941C18.5294 8.67353 17.9912 7.87647 17.3029 7.18824C16.6206 6.5 15.8235 5.96471 14.9118 5.58235C14.0059 5.19412 13.0324 5 11.9912 5C10.95 5 9.97647 5.19412 9.07059 5.58235C8.16471 5.96471 7.37059 6.5 6.68824 7.18824C6.00588 7.87647 5.47059 8.67353 5.08235 9.57941C4.7 10.4853 4.50882 11.4588 4.50882 12.5C4.50882 13.5412 4.7 14.5147 5.08235 15.4206C5.47059 16.3265 6.00588 17.1235 6.68824 17.8118C7.37647 18.4941 8.17353 19.0294 9.07941 19.4176C9.98529 19.8059 10.9588 20 12 20ZM10.35 15.95C10.2147 16.0324 10.0794 16.0676 9.94412 16.0559C9.80882 16.0441 9.69412 15.9971 9.6 15.9147C9.51176 15.8265 9.46765 15.7118 9.46765 15.5706V9.43824C9.46765 9.29706 9.51471 9.18529 9.60882 9.10294C9.70294 9.02059 9.81765 8.97647 9.95294 8.97059C10.0941 8.95882 10.2265 8.98823 10.35 9.05882L15.3794 12.0412C15.4971 12.1118 15.5765 12.2088 15.6176 12.3324C15.6588 12.45 15.6588 12.5706 15.6176 12.6941C15.5824 12.8118 15.5029 12.9088 15.3794 12.9853L10.35 15.95Z" fill="white"/>
</svg>
