<svg width="16" height="16" viewBox="0 0 16 16" fill="none" xmlns="http://www.w3.org/2000/svg">
<g clip-path="url(#clip0_2275_499)">
<path d="M8.43748 0C8.70435 0.0384375 8.97435 0.0609374 9.23716 0.118125C11.9559 0.70875 13.7353 2.33687 14.5247 5.00062C14.9834 6.54875 14.7987 8.06719 14.1278 9.53187C13.5687 10.7506 12.775 11.8084 11.8737 12.7909C10.9181 13.8325 9.84873 14.7541 8.78748 15.6825C8.6156 15.8328 8.36841 15.8969 8.15623 16.0006H7.84373C7.50685 15.9381 7.25373 15.7359 7.00716 15.5141C6.02904 14.6328 5.02966 13.7737 4.13685 12.8025C3.22029 11.8053 2.3956 10.74 1.8556 9.48812C0.754039 6.9325 1.09373 4.55281 2.84373 2.4025C3.90935 1.09 5.32466 0.339999 6.99404 0.0737495C7.18154 0.0424995 7.37404 0.024375 7.56404 0H8.43748ZM8.17685 0.935625C7.30779 0.951875 6.6306 1.04937 5.98466 1.30625C3.9381 2.11875 2.69248 3.60875 2.26591 5.76719C2.06341 6.78781 2.1881 7.78469 2.56529 8.75406C3.0056 9.885 3.69029 10.8597 4.47529 11.7712C5.48435 12.9437 6.66279 13.94 7.80966 14.9687C7.96216 15.1053 8.05029 15.0987 8.21591 14.9478C8.90716 14.3228 9.60654 13.7066 10.2844 13.0672C11.1765 12.2256 11.9893 11.3125 12.6543 10.2769C13.1212 9.55 13.4981 8.78125 13.6878 7.93312C14.019 6.44 13.7703 5.02937 12.9656 3.73875C11.8256 1.91156 10.139 1.01344 8.17685 0.935625Z" fill="white"/>
<path d="M5.02106 6.51965C5.01043 4.88278 6.34887 3.53653 7.992 3.5309C9.63512 3.52528 10.9673 4.85184 10.9792 6.50309C10.9907 8.13622 9.652 9.48496 8.00825 9.49559C6.37512 9.5059 5.03137 8.16653 5.02106 6.51965ZM10.042 6.51965C10.0449 5.9782 9.83251 5.45778 9.45166 5.07289C9.07081 4.688 8.55267 4.47017 8.01121 4.46731C7.46976 4.46445 6.94934 4.6768 6.56445 5.05764C6.17957 5.43849 5.96173 5.95663 5.95887 6.49809C5.94512 7.61997 6.86075 8.54965 7.99012 8.56059C9.11043 8.56746 10.0357 7.64809 10.042 6.5184V6.51965Z" fill="white"/>
</g>
<defs>
<clipPath id="clip0_2275_499">
<rect width="16" height="16" fill="white"/>
</clipPath>
</defs>
</svg>
